{"glyphs":{"0":{"ha":864,"x_min":31,"x_max":833,"o":"m 742 288 q 721 188 742 235 q 664 107 700 142 q 580 53 628 72 q 479 33 532 33 l 479 63 q 572 79 529 63 q 645 126 614 96 q 694 197 676 156 q 713 288 713 239 l 713 476 l 742 476 l 742 288 m 540 479 q 526 446 540 460 q 492 432 513 432 q 458 446 471 432 q 444 479 444 460 q 458 513 444 499 q 492 528 472 528 q 526 514 513 528 q 540 479 540 500 m 776 479 q 753 590 776 538 q 692 681 731 642 q 601 742 653 719 q 489 765 549 765 q 377 743 429 765 q 286 682 325 721 q 225 591 247 643 q 203 479 203 539 l 203 288 q 225 176 203 229 q 286 85 247 124 q 377 23 325 46 q 489 0 429 0 q 601 23 549 0 q 693 85 654 46 q 754 177 732 125 q 776 288 776 229 l 776 479 m 833 288 q 806 153 833 215 q 733 44 779 90 q 623 -30 686 -3 q 489 -57 560 -57 q 317 -14 396 -57 q 194 108 239 29 q 73 230 115 151 q 31 401 31 308 l 31 593 q 58 727 31 664 q 131 837 85 790 q 240 910 178 883 q 375 938 303 938 q 545 894 465 938 q 669 772 625 851 q 791 650 749 729 q 833 479 833 571 l 833 288 z "},"1":{"ha":601,"x_min":42,"x_max":558,"o":"m 288 33 l 288 63 l 440 63 l 440 203 l 469 203 l 469 33 l 288 33 m 501 765 l 214 585 l 214 0 l 501 0 l 501 765 m 157 -57 l 157 57 l 42 57 l 42 732 l 444 985 l 444 799 l 558 869 l 558 -57 l 157 -57 z "},"2":{"ha":811,"x_min":38,"x_max":774,"o":"m 151 -57 l 151 57 l 38 57 l 38 369 q 51 462 38 417 q 91 544 65 507 q 152 611 117 582 q 232 658 188 640 l 85 806 q 349 938 217 938 q 503 896 432 938 q 618 782 575 854 q 732 667 690 739 q 774 513 774 596 q 704 315 774 401 l 774 315 l 774 -57 l 151 -57 m 717 258 l 472 258 q 567 280 522 260 q 644 334 611 300 q 697 414 678 368 q 717 513 717 460 q 697 610 717 564 q 642 691 676 657 q 562 745 608 725 q 463 765 515 765 q 281 690 353 765 l 463 508 q 364 489 410 508 q 283 435 318 469 q 229 354 249 400 q 210 254 210 308 l 210 0 l 717 0 l 717 258 m 504 33 l 504 63 l 657 63 l 657 203 l 686 203 l 686 33 l 504 33 m 685 511 q 631 380 678 436 q 511 299 583 324 l 496 322 q 607 391 564 342 q 657 508 650 440 l 685 511 z "},"3":{"ha":804,"x_min":31,"x_max":774,"o":"m 679 288 q 658 188 679 235 q 601 108 638 142 q 518 53 565 74 q 419 33 471 33 l 419 63 q 512 80 469 63 q 585 127 554 97 q 634 198 617 157 q 651 288 651 239 l 651 476 l 679 476 l 679 288 m 717 479 q 694 590 717 538 q 632 681 671 642 q 541 742 593 719 q 429 765 489 765 q 226 682 310 765 l 429 479 l 226 479 l 226 288 l 429 288 l 226 83 q 429 0 310 0 q 542 23 489 0 q 633 85 594 46 q 694 177 672 125 q 717 288 717 229 l 717 479 m 774 288 q 747 153 774 215 q 673 44 719 90 q 563 -30 626 -3 q 429 -57 500 -57 q 144 83 288 -57 l 160 99 q 31 199 94 132 l 168 338 l 168 344 l 54 344 l 54 651 l 176 651 l 31 797 q 315 938 171 938 q 487 894 408 938 q 608 772 565 851 q 731 650 688 729 q 774 479 774 571 l 774 288 z "},"4":{"ha":954,"x_min":28,"x_max":928,"o":"m 563 33 l 563 63 l 715 63 l 715 203 l 744 203 l 744 33 l 563 33 m 497 519 q 484 485 497 499 q 450 471 471 471 q 415 485 429 471 q 401 519 401 499 q 415 553 401 540 q 450 567 429 567 q 484 553 471 567 q 497 519 497 540 m 869 479 l 774 479 l 774 765 l 488 765 l 200 479 l 200 288 l 488 288 l 488 0 l 774 0 l 774 288 l 869 288 l 869 479 m 832 229 l 832 -57 l 429 -57 l 429 57 l 315 57 l 315 229 l 143 229 l 143 344 l 28 344 l 28 618 l 349 938 l 717 938 l 717 824 l 832 824 l 832 536 l 928 536 l 928 229 l 832 229 z "},"5":{"ha":790,"x_min":26,"x_max":764,"o":"m 764 254 q 740 134 764 190 q 674 35 715 78 q 575 -32 632 -7 q 453 -57 518 -57 q 189 75 308 -57 l 203 90 q 74 190 133 124 l 206 322 q 194 339 200 331 q 183 357 189 347 q 67 472 108 400 q 26 626 26 543 l 26 938 l 635 938 l 635 824 l 750 824 l 750 451 l 696 451 q 764 254 764 367 m 707 254 q 688 351 707 306 q 635 430 668 396 q 557 485 601 464 q 463 508 513 506 l 693 508 l 693 765 l 199 765 l 199 513 q 218 413 199 460 q 272 332 238 367 q 353 278 307 297 q 453 258 400 258 l 268 74 q 453 0 333 0 q 552 20 506 0 q 633 75 599 40 q 687 156 667 110 q 707 254 707 203 m 671 249 q 654 165 671 204 q 608 96 638 125 q 539 50 579 67 q 453 33 499 33 l 453 63 q 524 76 490 63 q 585 115 558 90 q 627 174 611 140 q 643 249 643 208 l 671 249 m 475 546 l 475 574 l 628 574 l 628 713 l 657 713 l 657 546 l 475 546 z "},"6":{"ha":774,"x_min":13,"x_max":761,"o":"m 656 249 q 639 163 656 203 q 592 95 622 124 q 522 50 563 67 q 436 33 482 33 l 436 63 q 507 76 472 63 q 568 115 542 90 q 610 174 594 140 q 626 249 626 208 l 656 249 m 492 254 q 478 221 492 235 q 444 207 464 207 q 410 221 424 207 q 396 254 396 235 q 410 288 396 274 q 444 303 425 303 q 478 289 464 303 q 492 254 492 275 m 704 254 q 683 353 704 307 q 626 434 663 400 q 543 488 590 468 q 444 508 496 508 l 444 765 l 185 765 l 185 254 q 206 155 185 201 q 262 74 226 108 q 344 19 297 39 q 444 0 392 0 q 543 19 496 0 q 626 74 590 39 q 683 155 663 108 q 704 254 704 201 m 761 254 q 736 132 761 189 q 668 33 711 75 q 567 -33 625 -8 q 444 -57 510 -57 q 284 -15 357 -57 q 168 100 211 28 q 54 215 96 143 q 13 369 13 286 l 13 938 l 386 938 l 386 824 l 501 824 l 501 631 q 606 522 565 589 q 719 409 678 479 q 761 254 761 339 z "},"7":{"ha":883,"x_min":-8,"x_max":963,"o":"m 446 25 l 292 25 l 292 54 l 428 54 l 774 725 l 808 725 l 446 25 m 199 765 l 199 574 l 486 574 l 199 0 l 486 0 l 868 765 l 199 765 m 522 -57 l 107 -57 l 164 57 l -8 57 l 221 517 l 142 517 l 142 632 l 26 632 l 26 938 l 847 938 l 790 824 l 963 824 l 522 -57 z "},"8":{"ha":844,"x_min":21,"x_max":825,"o":"m 729 288 q 709 198 729 243 q 655 116 689 153 q 577 56 621 79 q 488 33 533 33 l 488 63 q 558 82 521 63 q 627 133 596 101 q 679 206 658 165 q 700 288 700 246 l 729 288 m 535 290 q 521 257 535 271 q 488 243 507 243 q 453 257 467 243 q 439 290 439 271 q 453 324 439 310 q 488 339 468 339 q 521 325 507 339 q 535 290 535 311 m 528 597 q 514 563 528 576 q 479 549 500 549 q 446 563 460 549 q 432 597 432 576 q 446 631 432 618 q 479 644 460 644 q 513 631 499 644 q 528 597 528 617 m 767 288 q 661 511 767 426 q 671 574 671 539 q 656 647 671 613 q 614 708 640 682 q 553 750 588 735 q 479 765 518 765 q 406 750 440 765 q 345 708 371 735 q 304 647 319 682 q 289 574 289 613 q 299 511 289 539 q 193 288 193 426 q 215 176 193 229 q 276 85 238 124 q 367 23 315 46 q 479 0 419 0 q 593 23 540 0 q 684 85 646 46 q 744 176 722 124 q 767 288 767 229 m 825 288 q 798 153 825 217 q 724 44 771 90 q 614 -30 676 -3 q 479 -57 551 -57 q 308 -14 386 -57 q 186 108 229 29 q 64 230 107 151 q 21 401 21 308 q 119 644 21 542 q 117 667 118 656 q 117 689 117 678 q 136 786 117 740 q 189 865 156 832 q 267 918 222 899 q 365 938 313 938 q 497 900 436 938 q 589 799 557 863 q 691 706 653 765 q 729 574 729 646 q 725 531 729 551 q 825 288 825 428 z "},"9":{"ha":815,"x_min":33,"x_max":782,"o":"m 515 33 l 515 63 l 669 63 l 669 203 l 697 203 l 697 33 l 515 33 m 510 511 q 496 476 510 490 q 463 463 482 463 q 428 476 442 463 q 414 511 414 490 q 428 544 414 531 q 463 558 442 558 q 496 544 482 558 q 510 511 510 531 m 724 511 q 703 610 724 564 q 647 691 682 657 q 565 745 611 725 q 465 765 518 765 q 365 746 413 765 q 283 692 318 726 q 226 612 247 658 q 206 511 206 565 q 226 410 206 457 q 283 330 247 364 q 365 276 318 296 q 465 257 413 257 l 465 0 l 724 0 l 724 511 m 408 -57 l 408 57 l 293 57 l 293 250 q 189 358 226 289 q 75 472 117 401 q 33 626 33 543 q 58 749 33 692 q 127 847 83 806 q 228 913 171 889 q 350 938 285 938 q 510 895 438 938 q 626 781 583 853 q 740 667 699 739 q 782 511 782 594 l 782 -57 l 408 -57 z "},"\u0017":{"ha":315,"x_min":0,"x_max":0,"o":""}," ":{"ha":315,"x_min":0,"x_max":0,"o":""},"!":{"ha":596,"x_min":39,"x_max":557,"o":"m 358 340 l 358 368 l 446 368 l 446 461 l 475 461 l 475 340 l 358 340 m 468 182 q 356 251 435 251 q 308 242 331 251 q 267 215 285 232 q 240 174 250 197 q 229 125 229 151 q 240 77 229 100 q 267 38 250 54 q 308 10 285 21 q 356 0 331 0 q 468 69 435 0 l 356 125 l 468 182 m 499 765 l 211 765 l 211 308 l 499 308 l 499 765 m 482 251 q 515 210 499 235 q 546 157 531 186 l 485 125 l 546 94 q 356 -57 469 -57 q 249 -24 297 -57 q 182 67 201 8 q 90 134 124 86 q 57 240 57 182 q 108 367 57 315 l 39 367 l 39 938 l 442 938 l 442 824 l 557 824 l 557 251 l 482 251 z "},"\"":{"ha":908,"x_min":35,"x_max":872,"o":"m 458 622 q 385 514 458 531 l 385 553 q 429 622 429 568 l 458 622 m 788 622 q 713 514 788 531 l 713 553 q 758 622 758 567 l 788 622 m 494 622 q 483 678 494 651 q 452 724 472 704 q 406 754 432 743 q 350 765 379 765 q 294 754 321 765 q 249 724 268 743 q 218 678 229 704 q 207 622 207 651 l 350 622 l 350 479 q 406 490 379 479 q 452 521 432 501 q 483 567 472 540 q 494 622 494 593 m 815 622 q 804 678 815 651 q 773 724 793 704 q 726 754 753 743 q 671 765 700 765 q 615 754 642 765 q 569 724 589 743 q 539 678 550 704 q 528 622 528 651 l 671 622 l 671 479 q 726 490 700 479 q 773 521 753 501 q 804 567 793 540 q 815 622 815 593 m 872 622 q 853 538 872 575 q 799 474 833 500 q 717 435 765 449 q 614 421 669 421 l 614 553 q 532 538 576 539 q 293 421 474 421 l 293 553 q 178 536 240 536 l 178 565 l 150 565 q 168 679 150 629 l 35 679 q 49 781 35 733 q 88 863 63 828 q 151 917 114 897 q 236 938 189 938 q 401 853 342 938 q 557 938 457 938 q 670 903 619 938 q 744 810 721 868 q 838 736 803 788 q 872 622 872 685 z "},"#":{"ha":978,"x_min":39,"x_max":938,"o":"m 497 288 l 497 390 l 585 390 l 585 288 l 497 288 m 750 124 l 750 42 l 643 42 l 643 71 l 721 71 l 721 151 l 833 151 l 833 242 l 863 242 l 863 124 l 750 124 m 736 418 l 736 446 l 825 446 l 825 539 l 853 539 l 853 418 l 736 418 m 881 288 l 785 288 l 785 390 l 881 390 l 881 574 l 785 574 l 785 669 l 585 669 l 585 574 l 497 574 l 497 669 l 307 669 l 307 574 l 211 574 l 211 390 l 307 390 l 307 288 l 211 288 l 211 96 l 307 96 l 307 0 l 497 0 l 497 96 l 585 96 l 585 0 l 785 0 l 785 96 l 881 96 l 881 288 m 842 39 l 842 -57 l 249 -57 l 249 39 l 153 39 l 153 57 l 133 57 l 133 153 l 39 153 l 39 747 l 133 747 l 133 842 l 728 842 l 728 747 l 824 747 l 824 728 l 842 728 l 842 632 l 938 632 l 938 39 l 842 39 z "},"$":{"ha":667,"x_min":15,"x_max":651,"o":"m 553 321 q 563 272 563 297 q 547 211 563 240 q 506 159 531 182 q 449 122 481 136 q 388 106 418 107 l 386 133 q 440 147 414 135 q 488 177 467 158 q 521 220 508 196 q 533 271 533 244 q 526 310 533 286 l 553 321 m 593 279 q 577 358 593 321 q 533 422 561 394 q 469 466 506 450 q 390 482 432 482 l 536 628 q 428 686 490 671 l 428 764 l 351 764 l 351 686 q 287 660 317 679 q 235 615 257 642 q 200 556 213 589 q 188 486 188 522 q 203 406 188 443 q 247 342 219 369 q 310 298 274 314 q 390 282 347 282 l 243 133 q 351 79 282 89 l 351 3 l 428 3 l 428 79 q 492 104 463 86 q 544 148 522 122 q 580 207 567 174 q 593 279 593 240 m 651 279 q 606 131 651 196 q 486 38 560 65 l 486 -56 l 294 -56 l 294 36 q 267 47 279 42 q 246 60 256 53 l 179 60 l 179 118 q 172 128 176 124 q 164 136 168 132 l 178 151 q 49 251 117 169 l 160 363 l 158 367 q 53 463 92 401 q 15 600 15 525 q 27 678 15 640 q 60 747 39 715 q 113 803 82 779 q 179 842 143 828 l 179 938 l 371 938 l 371 842 q 392 833 382 839 q 411 822 401 828 l 486 822 l 486 758 l 503 743 l 488 728 q 618 628 536 710 l 506 517 l 508 513 q 613 416 575 478 q 651 279 651 354 z "},"%":{"ha":1042,"x_min":25,"x_max":1017,"o":"m 419 22 l 304 22 l 304 49 l 400 49 l 829 733 l 864 733 l 419 22 m 931 182 q 817 251 897 251 q 769 242 792 251 q 729 215 746 232 q 702 174 713 197 q 692 125 692 151 q 702 77 692 100 q 729 38 713 54 q 769 10 746 21 q 817 0 792 0 q 929 69 896 0 l 817 125 l 931 182 m 721 765 l 243 0 l 435 0 l 913 765 l 721 765 m 485 696 q 372 765 451 765 q 283 729 321 765 q 246 640 246 693 q 282 550 246 586 q 372 514 318 514 q 485 583 451 514 l 372 640 l 485 696 m 761 414 q 878 299 825 389 q 1007 157 953 269 l 946 125 l 1007 94 q 817 -57 931 -57 q 710 -24 758 -57 q 643 67 663 8 q 572 113 603 81 l 467 -57 l 140 -57 l 211 57 l 25 57 l 288 478 q 199 582 222 513 q 107 647 140 600 q 74 756 74 693 q 89 826 74 793 q 129 884 104 860 q 188 923 154 908 q 257 938 221 938 q 318 925 293 938 q 366 892 343 913 q 415 842 389 871 q 479 783 440 814 l 575 938 l 903 938 l 831 824 l 1017 824 l 761 414 z "},"&":{"ha":771,"x_min":19,"x_max":751,"o":"m 635 135 q 614 99 635 118 q 563 65 593 81 q 501 40 533 50 q 444 31 468 31 q 351 54 411 31 l 363 81 q 444 58 411 58 q 491 64 467 58 q 535 78 515 69 q 570 98 556 88 q 589 119 585 108 l 425 207 l 439 232 l 635 135 m 440 285 l 425 310 l 604 406 l 624 385 l 440 285 m 674 367 q 557 483 636 443 q 592 529 576 503 l 446 600 l 592 674 q 446 763 546 763 q 385 750 414 763 q 333 715 356 738 q 298 663 311 693 q 285 600 285 633 q 336 482 285 529 q 231 388 269 450 q 192 254 192 326 q 211 155 192 201 q 265 74 231 108 q 347 19 300 39 q 446 0 393 0 q 580 37 518 0 q 674 140 642 74 l 446 254 l 674 367 m 632 282 l 635 281 q 611 236 626 261 l 750 167 q 446 -57 639 -57 q 290 -15 363 -57 q 176 99 218 26 q 60 213 101 142 q 19 368 19 285 q 139 613 19 518 q 113 715 113 660 q 130 801 113 761 q 177 870 147 840 q 247 917 207 900 q 332 935 288 935 q 531 801 453 935 q 668 647 610 764 l 574 600 l 668 554 l 639 500 q 751 342 694 458 l 632 282 z "},"'":{"ha":588,"x_min":35,"x_max":551,"o":"m 458 622 q 385 514 458 531 l 385 553 q 429 622 429 568 l 458 622 m 494 622 q 483 678 494 651 q 452 724 472 704 q 406 754 432 743 q 350 765 379 765 q 294 754 321 765 q 249 724 268 743 q 218 678 229 704 q 207 622 207 651 l 350 622 l 350 479 q 406 490 379 479 q 452 521 432 501 q 483 567 472 540 q 494 622 494 593 m 551 622 q 532 538 551 575 q 478 474 513 500 q 397 435 444 449 q 293 421 349 421 l 293 553 q 178 536 240 536 l 178 565 l 150 565 q 168 679 150 629 l 35 679 q 49 781 35 733 q 88 863 63 828 q 151 917 114 897 q 236 938 189 938 q 350 903 299 938 q 424 810 401 868 q 517 736 482 788 q 551 622 551 685 z "},"(":{"ha":465,"x_min":35,"x_max":406,"o":"m 318 111 q 333 97 325 104 q 350 82 340 89 l 350 681 q 287 624 314 658 q 242 549 260 589 q 216 465 225 508 q 207 383 207 422 q 318 111 207 222 m 350 13 q 282 66 314 36 q 226 133 250 96 q 85 290 135 196 q 35 497 35 385 q 63 649 35 576 q 140 781 90 722 q 257 880 189 840 q 406 932 325 919 l 406 -18 q 382 -6 393 -12 q 358 6 371 0 l 350 6 l 350 13 z "},")":{"ha":575,"x_min":83,"x_max":544,"o":"m 453 383 q 415 223 453 300 q 301 93 376 146 l 301 53 q 440 196 393 110 q 488 383 488 282 q 475 481 488 433 q 439 572 463 529 q 381 651 415 615 q 301 713 346 688 l 301 133 q 314 146 307 140 q 326 158 321 151 q 425 383 425 257 l 453 383 m 83 929 q 321 789 231 856 q 461 657 411 722 q 528 525 511 592 q 544 383 544 458 q 524 249 544 314 q 464 129 503 185 q 370 31 425 74 q 247 -35 315 -11 l 247 101 q 83 11 186 36 l 83 929 z "},"*":{"ha":521,"x_min":35,"x_max":486,"o":"m 69 182 l 35 215 l 165 344 l 199 311 l 69 182 m 238 106 l 238 271 l 285 271 l 285 106 l 238 106 m 165 393 l 35 522 l 69 557 l 199 428 l 165 393 m 451 182 l 324 311 l 358 344 l 486 215 l 451 182 m 238 468 l 238 635 l 285 635 l 285 468 l 238 468 m 357 393 l 322 428 l 453 557 l 486 522 l 357 393 z "},"+":{"ha":924,"x_min":46,"x_max":878,"o":"m 551 142 l 483 142 l 483 171 l 522 171 l 522 425 l 758 425 l 758 464 l 788 464 l 788 396 l 551 396 l 551 142 m 642 51 l 396 51 l 396 167 l 281 167 l 281 306 l 160 306 l 160 419 l 46 419 l 46 667 l 281 667 l 281 883 l 528 883 l 528 769 l 642 769 l 642 667 l 763 667 l 763 551 l 878 551 l 878 306 l 642 306 l 642 51 m 585 110 l 585 363 l 819 363 l 819 494 l 585 494 l 585 711 l 453 711 l 453 494 l 218 494 l 218 363 l 453 363 l 453 110 l 585 110 z "},",":{"ha":583,"x_min":32,"x_max":549,"o":"m 460 139 q 461 126 461 136 q 454 99 461 114 q 436 71 447 85 q 412 48 425 57 q 385 39 399 39 l 385 67 q 428 139 428 79 l 460 139 m 492 143 q 481 199 492 172 q 450 245 469 225 q 404 276 431 265 q 349 288 378 288 q 293 276 319 288 q 247 245 267 265 q 215 199 226 225 q 204 143 204 172 l 349 143 l 349 0 q 404 11 378 0 q 450 42 431 22 q 481 88 469 61 q 492 143 492 114 m 549 143 q 530 60 549 97 q 477 -3 511 22 q 395 -43 443 -29 q 290 -57 347 -57 l 290 74 q 176 57 238 57 l 176 86 l 147 86 q 164 201 147 147 l 32 201 q 46 305 32 257 q 86 387 60 353 q 150 440 113 421 q 233 460 188 460 q 347 425 296 460 q 421 332 399 390 q 514 257 479 308 q 549 143 549 206 z "},"-":{"ha":771,"x_min":46,"x_max":739,"o":"m 290 396 l 290 425 l 619 425 l 619 464 l 649 464 l 649 396 l 290 396 m 681 494 l 218 494 l 218 363 l 681 363 l 681 494 m 160 306 l 160 419 l 46 419 l 46 667 l 624 667 l 624 551 l 739 551 l 739 306 l 160 306 z "},".":{"ha":583,"x_min":33,"x_max":550,"o":"m 453 133 q 381 36 453 54 l 381 64 q 425 133 425 79 l 453 133 m 493 143 q 482 199 493 172 q 451 245 471 225 q 406 276 432 265 q 350 288 379 288 q 293 276 319 288 q 247 245 267 265 q 217 199 228 225 q 206 143 206 172 q 217 88 206 114 q 247 42 228 61 q 293 11 267 22 q 350 0 319 0 q 406 11 379 0 q 451 42 432 22 q 482 88 471 61 q 493 143 493 114 m 550 143 q 534 65 550 101 q 491 1 518 28 q 428 -42 464 -26 q 350 -57 392 -57 q 237 -22 288 -57 q 163 71 186 13 q 69 144 104 93 q 33 258 33 196 q 49 337 33 300 q 93 401 65 374 q 158 444 121 428 q 235 460 194 460 q 348 425 297 460 q 422 332 399 390 q 515 257 481 308 q 550 143 550 206 z "},"/":{"ha":996,"x_min":1,"x_max":993,"o":"m 393 24 l 278 24 l 278 56 l 378 56 l 806 735 l 835 735 l 393 24 m 699 765 l 221 0 l 411 0 l 890 765 l 699 765 m 443 -57 l 117 -57 l 188 57 l 1 57 l 551 938 l 878 938 l 807 824 l 993 824 l 443 -57 z "},":":{"ha":588,"x_min":36,"x_max":553,"o":"m 469 143 q 435 65 469 96 q 351 33 400 33 l 351 63 q 414 85 388 63 q 440 143 440 108 l 469 143 m 469 524 q 434 446 469 478 q 351 414 399 414 l 351 443 q 414 465 388 443 q 440 524 440 488 l 469 524 m 496 143 q 485 199 496 172 q 453 245 474 225 q 407 276 433 265 q 351 288 381 288 q 296 276 322 288 q 250 245 269 265 q 219 199 231 225 q 208 143 208 172 q 219 88 208 114 q 250 42 231 61 q 296 11 269 22 q 351 0 322 0 q 407 11 381 0 q 453 42 433 22 q 485 88 474 61 q 496 143 496 114 m 496 526 q 485 582 496 556 q 453 628 474 608 q 407 658 433 647 q 351 669 381 669 q 296 658 322 669 q 250 628 269 647 q 219 582 231 608 q 208 526 208 556 q 219 471 208 497 q 250 425 231 444 q 296 394 269 406 q 351 383 322 383 q 407 394 381 383 q 453 425 433 406 q 485 471 474 444 q 496 526 496 497 m 553 143 q 537 65 553 101 q 494 2 521 29 q 430 -41 467 -25 q 351 -57 393 -57 q 238 -22 289 -57 q 164 71 186 13 q 71 144 106 93 q 36 258 36 196 q 72 376 36 325 q 167 447 108 426 q 165 450 164 450 q 164 453 167 450 q 71 528 106 476 q 36 642 36 579 q 52 719 36 683 q 95 783 68 756 q 159 826 122 810 q 238 842 196 842 q 351 807 300 842 q 424 714 401 772 q 517 640 482 692 q 553 526 553 589 q 518 410 553 463 q 421 338 483 358 q 422 335 424 335 q 424 332 421 335 q 517 257 482 308 q 553 143 553 206 z "},";":{"ha":586,"x_min":35,"x_max":551,"o":"m 469 143 q 447 81 469 110 q 392 46 424 53 l 392 74 q 408 82 400 74 q 424 101 417 90 q 435 124 431 113 q 440 143 440 136 l 469 143 m 469 524 q 460 481 469 501 q 433 447 450 461 q 395 423 417 432 q 350 414 374 414 l 350 443 q 414 465 388 443 q 440 524 440 488 l 469 524 m 494 143 q 483 199 494 172 q 452 245 472 225 q 406 276 432 265 q 350 288 379 288 q 294 276 321 288 q 249 245 268 265 q 218 199 229 225 q 207 143 207 172 l 350 143 l 350 0 q 406 11 379 0 q 452 42 432 22 q 483 88 472 61 q 494 143 494 114 m 494 526 q 483 582 494 556 q 452 628 472 608 q 406 658 432 647 q 350 669 379 669 q 294 658 321 669 q 249 628 268 647 q 218 582 229 608 q 207 526 207 556 q 218 471 207 497 q 249 425 229 444 q 294 394 268 406 q 350 383 321 383 q 406 394 379 383 q 452 425 432 406 q 483 471 472 444 q 494 526 494 497 m 551 143 q 533 60 551 97 q 480 -3 514 22 q 398 -43 446 -29 q 293 -57 350 -57 l 293 74 q 178 57 239 57 l 178 86 l 150 86 q 167 201 150 147 l 35 201 q 167 446 35 393 l 163 453 q 69 528 104 478 q 35 642 35 579 q 51 719 35 683 q 94 783 67 756 q 158 826 121 810 q 236 842 194 842 q 349 807 299 842 q 424 714 400 772 q 517 640 482 690 q 551 526 551 589 q 517 410 551 463 q 419 338 482 358 l 424 332 q 517 256 482 307 q 551 143 551 206 z "},"<":{"ha":583,"x_min":85,"x_max":497,"o":"m 268 417 l 454 299 l 454 533 l 268 417 m 401 768 l 401 561 l 497 625 l 497 210 l 181 418 l 242 457 l 85 561 l 401 768 z "},"=":{"ha":771,"x_min":46,"x_max":739,"o":"m 290 492 l 290 521 l 619 521 l 619 560 l 649 560 l 649 492 l 290 492 m 290 253 l 290 281 l 619 281 l 619 321 l 649 321 l 649 253 l 290 253 m 681 590 l 218 590 l 218 458 l 681 458 l 681 590 m 681 350 l 218 350 l 218 219 l 681 219 l 681 350 m 160 161 l 160 276 l 46 276 l 46 763 l 624 763 l 624 647 l 739 647 l 739 161 l 160 161 z "},">":{"ha":531,"x_min":83,"x_max":496,"o":"m 231 303 l 414 411 l 231 529 l 231 303 m 339 518 l 496 415 l 179 208 l 179 414 l 83 351 l 83 767 l 400 558 l 339 518 z "},"?":{"ha":779,"x_min":24,"x_max":756,"o":"m 658 513 q 642 427 658 467 q 597 359 625 388 q 528 314 568 331 q 443 297 489 297 l 443 325 q 513 340 479 325 q 573 379 547 354 q 614 438 599 404 q 629 513 629 472 l 658 513 m 557 182 q 443 251 521 251 q 395 242 418 251 q 355 215 372 232 q 327 174 338 197 q 317 125 317 151 q 327 77 317 100 q 355 38 338 54 q 395 10 372 21 q 443 0 418 0 q 556 69 522 0 l 443 125 l 557 182 m 697 513 q 677 610 697 564 q 622 692 657 657 q 541 747 588 726 q 443 767 494 767 q 307 730 368 767 q 215 626 246 693 l 443 513 l 215 399 q 309 295 247 332 q 443 258 371 258 q 542 278 496 258 q 623 332 589 297 q 677 413 657 367 q 697 513 697 460 m 756 513 q 710 348 756 421 q 585 235 664 275 q 610 199 599 218 q 633 157 621 179 l 572 125 l 633 94 q 443 -57 557 -57 q 337 -22 385 -57 q 269 67 289 13 q 178 134 211 86 q 144 240 144 182 q 182 350 144 301 l 176 358 q 24 539 85 415 l 143 599 l 139 600 q 151 624 144 613 q 163 646 157 635 l 24 715 q 328 939 135 939 q 483 898 411 939 q 599 782 556 857 q 713 667 669 739 q 756 513 756 596 z "},"@":{"ha":1000,"x_min":3,"x_max":999,"o":"m 907 244 q 879 110 907 174 q 804 -3 851 46 q 693 -80 757 -51 q 558 -108 629 -108 l 558 -79 q 677 -52 619 -79 q 779 19 735 -25 q 851 123 824 64 q 878 244 878 182 l 907 244 m 940 244 q 910 393 940 324 q 828 515 881 463 q 707 597 776 567 q 558 626 638 626 q 410 596 479 626 q 288 513 340 565 q 206 392 236 461 q 175 244 175 322 q 205 94 175 164 q 287 -27 235 25 q 408 -109 339 -79 q 558 -139 478 -139 q 707 -108 638 -139 q 828 -26 776 -78 q 910 96 881 26 q 940 244 940 165 m 999 244 q 964 74 999 154 q 869 -67 929 -7 q 729 -161 810 -126 q 558 -196 649 -196 q 351 -147 446 -196 q 194 -6 257 -97 q 53 151 103 57 q 3 358 3 246 q 38 528 3 449 q 133 669 72 608 q 273 764 193 729 q 443 799 353 799 q 650 749 556 799 q 807 608 744 700 q 949 451 899 546 q 999 244 999 357 m 708 208 q 710 196 710 206 q 703 169 710 183 q 685 140 696 154 q 660 117 674 126 q 633 108 647 108 l 633 136 q 676 208 676 149 l 708 208 m 740 213 q 729 268 740 242 q 699 315 718 294 q 653 346 679 335 q 597 357 626 357 q 542 346 568 357 q 495 315 515 335 q 464 268 475 294 q 453 213 453 242 l 597 213 l 597 69 q 653 81 626 69 q 699 111 679 92 q 729 157 718 131 q 740 213 740 183 m 797 213 q 778 129 797 167 q 726 66 760 92 q 644 26 692 40 q 539 13 596 13 l 539 143 q 425 126 486 126 l 425 156 l 396 156 q 413 271 396 217 l 281 271 q 294 374 281 326 q 335 456 308 422 q 399 510 361 490 q 482 529 436 529 q 596 494 544 529 q 669 401 647 460 q 763 326 728 378 q 797 213 797 275 z "},"A":{"ha":969,"x_min":-14,"x_max":1051,"o":"m 610 290 q 597 257 610 271 q 563 243 583 243 q 528 257 542 243 q 514 290 514 271 q 528 325 514 311 q 563 339 543 339 q 596 324 582 339 q 610 290 610 310 m 708 43 l 708 72 l 836 72 l 772 199 l 799 211 l 882 43 l 708 43 m 576 765 l 194 0 l 960 0 l 576 765 m 100 -57 l 158 57 l -14 57 l 463 1008 l 549 836 l 576 894 l 1051 -57 l 100 -57 z "},"B":{"ha":893,"x_min":35,"x_max":858,"o":"m 761 221 q 744 146 761 181 q 697 86 726 111 q 631 47 668 61 q 553 33 593 33 l 553 63 q 613 76 582 63 q 671 111 644 89 q 715 162 697 133 q 732 221 732 190 l 761 221 m 638 221 q 624 186 638 200 q 590 172 610 172 q 556 186 569 172 q 542 221 542 200 q 556 254 542 240 q 590 268 569 268 q 624 254 610 268 q 638 221 638 240 m 638 546 q 624 511 638 525 q 590 497 610 497 q 556 511 569 497 q 542 546 542 525 q 556 579 542 565 q 590 593 569 593 q 624 579 610 593 q 638 546 638 565 m 800 221 q 729 383 800 314 q 800 546 800 450 q 783 631 800 590 q 736 701 765 671 q 669 748 707 731 q 590 765 632 765 l 207 765 l 207 0 l 590 0 q 672 18 633 0 q 739 67 711 36 q 783 138 767 97 q 800 221 800 178 m 858 221 q 837 115 858 165 q 779 27 815 65 q 694 -34 743 -11 q 590 -57 646 -57 l 150 -57 l 150 57 l 35 57 l 35 938 l 475 938 q 605 901 542 938 q 710 792 668 864 q 858 546 858 701 q 807 383 858 451 q 858 221 858 311 z "},"C":{"ha":996,"x_min":3,"x_max":979,"o":"m 847 193 q 805 146 822 164 q 774 116 788 128 q 747 96 760 104 q 718 75 735 88 l 703 100 q 750 136 726 115 q 799 183 774 157 l 519 331 l 532 357 l 847 193 m 901 554 q 761 710 853 654 q 558 765 669 765 q 410 735 479 765 q 288 652 340 704 q 206 531 236 600 q 176 383 176 461 q 206 234 176 304 q 288 112 236 164 q 409 30 339 60 q 558 0 479 0 q 666 16 614 0 q 763 60 718 32 q 842 126 807 88 q 901 211 878 165 l 558 383 l 901 554 m 744 411 l 863 351 q 851 329 857 340 q 839 307 844 318 l 978 238 q 558 -57 829 -57 q 353 -6 449 -57 q 194 133 257 44 q 53 290 103 196 q 3 497 3 385 q 38 668 3 588 q 134 808 74 749 q 274 903 194 868 q 444 938 354 938 q 801 747 661 938 q 979 529 911 671 l 744 411 z "},"D":{"ha":988,"x_min":26,"x_max":1022,"o":"m 931 383 q 903 249 931 313 q 828 136 875 185 q 717 59 781 88 q 582 31 653 31 l 582 60 q 699 86 642 60 q 802 158 757 113 q 875 261 847 203 q 903 383 903 319 l 931 383 m 629 383 q 615 349 629 363 q 582 335 601 335 q 547 349 561 335 q 533 383 533 363 q 547 417 533 403 q 582 431 561 431 q 615 417 601 431 q 629 383 629 403 m 964 383 q 934 532 964 463 q 852 653 904 601 q 731 735 800 706 q 582 765 661 765 l 199 765 l 199 0 l 582 0 q 731 31 661 0 q 852 113 800 61 q 934 235 904 165 q 964 383 964 304 m 1022 383 q 988 213 1022 293 q 893 72 953 132 q 753 -22 833 13 q 582 -57 672 -57 l 142 -57 l 142 57 l 26 57 l 26 938 l 467 938 q 674 888 579 938 q 831 747 768 839 q 972 590 922 685 q 1022 383 1022 496 z "},"E":{"ha":893,"x_min":44,"x_max":849,"o":"m 576 33 l 576 63 l 729 63 l 729 203 l 758 203 l 758 33 l 576 33 m 576 510 l 576 539 l 729 539 l 729 678 l 758 678 l 758 510 l 576 510 m 790 288 l 539 288 l 539 324 l 658 324 l 658 443 l 539 443 l 539 479 l 790 479 l 790 765 l 217 765 l 217 0 l 790 0 l 790 288 m 160 -57 l 160 57 l 44 57 l 44 938 l 733 938 l 733 824 l 849 824 l 849 421 l 733 421 l 733 344 l 849 344 l 849 -57 l 160 -57 z "},"F":{"ha":853,"x_min":24,"x_max":828,"o":"m 268 33 l 268 63 l 421 63 l 421 203 l 450 203 l 450 33 l 268 33 m 558 510 l 558 539 l 713 539 l 713 678 l 742 678 l 742 510 l 558 510 m 771 765 l 196 765 l 196 0 l 483 0 l 483 288 l 639 288 l 639 439 l 483 439 l 483 479 l 771 479 l 771 765 m 696 421 l 696 229 l 540 229 l 540 -57 l 139 -57 l 139 57 l 24 57 l 24 938 l 713 938 l 713 824 l 828 824 l 828 421 l 696 421 z "},"G":{"ha":988,"x_min":3,"x_max":999,"o":"m 725 33 l 725 63 l 879 63 l 879 203 l 907 203 l 907 33 l 725 33 m 528 401 l 508 421 l 749 661 l 768 642 l 528 401 m 940 383 l 558 383 l 829 654 q 558 765 718 765 q 410 735 479 765 q 288 652 340 704 q 206 531 236 600 q 175 383 175 461 q 205 233 175 303 q 287 112 235 164 q 408 30 339 60 q 558 0 478 0 l 940 0 l 940 383 m 558 -57 q 351 -6 446 -57 q 194 133 257 44 q 53 290 103 196 q 3 497 3 385 q 38 667 3 588 q 133 808 72 747 q 273 903 193 868 q 443 938 353 938 q 796 769 628 938 l 785 757 q 847 713 815 739 q 911 654 879 686 l 811 556 l 883 556 l 883 440 l 999 440 l 999 -57 l 558 -57 z "},"H":{"ha":1049,"x_min":47,"x_max":1004,"o":"m 285 33 l 285 63 l 438 63 l 438 203 l 467 203 l 467 33 l 285 33 m 732 33 l 732 63 l 885 63 l 885 203 l 914 203 l 914 33 l 732 33 m 946 765 l 661 765 l 661 479 l 506 479 l 506 765 l 219 765 l 219 0 l 506 0 l 506 288 l 661 288 l 661 0 l 946 0 l 946 765 m 603 -57 l 603 57 l 564 57 l 564 -57 l 161 -57 l 161 57 l 47 57 l 47 938 l 449 938 l 449 824 l 488 824 l 488 938 l 928 938 l 928 824 l 1004 824 l 1004 -57 l 603 -57 z "},"I":{"ha":608,"x_min":46,"x_max":563,"o":"m 290 33 l 290 63 l 444 63 l 444 203 l 472 203 l 472 33 l 290 33 m 506 765 l 218 765 l 218 0 l 506 0 l 506 765 m 160 -57 l 160 57 l 46 57 l 46 938 l 447 938 l 447 824 l 563 824 l 563 -57 l 160 -57 z "},"J":{"ha":825,"x_min":-14,"x_max":790,"o":"m 704 288 q 683 190 704 236 q 626 108 661 143 q 543 51 590 72 q 444 29 496 29 l 444 57 q 528 77 488 57 q 602 131 569 97 q 655 205 635 164 q 675 288 675 246 l 704 288 m 732 765 l 444 765 l 444 288 l 158 288 q 181 176 158 229 q 242 85 203 124 q 333 23 281 46 q 444 0 385 0 q 558 23 506 0 q 649 85 611 46 q 710 176 688 124 q 732 288 732 229 l 732 765 m 790 288 q 763 153 790 217 q 689 44 736 90 q 579 -30 642 -3 q 444 -57 517 -57 q 163 103 263 -57 q 86 165 119 128 q 31 249 53 203 q -3 349 8 296 q -14 460 -14 403 l 272 460 l 272 938 l 675 938 l 675 824 l 790 824 l 790 288 z "},"K":{"ha":954,"x_min":13,"x_max":992,"o":"m 569 43 l 569 72 l 681 72 l 554 199 l 596 199 l 749 43 l 569 43 m 185 765 l 185 0 l 853 0 l 471 383 l 854 765 l 185 765 m 551 383 l 990 -57 l 126 -57 l 126 57 l 13 57 l 13 938 l 876 938 l 763 824 l 992 824 l 551 383 z "},"L":{"ha":824,"x_min":14,"x_max":818,"o":"m 544 33 l 544 63 l 697 63 l 697 203 l 726 203 l 726 33 l 544 33 m 761 228 l 474 228 l 474 765 l 186 765 l 186 0 l 761 0 l 761 228 m 129 -57 l 129 57 l 14 57 l 14 938 l 417 938 l 417 824 l 531 824 l 531 400 l 704 400 l 704 285 l 818 285 l 818 -57 l 129 -57 z "},"M":{"ha":1083,"x_min":43,"x_max":1040,"o":"m 767 33 l 767 63 l 921 63 l 921 203 l 950 203 l 950 33 l 767 33 m 982 765 l 599 383 l 215 765 l 215 0 l 982 0 l 982 765 m 158 -57 l 158 57 l 43 57 l 43 1019 l 483 579 l 925 1019 l 925 790 l 1040 904 l 1040 -57 l 158 -57 z "},"N":{"ha":1015,"x_min":82,"x_max":982,"o":"m 714 33 l 714 63 l 868 63 l 868 203 l 897 203 l 897 33 l 714 33 m 925 765 l 733 765 l 733 288 l 254 765 l 254 0 l 925 0 l 925 765 m 197 -57 l 197 57 l 82 57 l 82 1019 l 561 540 l 561 938 l 868 938 l 868 824 l 982 824 l 982 -57 l 197 -57 z "},"O":{"ha":1000,"x_min":3,"x_max":999,"o":"m 606 375 q 592 342 606 356 q 558 328 578 328 q 524 342 538 328 q 510 375 510 356 q 524 410 510 396 q 558 424 538 424 q 591 409 576 424 q 606 375 606 394 m 907 383 q 879 249 907 313 q 804 136 851 185 q 693 59 757 88 q 558 31 629 31 l 558 60 q 677 87 619 60 q 779 158 735 114 q 851 262 824 203 q 878 383 878 321 l 907 383 m 940 383 q 910 532 940 463 q 828 653 881 601 q 707 735 776 706 q 558 765 638 765 q 410 735 479 765 q 288 652 340 704 q 206 531 236 600 q 175 383 175 461 q 205 233 175 303 q 287 112 235 164 q 408 30 339 60 q 558 0 478 0 q 707 31 638 0 q 828 113 776 61 q 910 235 881 165 q 940 383 940 304 m 999 383 q 964 213 999 293 q 869 72 929 132 q 729 -22 810 13 q 558 -57 649 -57 q 351 -8 446 -57 q 194 133 257 42 q 53 290 103 196 q 3 497 3 385 q 38 667 3 588 q 133 808 72 747 q 273 903 193 868 q 443 938 353 938 q 650 888 556 938 q 807 747 744 839 q 949 590 899 685 q 999 383 999 496 z "},"P":{"ha":843,"x_min":14,"x_max":838,"o":"m 746 544 q 730 470 746 504 q 687 411 714 436 q 623 372 660 386 q 546 358 586 358 l 425 358 l 425 33 l 242 33 l 242 63 l 396 63 l 396 386 l 546 386 q 605 400 575 386 q 660 436 635 414 q 701 487 685 458 q 717 544 717 515 l 746 544 m 600 544 q 586 511 600 525 q 553 497 572 497 q 519 510 532 497 q 506 544 506 524 q 519 578 506 565 q 553 592 532 592 q 587 578 574 592 q 600 544 600 565 m 781 546 q 764 628 781 589 q 718 699 747 668 q 651 747 689 729 q 569 765 613 765 l 186 765 l 186 0 l 454 0 l 454 324 l 569 325 q 653 343 614 325 q 720 392 692 361 q 765 462 749 422 q 781 546 781 501 m 838 546 q 817 442 838 492 q 761 353 797 392 q 676 291 725 314 q 569 268 626 268 l 513 268 l 513 -57 l 129 -57 l 129 57 l 14 57 l 14 938 l 454 938 q 583 900 521 938 q 689 792 646 863 q 838 546 838 701 z "},"Q":{"ha":1068,"x_min":24,"x_max":1104,"o":"m 626 383 q 613 349 626 363 q 579 335 600 335 q 544 349 558 335 q 531 383 531 363 q 544 417 531 403 q 579 431 558 431 q 613 417 600 431 q 626 383 626 403 m 828 33 l 828 63 l 981 63 l 981 133 l 1010 133 l 1010 33 l 828 33 m 1047 192 l 911 192 q 963 383 963 278 q 933 532 963 463 q 851 653 903 601 q 728 735 799 706 q 579 765 658 765 q 431 735 500 765 q 309 652 361 704 q 226 531 257 600 q 196 383 196 461 q 226 234 196 304 q 308 112 256 164 q 430 30 360 60 q 579 0 500 0 l 1047 0 l 1047 192 m 579 -57 q 372 -6 467 -57 q 215 133 278 44 q 74 290 124 196 q 24 497 24 385 q 58 667 24 588 q 153 808 93 747 q 294 903 214 868 q 464 938 374 938 q 671 888 576 938 q 828 747 765 839 q 969 590 919 685 q 1019 383 1019 496 q 999 249 1019 315 l 1104 249 l 1104 -57 l 579 -57 z "},"R":{"ha":839,"x_min":10,"x_max":881,"o":"m 739 546 q 722 471 739 506 q 675 411 704 436 q 608 372 646 386 q 531 358 571 358 l 497 358 l 711 26 l 553 26 l 553 56 l 656 56 l 444 388 l 531 388 q 592 401 560 388 q 650 436 624 414 q 694 487 676 458 q 711 546 711 515 l 739 546 m 585 546 q 571 511 585 525 q 538 497 557 497 q 503 511 517 497 q 489 546 489 525 q 503 579 489 565 q 538 593 517 593 q 571 579 557 593 q 585 546 585 565 m 565 325 q 645 343 607 325 q 713 392 683 361 q 758 462 742 422 q 775 546 775 501 q 758 628 775 589 q 712 699 740 668 q 645 747 683 729 q 565 765 607 765 l 182 765 l 182 0 l 775 0 l 565 325 m 125 -57 l 125 57 l 10 57 l 10 938 l 450 938 q 581 898 517 938 q 683 792 644 858 q 795 686 757 747 q 833 546 833 625 q 821 464 833 504 q 785 390 808 424 q 730 328 763 356 q 658 286 697 301 l 881 -57 l 125 -57 z "},"S":{"ha":767,"x_min":14,"x_max":753,"o":"m 664 258 q 647 169 664 211 q 599 97 629 128 q 527 47 568 65 q 440 29 486 29 l 440 57 q 515 75 479 57 q 576 122 550 93 q 619 186 603 150 q 635 258 635 222 l 664 258 m 422 531 l 401 551 l 531 692 l 551 672 l 422 531 m 696 254 q 676 353 696 307 q 621 434 656 400 q 540 488 586 468 q 440 508 493 508 l 622 690 q 440 765 549 765 q 342 746 388 765 q 261 692 296 726 q 206 612 226 658 q 186 513 186 565 q 206 413 186 460 q 260 333 226 367 q 341 278 294 299 q 440 258 388 258 l 256 74 q 440 0 322 0 q 541 20 494 0 q 622 75 588 40 q 676 156 656 110 q 696 254 696 201 m 753 254 q 728 135 753 192 q 662 35 704 78 q 563 -32 619 -7 q 440 -57 506 -57 q 176 75 296 -57 l 192 90 q 63 190 121 124 l 194 322 q 171 357 182 336 q 56 472 99 400 q 14 626 14 543 q 39 749 14 692 q 106 847 64 806 q 205 913 149 889 q 325 938 261 938 q 589 806 457 938 l 574 790 q 704 690 635 760 l 574 558 q 596 524 585 543 q 712 410 671 482 q 753 254 753 339 z "},"T":{"ha":894,"x_min":-8,"x_max":892,"o":"m 426 33 l 426 63 l 579 63 l 579 203 l 608 203 l 608 33 l 426 33 m 643 613 l 643 642 l 769 642 l 769 713 l 799 713 l 799 613 l 643 613 m 833 765 l 164 765 l 164 574 l 356 574 l 356 0 l 643 0 l 643 574 l 833 574 l 833 765 m 700 517 l 700 -57 l 299 -57 l 299 57 l 183 57 l 183 517 l 107 517 l 107 632 l -8 632 l -8 938 l 776 938 l 776 824 l 892 824 l 892 517 l 700 517 z "},"U":{"ha":869,"x_min":28,"x_max":832,"o":"m 735 288 q 715 192 735 239 q 662 110 696 146 q 583 52 628 74 q 488 31 538 31 l 488 60 q 569 81 531 60 q 639 135 608 101 q 688 208 669 168 q 706 288 706 249 l 735 288 m 774 765 l 200 765 l 200 288 q 222 176 200 229 q 283 85 244 124 q 374 23 321 46 q 488 0 426 0 q 599 23 547 0 q 690 85 651 46 q 751 176 729 124 q 774 288 774 229 l 774 765 m 832 288 q 805 154 832 217 q 731 44 778 92 q 622 -30 685 -3 q 488 -57 558 -57 q 315 -14 392 -57 q 193 108 238 29 q 71 231 114 151 q 28 401 28 310 l 28 938 l 717 938 l 717 824 l 832 824 l 832 288 z "},"V":{"ha":971,"x_min":-64,"x_max":1003,"o":"m 547 118 l 529 156 l 631 357 l 646 325 l 547 118 m 144 765 l 528 0 l 911 765 l 144 765 m 528 -128 l 442 44 l 413 -12 l -64 938 l 888 938 l 831 824 l 1003 824 l 528 -128 z "},"W":{"ha":1292,"x_min":-83,"x_max":1367,"o":"m 536 132 l 518 168 l 619 369 l 635 340 l 536 132 m 910 118 l 893 156 l 993 357 l 1010 325 l 910 118 m 125 765 l 507 0 l 699 383 l 890 0 l 1274 765 l 125 765 m 890 -128 l 804 44 l 775 -12 l 669 197 l 507 -128 l 421 44 l 393 -12 l -83 938 l 1251 938 l 1194 824 l 1367 824 l 890 -128 z "},"X":{"ha":811,"x_min":-42,"x_max":833,"o":"m 514 26 l 514 56 l 626 56 l 565 181 l 590 194 l 671 26 l 514 26 m 506 389 l 485 408 l 650 738 l 676 724 l 506 389 m 549 383 l 740 765 l 167 765 l 358 383 l 167 0 l 740 0 l 549 383 m 74 -57 l 131 57 l -42 57 l 178 497 l -42 938 l 718 938 l 661 824 l 833 824 l 613 383 l 833 -57 l 74 -57 z "},"Y":{"ha":761,"x_min":-62,"x_max":814,"o":"m 490 389 l 490 33 l 383 33 l 383 63 l 461 63 l 461 396 l 635 738 l 661 724 l 490 389 m 146 765 l 338 383 l 338 0 l 529 0 l 529 383 l 721 765 l 146 765 m 586 369 l 586 -57 l 281 -57 l 281 57 l 165 57 l 165 485 l -62 938 l 699 938 l 642 824 l 814 824 l 586 369 z "},"Z":{"ha":956,"x_min":32,"x_max":922,"o":"m 581 33 l 581 63 l 733 63 l 733 143 l 763 143 l 763 33 l 581 33 m 565 182 l 539 193 l 749 725 l 775 714 l 565 182 m 228 765 l 228 574 l 419 574 l 228 0 l 801 0 l 801 192 l 610 192 l 839 765 l 228 765 m 740 364 l 744 364 l 744 249 l 860 249 l 860 -57 l 147 -57 l 186 57 l 32 57 l 186 517 l 169 517 l 169 632 l 56 632 l 56 938 l 807 938 l 763 824 l 922 824 l 740 364 z "},"[":{"ha":465,"x_min":35,"x_max":406,"o":"m 318 111 q 333 97 325 104 q 350 82 340 89 l 350 681 q 287 624 314 658 q 242 549 260 589 q 216 465 225 508 q 207 383 207 422 q 318 111 207 222 m 350 13 q 282 66 314 36 q 226 133 250 96 q 85 290 135 196 q 35 497 35 385 q 63 649 35 576 q 140 781 90 722 q 257 880 189 840 q 406 932 325 919 l 406 -18 q 382 -6 393 -12 q 358 6 371 0 l 350 6 l 350 13 z "},"\\":{"ha":996,"x_min":-29,"x_max":981,"o":"m 792 146 l 365 825 l 264 825 l 264 857 l 381 857 l 822 146 l 792 146 m 399 881 l 207 881 l 686 115 l 876 115 l 399 881 m 646 56 l 572 176 l 514 176 l -29 1058 l 299 1058 l 376 938 l 429 938 l 981 56 l 646 56 z "},"]":{"ha":575,"x_min":83,"x_max":544,"o":"m 453 383 q 415 223 453 300 q 301 93 376 146 l 301 53 q 440 196 393 110 q 488 383 488 282 q 475 481 488 433 q 439 572 463 529 q 381 651 415 615 q 301 713 346 688 l 301 133 q 314 146 307 140 q 326 158 321 151 q 425 383 425 257 l 453 383 m 83 929 q 321 789 231 856 q 461 657 411 722 q 528 525 511 592 q 544 383 544 458 q 524 249 544 314 q 464 129 503 185 q 370 31 425 74 q 247 -35 315 -11 l 247 101 q 83 11 186 36 l 83 929 z "},"^":{"ha":694,"x_min":97,"x_max":608,"o":"m 529 729 l 386 928 l 265 729 l 529 729 m 608 686 l 193 686 l 288 831 l 97 831 l 306 1146 l 608 686 z "},"_":{"ha":463,"x_min":24,"x_max":449,"o":"m 449 -186 l 449 -228 l 24 -228 l 24 -186 l 449 -186 z "},"`":{"ha":526,"x_min":110,"x_max":431,"o":"m 251 1222 l 292 1163 l 311 1163 l 431 986 l 329 986 l 275 1046 l 269 1046 l 110 1222 l 251 1222 m 222 1138 l 338 1008 l 386 1008 l 299 1138 l 222 1138 z "},"a":{"ha":969,"x_min":-14,"x_max":1051,"o":"m 610 290 q 597 257 610 271 q 563 243 583 243 q 528 257 542 243 q 514 290 514 271 q 528 325 514 311 q 563 339 543 339 q 596 324 582 339 q 610 290 610 310 m 708 43 l 708 72 l 836 72 l 772 199 l 799 211 l 882 43 l 708 43 m 576 765 l 194 0 l 960 0 l 576 765 m 100 -57 l 158 57 l -14 57 l 463 1008 l 549 836 l 576 894 l 1051 -57 l 100 -57 z "},"b":{"ha":893,"x_min":35,"x_max":858,"o":"m 761 221 q 744 146 761 181 q 697 86 726 111 q 631 47 668 61 q 553 33 593 33 l 553 63 q 613 76 582 63 q 671 111 644 89 q 715 162 697 133 q 732 221 732 190 l 761 221 m 638 221 q 624 186 638 200 q 590 172 610 172 q 556 186 569 172 q 542 221 542 200 q 556 254 542 240 q 590 268 569 268 q 624 254 610 268 q 638 221 638 240 m 638 546 q 624 511 638 525 q 590 497 610 497 q 556 511 569 497 q 542 546 542 525 q 556 579 542 565 q 590 593 569 593 q 624 579 610 593 q 638 546 638 565 m 800 221 q 729 383 800 314 q 800 546 800 450 q 783 631 800 590 q 736 701 765 671 q 669 748 707 731 q 590 765 632 765 l 207 765 l 207 0 l 590 0 q 672 18 633 0 q 739 67 711 36 q 783 138 767 97 q 800 221 800 178 m 858 221 q 837 115 858 165 q 779 27 815 65 q 694 -34 743 -11 q 590 -57 646 -57 l 150 -57 l 150 57 l 35 57 l 35 938 l 475 938 q 605 901 542 938 q 710 792 668 864 q 858 546 858 701 q 807 383 858 451 q 858 221 858 311 z "},"c":{"ha":996,"x_min":3,"x_max":979,"o":"m 847 193 q 805 146 822 164 q 774 116 788 128 q 747 96 760 104 q 718 75 735 88 l 703 100 q 750 136 726 115 q 799 183 774 157 l 519 331 l 532 357 l 847 193 m 901 554 q 761 710 853 654 q 558 765 669 765 q 410 735 479 765 q 288 652 340 704 q 206 531 236 600 q 176 383 176 461 q 206 234 176 304 q 288 112 236 164 q 409 30 339 60 q 558 0 479 0 q 666 16 614 0 q 763 60 718 32 q 842 126 807 88 q 901 211 878 165 l 558 383 l 901 554 m 744 411 l 863 351 q 851 329 857 340 q 839 307 844 318 l 978 238 q 558 -57 829 -57 q 353 -6 449 -57 q 194 133 257 44 q 53 290 103 196 q 3 497 3 385 q 38 668 3 588 q 134 808 74 749 q 274 903 194 868 q 444 938 354 938 q 801 747 661 938 q 979 529 911 671 l 744 411 z "},"d":{"ha":988,"x_min":26,"x_max":1022,"o":"m 931 383 q 903 249 931 313 q 828 136 875 185 q 717 59 781 88 q 582 31 653 31 l 582 60 q 699 86 642 60 q 802 158 757 113 q 875 261 847 203 q 903 383 903 319 l 931 383 m 629 383 q 615 349 629 363 q 582 335 601 335 q 547 349 561 335 q 533 383 533 363 q 547 417 533 403 q 582 431 561 431 q 615 417 601 431 q 629 383 629 403 m 964 383 q 934 532 964 463 q 852 653 904 601 q 731 735 800 706 q 582 765 661 765 l 199 765 l 199 0 l 582 0 q 731 31 661 0 q 852 113 800 61 q 934 235 904 165 q 964 383 964 304 m 1022 383 q 988 213 1022 293 q 893 72 953 132 q 753 -22 833 13 q 582 -57 672 -57 l 142 -57 l 142 57 l 26 57 l 26 938 l 467 938 q 674 888 579 938 q 831 747 768 839 q 972 590 922 685 q 1022 383 1022 496 z "},"e":{"ha":893,"x_min":44,"x_max":849,"o":"m 576 33 l 576 63 l 729 63 l 729 203 l 758 203 l 758 33 l 576 33 m 576 510 l 576 539 l 729 539 l 729 678 l 758 678 l 758 510 l 576 510 m 790 288 l 539 288 l 539 324 l 658 324 l 658 443 l 539 443 l 539 479 l 790 479 l 790 765 l 217 765 l 217 0 l 790 0 l 790 288 m 160 -57 l 160 57 l 44 57 l 44 938 l 733 938 l 733 824 l 849 824 l 849 421 l 733 421 l 733 344 l 849 344 l 849 -57 l 160 -57 z "},"f":{"ha":853,"x_min":24,"x_max":828,"o":"m 268 33 l 268 63 l 421 63 l 421 203 l 450 203 l 450 33 l 268 33 m 558 510 l 558 539 l 713 539 l 713 678 l 742 678 l 742 510 l 558 510 m 771 765 l 196 765 l 196 0 l 483 0 l 483 288 l 639 288 l 639 439 l 483 439 l 483 479 l 771 479 l 771 765 m 696 421 l 696 229 l 540 229 l 540 -57 l 139 -57 l 139 57 l 24 57 l 24 938 l 713 938 l 713 824 l 828 824 l 828 421 l 696 421 z "},"g":{"ha":988,"x_min":3,"x_max":999,"o":"m 725 33 l 725 63 l 879 63 l 879 203 l 907 203 l 907 33 l 725 33 m 528 401 l 508 421 l 749 661 l 768 642 l 528 401 m 940 383 l 558 383 l 829 654 q 558 765 718 765 q 410 735 479 765 q 288 652 340 704 q 206 531 236 600 q 175 383 175 461 q 205 233 175 303 q 287 112 235 164 q 408 30 339 60 q 558 0 478 0 l 940 0 l 940 383 m 558 -57 q 351 -6 446 -57 q 194 133 257 44 q 53 290 103 196 q 3 497 3 385 q 38 667 3 588 q 133 808 72 747 q 273 903 193 868 q 443 938 353 938 q 796 769 628 938 l 785 757 q 847 713 815 739 q 911 654 879 686 l 811 556 l 883 556 l 883 440 l 999 440 l 999 -57 l 558 -57 z "},"h":{"ha":1049,"x_min":47,"x_max":1004,"o":"m 285 33 l 285 63 l 438 63 l 438 203 l 467 203 l 467 33 l 285 33 m 732 33 l 732 63 l 885 63 l 885 203 l 914 203 l 914 33 l 732 33 m 946 765 l 661 765 l 661 479 l 506 479 l 506 765 l 219 765 l 219 0 l 506 0 l 506 288 l 661 288 l 661 0 l 946 0 l 946 765 m 603 -57 l 603 57 l 564 57 l 564 -57 l 161 -57 l 161 57 l 47 57 l 47 938 l 449 938 l 449 824 l 488 824 l 488 938 l 928 938 l 928 824 l 1004 824 l 1004 -57 l 603 -57 z "},"i":{"ha":608,"x_min":46,"x_max":563,"o":"m 290 33 l 290 63 l 444 63 l 444 203 l 472 203 l 472 33 l 290 33 m 506 765 l 218 765 l 218 0 l 506 0 l 506 765 m 160 -57 l 160 57 l 46 57 l 46 938 l 447 938 l 447 824 l 563 824 l 563 -57 l 160 -57 z "},"j":{"ha":825,"x_min":-14,"x_max":790,"o":"m 704 288 q 683 190 704 236 q 626 108 661 143 q 543 51 590 72 q 444 29 496 29 l 444 57 q 528 77 488 57 q 602 131 569 97 q 655 205 635 164 q 675 288 675 246 l 704 288 m 732 765 l 444 765 l 444 288 l 158 288 q 181 176 158 229 q 242 85 203 124 q 333 23 281 46 q 444 0 385 0 q 558 23 506 0 q 649 85 611 46 q 710 176 688 124 q 732 288 732 229 l 732 765 m 790 288 q 763 153 790 217 q 689 44 736 90 q 579 -30 642 -3 q 444 -57 517 -57 q 163 103 263 -57 q 86 165 119 128 q 31 249 53 203 q -3 349 8 296 q -14 460 -14 403 l 272 460 l 272 938 l 675 938 l 675 824 l 790 824 l 790 288 z "},"k":{"ha":954,"x_min":13,"x_max":992,"o":"m 569 43 l 569 72 l 681 72 l 554 199 l 596 199 l 749 43 l 569 43 m 185 765 l 185 0 l 853 0 l 471 383 l 854 765 l 185 765 m 551 383 l 990 -57 l 126 -57 l 126 57 l 13 57 l 13 938 l 876 938 l 763 824 l 992 824 l 551 383 z "},"l":{"ha":824,"x_min":14,"x_max":818,"o":"m 544 33 l 544 63 l 697 63 l 697 203 l 726 203 l 726 33 l 544 33 m 761 228 l 474 228 l 474 765 l 186 765 l 186 0 l 761 0 l 761 228 m 129 -57 l 129 57 l 14 57 l 14 938 l 417 938 l 417 824 l 531 824 l 531 400 l 704 400 l 704 285 l 818 285 l 818 -57 l 129 -57 z "},"m":{"ha":1083,"x_min":43,"x_max":1040,"o":"m 767 33 l 767 63 l 921 63 l 921 203 l 950 203 l 950 33 l 767 33 m 982 765 l 599 383 l 215 765 l 215 0 l 982 0 l 982 765 m 158 -57 l 158 57 l 43 57 l 43 1019 l 483 579 l 925 1019 l 925 790 l 1040 904 l 1040 -57 l 158 -57 z "},"n":{"ha":1015,"x_min":82,"x_max":982,"o":"m 714 33 l 714 63 l 868 63 l 868 203 l 897 203 l 897 33 l 714 33 m 925 765 l 733 765 l 733 288 l 254 765 l 254 0 l 925 0 l 925 765 m 197 -57 l 197 57 l 82 57 l 82 1019 l 561 540 l 561 938 l 868 938 l 868 824 l 982 824 l 982 -57 l 197 -57 z "},"o":{"ha":1000,"x_min":3,"x_max":999,"o":"m 606 375 q 592 342 606 356 q 558 328 578 328 q 524 342 538 328 q 510 375 510 356 q 524 410 510 396 q 558 424 538 424 q 591 409 576 424 q 606 375 606 394 m 907 383 q 879 249 907 313 q 804 136 851 185 q 693 59 757 88 q 558 31 629 31 l 558 60 q 677 87 619 60 q 779 158 735 114 q 851 262 824 203 q 878 383 878 321 l 907 383 m 940 383 q 910 532 940 463 q 828 653 881 601 q 707 735 776 706 q 558 765 638 765 q 410 735 479 765 q 288 652 340 704 q 206 531 236 600 q 175 383 175 461 q 205 233 175 303 q 287 112 235 164 q 408 30 339 60 q 558 0 478 0 q 707 31 638 0 q 828 113 776 61 q 910 235 881 165 q 940 383 940 304 m 999 383 q 964 213 999 293 q 869 72 929 132 q 729 -22 810 13 q 558 -57 649 -57 q 351 -8 446 -57 q 194 133 257 42 q 53 290 103 196 q 3 497 3 385 q 38 667 3 588 q 133 808 72 747 q 273 903 193 868 q 443 938 353 938 q 650 888 556 938 q 807 747 744 839 q 949 590 899 685 q 999 383 999 496 z "},"p":{"ha":843,"x_min":14,"x_max":838,"o":"m 746 544 q 730 470 746 504 q 687 411 714 436 q 623 372 660 386 q 546 358 586 358 l 425 358 l 425 33 l 242 33 l 242 63 l 396 63 l 396 386 l 546 386 q 605 400 575 386 q 660 436 635 414 q 701 487 685 458 q 717 544 717 515 l 746 544 m 600 544 q 586 511 600 525 q 553 497 572 497 q 519 510 532 497 q 506 544 506 524 q 519 578 506 565 q 553 592 532 592 q 587 578 574 592 q 600 544 600 565 m 781 546 q 764 628 781 589 q 718 699 747 668 q 651 747 689 729 q 569 765 613 765 l 186 765 l 186 0 l 454 0 l 454 324 l 569 325 q 653 343 614 325 q 720 392 692 361 q 765 462 749 422 q 781 546 781 501 m 838 546 q 817 442 838 492 q 761 353 797 392 q 676 291 725 314 q 569 268 626 268 l 513 268 l 513 -57 l 129 -57 l 129 57 l 14 57 l 14 938 l 454 938 q 583 900 521 938 q 689 792 646 863 q 838 546 838 701 z "},"q":{"ha":1068,"x_min":24,"x_max":1104,"o":"m 626 383 q 613 349 626 363 q 579 335 600 335 q 544 349 558 335 q 531 383 531 363 q 544 417 531 403 q 579 431 558 431 q 613 417 600 431 q 626 383 626 403 m 828 33 l 828 63 l 981 63 l 981 133 l 1010 133 l 1010 33 l 828 33 m 1047 192 l 911 192 q 963 383 963 278 q 933 532 963 463 q 851 653 903 601 q 728 735 799 706 q 579 765 658 765 q 431 735 500 765 q 309 652 361 704 q 226 531 257 600 q 196 383 196 461 q 226 234 196 304 q 308 112 256 164 q 430 30 360 60 q 579 0 500 0 l 1047 0 l 1047 192 m 579 -57 q 372 -6 467 -57 q 215 133 278 44 q 74 290 124 196 q 24 497 24 385 q 58 667 24 588 q 153 808 93 747 q 294 903 214 868 q 464 938 374 938 q 671 888 576 938 q 828 747 765 839 q 969 590 919 685 q 1019 383 1019 496 q 999 249 1019 315 l 1104 249 l 1104 -57 l 579 -57 z "},"r":{"ha":839,"x_min":10,"x_max":881,"o":"m 739 546 q 722 471 739 506 q 675 411 704 436 q 608 372 646 386 q 531 358 571 358 l 497 358 l 711 26 l 553 26 l 553 56 l 656 56 l 444 388 l 531 388 q 592 401 560 388 q 650 436 624 414 q 694 487 676 458 q 711 546 711 515 l 739 546 m 585 546 q 571 511 585 525 q 538 497 557 497 q 503 511 517 497 q 489 546 489 525 q 503 579 489 565 q 538 593 517 593 q 571 579 557 593 q 585 546 585 565 m 565 325 q 645 343 607 325 q 713 392 683 361 q 758 462 742 422 q 775 546 775 501 q 758 628 775 589 q 712 699 740 668 q 645 747 683 729 q 565 765 607 765 l 182 765 l 182 0 l 775 0 l 565 325 m 125 -57 l 125 57 l 10 57 l 10 938 l 450 938 q 581 898 517 938 q 683 792 644 858 q 795 686 757 747 q 833 546 833 625 q 821 464 833 504 q 785 390 808 424 q 730 328 763 356 q 658 286 697 301 l 881 -57 l 125 -57 z "},"s":{"ha":767,"x_min":14,"x_max":753,"o":"m 664 258 q 647 169 664 211 q 599 97 629 128 q 527 47 568 65 q 440 29 486 29 l 440 57 q 515 75 479 57 q 576 122 550 93 q 619 186 603 150 q 635 258 635 222 l 664 258 m 422 531 l 401 551 l 531 692 l 551 672 l 422 531 m 696 254 q 676 353 696 307 q 621 434 656 400 q 540 488 586 468 q 440 508 493 508 l 622 690 q 440 765 549 765 q 342 746 388 765 q 261 692 296 726 q 206 612 226 658 q 186 513 186 565 q 206 413 186 460 q 260 333 226 367 q 341 278 294 299 q 440 258 388 258 l 256 74 q 440 0 322 0 q 541 20 494 0 q 622 75 588 40 q 676 156 656 110 q 696 254 696 201 m 753 254 q 728 135 753 192 q 662 35 704 78 q 563 -32 619 -7 q 440 -57 506 -57 q 176 75 296 -57 l 192 90 q 63 190 121 124 l 194 322 q 171 357 182 336 q 56 472 99 400 q 14 626 14 543 q 39 749 14 692 q 106 847 64 806 q 205 913 149 889 q 325 938 261 938 q 589 806 457 938 l 574 790 q 704 690 635 760 l 574 558 q 596 524 585 543 q 712 410 671 482 q 753 254 753 339 z "},"t":{"ha":894,"x_min":-8,"x_max":892,"o":"m 426 33 l 426 63 l 579 63 l 579 203 l 608 203 l 608 33 l 426 33 m 643 613 l 643 642 l 769 642 l 769 713 l 799 713 l 799 613 l 643 613 m 833 765 l 164 765 l 164 574 l 356 574 l 356 0 l 643 0 l 643 574 l 833 574 l 833 765 m 700 517 l 700 -57 l 299 -57 l 299 57 l 183 57 l 183 517 l 107 517 l 107 632 l -8 632 l -8 938 l 776 938 l 776 824 l 892 824 l 892 517 l 700 517 z "},"u":{"ha":869,"x_min":28,"x_max":832,"o":"m 735 288 q 715 192 735 239 q 662 110 696 146 q 583 52 628 74 q 488 31 538 31 l 488 60 q 569 81 531 60 q 639 135 608 101 q 688 208 669 168 q 706 288 706 249 l 735 288 m 774 765 l 200 765 l 200 288 q 222 176 200 229 q 283 85 244 124 q 374 23 321 46 q 488 0 426 0 q 599 23 547 0 q 690 85 651 46 q 751 176 729 124 q 774 288 774 229 l 774 765 m 832 288 q 805 154 832 217 q 731 44 778 92 q 622 -30 685 -3 q 488 -57 558 -57 q 315 -14 392 -57 q 193 108 238 29 q 71 231 114 151 q 28 401 28 310 l 28 938 l 717 938 l 717 824 l 832 824 l 832 288 z "},"v":{"ha":971,"x_min":-64,"x_max":1003,"o":"m 547 118 l 529 156 l 631 357 l 646 325 l 547 118 m 144 765 l 528 0 l 911 765 l 144 765 m 528 -128 l 442 44 l 413 -12 l -64 938 l 888 938 l 831 824 l 1003 824 l 528 -128 z "},"w":{"ha":1292,"x_min":-83,"x_max":1367,"o":"m 536 132 l 518 168 l 619 369 l 635 340 l 536 132 m 910 118 l 893 156 l 993 357 l 1010 325 l 910 118 m 125 765 l 507 0 l 699 383 l 890 0 l 1274 765 l 125 765 m 890 -128 l 804 44 l 775 -12 l 669 197 l 507 -128 l 421 44 l 393 -12 l -83 938 l 1251 938 l 1194 824 l 1367 824 l 890 -128 z "},"x":{"ha":811,"x_min":-42,"x_max":833,"o":"m 514 26 l 514 56 l 626 56 l 565 181 l 590 194 l 671 26 l 514 26 m 506 389 l 485 408 l 650 738 l 676 724 l 506 389 m 549 383 l 740 765 l 167 765 l 358 383 l 167 0 l 740 0 l 549 383 m 74 -57 l 131 57 l -42 57 l 178 497 l -42 938 l 718 938 l 661 824 l 833 824 l 613 383 l 833 -57 l 74 -57 z "},"y":{"ha":761,"x_min":-62,"x_max":814,"o":"m 490 389 l 490 33 l 383 33 l 383 63 l 461 63 l 461 396 l 635 738 l 661 724 l 490 389 m 146 765 l 338 383 l 338 0 l 529 0 l 529 383 l 721 765 l 146 765 m 586 369 l 586 -57 l 281 -57 l 281 57 l 165 57 l 165 485 l -62 938 l 699 938 l 642 824 l 814 824 l 586 369 z "},"z":{"ha":956,"x_min":32,"x_max":922,"o":"m 581 33 l 581 63 l 733 63 l 733 143 l 763 143 l 763 33 l 581 33 m 565 182 l 539 193 l 749 725 l 775 714 l 565 182 m 228 765 l 228 574 l 419 574 l 228 0 l 801 0 l 801 192 l 610 192 l 839 765 l 228 765 m 740 364 l 744 364 l 744 249 l 860 249 l 860 -57 l 147 -57 l 186 57 l 32 57 l 186 517 l 169 517 l 169 632 l 56 632 l 56 938 l 807 938 l 763 824 l 922 824 l 740 364 z "},"{":{"ha":465,"x_min":35,"x_max":406,"o":"m 318 111 q 333 97 325 104 q 350 82 340 89 l 350 681 q 287 624 314 658 q 242 549 260 589 q 216 465 225 508 q 207 383 207 422 q 318 111 207 222 m 350 13 q 282 66 314 36 q 226 133 250 96 q 85 290 135 196 q 35 497 35 385 q 63 649 35 576 q 140 781 90 722 q 257 880 189 840 q 406 932 325 919 l 406 -18 q 382 -6 393 -12 q 358 6 371 0 l 350 6 l 350 13 z "},"|":{"ha":608,"x_min":46,"x_max":442,"o":"m 290 -86 l 290 -57 l 324 -57 l 324 82 l 351 82 l 351 -86 l 290 -86 m 385 885 l 218 885 l 218 -119 l 385 -119 l 385 885 m 160 -176 l 160 -62 l 46 -62 l 46 1058 l 326 1058 l 326 943 l 442 943 l 442 -176 l 160 -176 z "},"}":{"ha":575,"x_min":83,"x_max":544,"o":"m 453 383 q 415 223 453 300 q 301 93 376 146 l 301 53 q 440 196 393 110 q 488 383 488 282 q 475 481 488 433 q 439 572 463 529 q 381 651 415 615 q 301 713 346 688 l 301 133 q 314 146 307 140 q 326 158 321 151 q 425 383 425 257 l 453 383 m 83 929 q 321 789 231 856 q 461 657 411 722 q 528 525 511 592 q 544 383 544 458 q 524 249 544 314 q 464 129 503 185 q 370 31 425 74 q 247 -35 315 -11 l 247 101 q 83 11 186 36 l 83 929 z "},"~":{"ha":1008,"x_min":31,"x_max":981,"o":"m 297 315 q 345 347 319 339 q 400 356 371 356 q 473 344 439 356 q 540 319 507 332 q 607 294 574 306 q 678 282 640 282 q 813 308 743 282 q 922 385 882 335 l 785 494 q 746 467 771 475 q 693 458 721 458 q 620 470 654 458 q 552 496 586 482 q 482 522 518 510 q 404 533 446 533 q 287 514 343 533 q 182 451 231 494 l 297 315 m 31 546 q 154 619 88 596 q 292 642 221 642 q 396 631 344 642 q 496 599 447 621 q 576 568 532 568 q 646 587 613 568 q 706 638 679 606 l 863 507 l 851 493 l 981 388 q 848 280 926 317 q 682 243 769 243 q 615 254 649 243 q 547 279 582 265 q 476 304 513 293 q 403 315 440 315 q 339 305 369 315 q 283 268 308 294 l 178 396 l 165 388 l 31 546 z "},"":{"ha":315,"x_min":0,"x_max":0,"o":""},"":{"ha":625,"x_min":50,"x_max":579,"o":"m 567 675 q 488 514 567 578 l 579 514 l 579 -367 l 176 -367 l 176 -251 l 63 -251 l 63 629 l 129 629 q 70 701 90 657 q 50 790 50 744 q 66 868 50 832 q 110 931 82 904 q 174 974 138 958 q 251 990 210 990 q 365 956 314 990 q 439 863 415 921 q 532 789 497 840 q 567 675 567 738 m 235 457 l 235 -308 l 522 -308 l 522 457 l 235 457 m 510 675 q 499 731 510 704 q 468 776 488 757 q 422 807 449 796 q 367 818 396 818 q 311 807 338 818 q 265 776 285 796 q 233 731 244 757 q 222 675 222 704 q 233 619 222 646 q 265 573 244 593 q 311 542 285 553 q 367 531 338 531 q 422 542 396 531 q 468 573 449 553 q 499 619 488 593 q 510 675 510 646 m 307 -246 l 461 -246 l 461 -107 l 489 -107 l 489 -275 l 307 -275 l 307 -246 m 471 664 q 397 567 471 586 l 397 594 q 442 664 442 610 l 471 664 z "},"":{"ha":996,"x_min":3,"x_max":979,"o":"m 414 -176 l 414 -62 l 300 -62 l 300 26 q 194 133 238 71 q 53 290 103 196 q 3 497 3 385 q 25 633 3 568 q 87 753 47 699 q 181 848 126 807 q 300 913 235 889 l 300 1058 l 581 1058 l 581 943 l 696 943 l 696 856 q 751 806 724 833 q 801 747 778 779 q 979 529 911 671 l 744 411 l 863 351 q 851 329 857 340 q 839 307 844 318 l 978 238 q 696 -35 868 21 l 696 -176 l 414 -176 m 639 8 q 794 82 725 28 q 901 211 863 136 l 558 383 l 901 554 q 793 688 861 636 q 639 757 725 740 l 639 885 l 472 885 l 472 756 q 354 706 408 740 q 260 622 300 671 q 199 511 221 572 q 176 383 176 450 q 199 253 176 314 q 260 142 221 192 q 354 58 300 93 q 472 10 408 24 l 472 -119 l 639 -119 l 639 8 m 847 193 q 805 146 822 164 q 774 116 788 128 q 747 96 760 104 q 718 75 735 88 l 703 100 q 750 136 726 115 q 799 183 774 157 l 519 331 l 532 357 l 847 193 m 544 -86 l 544 -57 l 578 -57 l 578 82 l 606 82 l 606 -86 l 544 -86 z "},"":{"ha":853,"x_min":24,"x_max":833,"o":"m 696 289 l 833 289 l 833 -57 l 139 -57 l 139 57 l 24 57 l 24 669 q 53 783 24 733 q 131 867 82 833 q 241 919 179 901 q 368 938 303 938 l 713 938 l 713 824 l 828 824 l 828 421 l 696 421 l 696 289 m 426 765 q 328 743 371 765 q 256 685 285 721 q 211 603 226 650 q 196 510 196 557 l 196 0 l 790 0 l 790 247 l 483 247 l 483 288 l 639 288 l 639 439 l 483 439 l 483 479 l 771 479 l 771 765 l 426 765 m 558 539 l 713 539 l 713 678 l 742 678 l 742 510 l 558 510 l 558 539 m 582 63 l 735 63 l 735 149 l 764 149 l 764 33 l 582 33 l 582 63 z "},"":{"ha":761,"x_min":-62,"x_max":814,"o":"m 56 488 l 163 488 l -62 938 l 699 938 l 642 824 l 814 824 l 586 369 l 692 369 l 692 53 l 586 53 l 586 -57 l 281 -57 l 281 57 l 165 57 l 165 208 l 56 208 l 56 488 m 529 238 l 653 238 l 653 326 l 529 326 l 529 383 l 721 765 l 146 765 l 338 383 l 338 326 l 210 326 l 210 238 l 338 238 l 338 190 l 214 190 l 214 99 l 338 99 l 338 0 l 529 0 l 529 99 l 653 99 l 653 190 l 529 190 l 529 238 m 490 389 l 490 326 l 461 326 l 461 396 l 635 738 l 661 724 l 489 389 l 490 389 m 383 33 l 383 63 l 463 63 l 463 99 l 490 99 l 490 33 l 383 33 m 490 190 l 461 190 l 461 238 l 490 238 l 490 190 z "},"":{"ha":876,"x_min":44,"x_max":839,"o":"m 578 403 q 567 393 578 393 q 557 399 563 393 q 481 447 525 447 q 453 438 472 447 q 412 415 435 428 q 367 393 389 403 q 332 383 346 383 q 290 391 313 383 q 247 412 267 399 q 215 443 228 425 q 201 483 201 461 q 215 497 201 497 q 226 488 225 497 q 240 456 229 471 q 265 431 250 442 q 298 413 281 419 q 332 407 315 407 q 363 417 343 407 q 406 439 383 426 q 449 461 428 451 q 481 471 469 471 q 507 464 490 471 q 540 447 524 457 q 567 425 556 438 q 578 403 578 413 m 815 303 q 793 335 815 335 q 754 300 772 335 q 721 222 736 265 q 692 143 706 179 q 667 104 679 107 q 651 124 658 104 q 594 315 594 254 q 598 369 594 333 q 606 446 601 406 q 613 522 610 486 q 617 576 617 558 q 549 554 586 554 q 447 615 479 554 q 408 552 439 576 q 339 528 378 528 q 259 560 292 528 q 226 639 226 592 q 258 719 226 686 q 339 751 290 751 q 439 689 410 751 q 514 774 451 751 q 371 807 453 807 q 281 789 322 807 q 211 738 240 771 q 166 660 182 706 q 150 561 150 615 q 238 314 150 431 q 260 278 250 293 q 287 243 271 264 q 328 190 303 222 q 394 106 353 158 l 369 106 q 309 128 346 106 q 233 176 272 150 q 158 224 193 201 q 107 246 124 246 q 76 240 83 246 q 68 211 68 233 q 160 126 68 181 q 251 79 207 99 q 332 47 294 60 q 397 29 369 35 q 440 24 425 24 q 463 35 463 24 q 454 47 463 36 q 435 73 446 58 q 417 103 425 88 q 408 128 408 118 q 425 182 408 160 q 472 204 442 204 q 528 182 507 204 q 565 129 550 160 q 594 67 581 99 q 628 17 608 35 q 688 55 656 21 q 749 133 721 89 q 797 225 778 178 q 815 303 815 272 m 436 640 q 407 708 436 679 q 339 736 378 736 q 275 714 303 736 q 242 656 247 692 q 264 668 250 668 q 289 639 289 668 q 264 611 289 611 q 242 622 250 611 q 276 567 249 588 q 339 546 303 546 q 407 573 378 546 q 436 640 436 600 m 646 667 q 617 734 646 707 q 549 761 589 761 q 485 739 513 761 q 451 682 457 717 q 472 693 460 693 q 499 665 499 693 q 472 638 499 638 q 453 647 463 638 q 487 592 460 614 q 549 571 514 571 q 617 599 589 571 q 646 667 646 626 m 793 358 q 839 303 839 358 q 817 210 839 263 q 761 108 794 157 q 688 26 728 60 q 615 -7 649 -7 q 581 42 601 -7 q 547 113 561 86 q 521 156 532 140 q 499 176 510 171 q 474 182 488 182 q 444 165 456 182 q 432 128 432 147 q 440 108 432 121 q 459 81 449 94 q 478 54 469 67 q 488 35 488 42 q 436 3 488 3 q 310 24 379 3 q 183 78 242 46 q 84 146 124 110 q 44 211 44 182 q 107 269 44 269 q 167 249 133 269 q 235 204 201 229 q 298 158 269 179 q 342 133 326 136 q 310 175 333 144 q 244 257 286 206 q 188 333 211 297 q 151 406 165 369 q 131 479 138 442 q 125 561 125 517 q 143 669 125 619 q 194 754 161 718 q 272 810 226 790 q 371 831 317 831 q 551 776 478 831 q 628 743 596 776 q 661 665 661 710 q 640 601 661 632 q 642 588 642 594 q 642 575 642 582 q 638 509 642 547 q 630 433 635 471 q 622 364 625 394 q 618 321 618 333 q 668 151 618 244 q 685 202 674 168 q 712 271 696 236 q 749 332 728 306 q 793 358 769 358 z "},"":{"ha":622,"x_min":110,"x_max":526,"o":"m 396 1003 l 396 1063 l 336 1063 l 336 1190 l 467 1190 l 467 1131 l 526 1131 l 526 1003 l 396 1003 m 110 1190 l 236 1190 l 236 1131 l 296 1131 l 296 1003 l 169 1003 l 169 1063 l 110 1063 l 110 1190 m 501 1025 l 501 1106 l 419 1106 l 419 1025 l 501 1025 m 193 1025 l 271 1025 l 271 1106 l 193 1106 l 193 1025 z "},"":{"ha":1033,"x_min":-7,"x_max":989,"o":"m 989 383 q 954 213 989 293 q 860 72 919 132 q 719 -22 800 13 q 549 -57 639 -57 q 342 -8 436 -57 q 185 133 247 42 q 43 290 93 196 q -7 497 -7 385 q 28 667 -7 588 q 123 808 63 747 q 263 903 183 868 q 433 938 343 938 q 640 888 546 938 q 797 747 735 839 q 939 590 889 685 q 989 383 989 496 m 931 383 q 901 532 931 463 q 819 653 871 601 q 697 735 767 706 q 549 765 628 765 q 400 735 469 765 q 278 652 331 704 q 196 531 226 600 q 165 383 165 461 q 195 233 165 303 q 277 112 225 164 q 399 30 329 60 q 549 0 468 0 q 697 31 628 0 q 819 113 767 61 q 901 235 871 165 q 931 383 931 304 m 897 383 q 869 249 897 313 q 794 136 842 185 q 683 59 747 88 q 549 31 619 31 l 549 60 q 667 87 610 60 q 769 158 725 114 q 841 262 814 203 q 868 383 868 321 l 897 383 m 729 260 q 694 223 706 232 q 667 203 682 214 l 660 214 q 682 233 669 222 q 706 254 694 243 l 569 326 l 576 340 l 729 260 m 574 363 l 567 375 l 721 453 l 725 440 l 574 363 m 756 436 q 688 512 732 485 q 589 539 643 539 q 517 524 551 539 q 458 483 483 508 q 417 423 432 457 q 401 351 401 389 q 417 278 401 313 q 458 219 432 244 q 517 181 483 194 q 589 167 551 167 q 687 194 643 167 q 756 269 731 221 l 589 351 l 756 436 m 679 367 l 738 338 q 731 326 733 332 q 725 315 728 321 l 792 281 q 589 139 721 139 q 489 163 536 139 q 413 231 442 186 q 343 309 368 263 q 318 408 318 356 q 335 492 318 453 q 382 560 353 531 q 450 606 411 589 q 532 622 489 622 q 706 529 639 622 q 792 424 758 493 l 679 367 z "},"":{"ha":894,"x_min":85,"x_max":836,"o":"m 401 768 l 401 561 l 740 768 l 740 561 l 836 625 l 836 210 l 519 418 l 581 457 l 497 513 l 497 210 l 181 418 l 242 457 l 85 561 l 401 768 m 607 417 l 793 299 l 793 533 l 607 417 m 268 417 l 454 299 l 454 533 l 268 417 z "},"":{"ha":981,"x_min":-7,"x_max":989,"o":"m 989 383 q 954 213 989 293 q 860 72 919 132 q 719 -22 800 13 q 549 -57 639 -57 q 342 -8 436 -57 q 185 133 247 42 q 43 290 93 196 q -7 497 -7 385 q 28 667 -7 588 q 123 808 63 747 q 263 903 183 868 q 433 938 343 938 q 640 888 546 938 q 797 747 735 839 q 939 590 889 685 q 989 383 989 496 m 931 383 q 901 532 931 463 q 819 653 871 601 q 697 735 767 706 q 549 765 628 765 q 400 735 469 765 q 278 652 331 704 q 196 531 226 600 q 165 383 165 461 q 195 233 165 303 q 277 112 225 164 q 399 30 329 60 q 549 0 468 0 q 697 31 628 0 q 819 113 767 61 q 901 235 871 165 q 931 383 931 304 m 897 383 q 869 249 897 313 q 794 136 842 185 q 683 59 747 88 q 549 31 619 31 l 549 60 q 768 156 669 60 l 440 156 l 440 208 l 389 208 l 389 606 l 588 606 q 646 587 617 606 q 693 540 675 568 q 743 492 725 519 q 761 428 761 464 q 739 358 761 390 q 682 311 717 326 l 776 164 q 868 383 868 260 l 897 383 m 639 329 q 677 338 660 329 q 707 360 694 346 q 727 392 719 374 q 735 428 735 410 q 706 497 735 467 q 639 528 678 528 l 467 528 l 467 182 l 735 182 l 639 329 m 718 428 q 690 368 718 392 q 624 344 661 344 l 608 344 l 704 194 l 635 194 l 635 207 l 681 207 l 585 357 l 624 357 q 652 363 638 357 q 678 379 667 369 q 697 402 689 389 q 704 428 704 415 l 718 428 m 649 428 q 642 413 649 419 q 626 407 636 407 q 612 413 618 407 q 606 428 606 419 q 612 444 606 438 q 626 450 618 450 q 649 428 649 450 z "},"":{"ha":622,"x_min":110,"x_max":526,"o":"m 110 1190 l 467 1190 l 467 1131 l 526 1131 l 526 1003 l 169 1003 l 169 1063 l 110 1063 l 110 1190 m 193 1025 l 501 1025 l 501 1106 l 193 1106 l 193 1025 z "},"":{"ha":443,"x_min":3,"x_max":442,"o":"m 3 813 q 16 882 3 850 q 52 938 29 914 q 106 974 75 961 q 175 988 138 988 q 272 958 229 988 q 335 881 315 929 q 414 817 386 860 q 442 719 442 774 q 428 652 442 683 q 392 597 415 621 q 338 560 369 574 q 269 547 306 547 q 171 576 215 547 q 107 651 126 606 q 31 715 60 672 q 3 813 3 758 m 132 717 q 142 665 132 689 q 171 622 153 640 q 213 593 189 604 q 267 582 238 582 q 320 593 296 582 q 363 622 344 604 q 392 665 382 640 q 403 717 403 689 q 364 814 403 775 q 267 853 325 853 q 170 814 208 853 q 132 717 132 775 m 221 717 q 234 752 221 739 q 269 765 247 765 q 302 752 289 765 q 315 717 315 739 q 302 684 315 697 q 269 671 289 671 q 234 684 247 671 q 221 717 221 697 z "},"":{"ha":526,"x_min":110,"x_max":431,"o":"m 315 1163 l 431 1163 l 271 986 l 169 986 l 210 1046 l 110 1046 l 229 1222 l 371 1222 l 315 1163 m 376 1138 l 299 1138 l 211 1008 l 260 1008 l 376 1138 z "},"":{"ha":583,"x_min":33,"x_max":550,"o":"m 453 383 q 381 286 453 304 l 381 314 q 425 383 425 329 l 453 383 m 493 393 q 482 449 493 422 q 451 495 471 475 q 406 526 432 515 q 350 538 379 538 q 293 526 319 538 q 247 495 267 515 q 217 449 228 475 q 206 393 206 422 q 217 338 206 364 q 247 292 228 311 q 293 261 267 272 q 350 250 319 250 q 406 261 379 250 q 451 292 432 272 q 482 338 471 311 q 493 393 493 364 m 550 393 q 534 315 550 351 q 491 251 518 278 q 428 208 464 224 q 350 193 392 193 q 237 228 288 193 q 163 321 186 263 q 69 394 104 343 q 33 508 33 446 q 49 587 33 550 q 93 651 65 624 q 158 694 121 678 q 235 710 194 710 q 348 675 297 710 q 422 582 399 640 q 515 507 481 558 q 550 393 550 456 z "},"":{"ha":824,"x_min":172,"x_max":622,"o":"m 544 -240 q 546 -251 546 -243 q 540 -276 546 -262 q 524 -300 533 -289 q 503 -319 515 -311 q 479 -328 492 -328 l 479 -303 q 517 -240 517 -293 l 544 -240 m 572 -237 q 536 -148 572 -185 q 449 -111 500 -111 q 359 -148 396 -111 q 322 -237 322 -185 l 449 -237 l 449 -361 q 536 -325 500 -361 q 572 -237 572 -289 m 622 -237 q 560 -365 622 -318 q 397 -411 497 -411 l 397 -297 q 299 -312 349 -312 l 299 -286 l 272 -286 q 288 -186 272 -236 l 172 -186 q 219 -30 172 -87 q 347 28 267 28 q 447 3 403 28 q 511 -72 492 -22 q 592 -137 563 -93 q 622 -237 622 -182 z "},"":{"ha":881,"x_min":83,"x_max":846,"o":"m 339 518 l 433 456 l 433 767 l 750 558 l 689 518 l 846 415 l 529 208 l 529 414 l 179 208 l 179 414 l 83 351 l 83 767 l 400 558 l 339 518 m 581 303 l 764 411 l 581 529 l 581 303 m 231 303 l 414 411 l 231 529 l 231 303 z "},"":{"ha":788,"x_min":19,"x_max":767,"o":"m 19 249 q 65 413 19 340 q 189 526 110 486 q 165 563 176 543 q 142 604 153 582 l 203 635 l 142 667 q 332 818 218 818 q 389 808 360 818 q 442 780 418 797 q 482 740 467 763 q 497 696 497 718 q 490 672 497 681 q 549 652 521 668 q 597 612 576 636 q 628 556 617 588 q 640 492 640 525 q 631 429 640 460 q 603 371 622 399 q 756 208 694 319 l 549 108 l 767 17 q 703 -94 739 -50 q 630 -164 668 -137 q 551 -201 592 -190 q 471 -211 510 -211 q 309 -168 381 -211 q 193 -50 238 -125 l 179 -25 q 174 -22 176 -24 q 168 -18 171 -21 q 109 31 136 3 q 62 94 82 60 q 31 168 42 129 q 19 249 19 207 m 208 106 q 229 6 208 53 q 285 -75 250 -40 q 366 -130 319 -110 q 463 -150 413 -150 q 599 -112 538 -150 q 690 -8 660 -75 l 463 106 l 690 219 q 597 321 658 283 q 463 358 535 358 q 363 339 408 358 q 282 285 317 319 q 228 204 247 250 q 208 106 208 158 m 350 436 q 463 367 383 367 q 551 403 514 367 q 589 492 589 439 q 578 540 589 517 q 551 580 568 563 q 510 608 533 597 q 463 618 488 618 q 350 549 386 618 l 463 492 l 350 436 m 247 106 q 263 190 247 150 q 308 258 279 229 q 377 304 338 288 q 463 321 417 321 l 463 292 q 393 277 426 292 q 334 238 360 263 q 292 178 308 213 q 276 106 276 144 l 247 106 z "},"":{"ha":969,"x_min":-14,"x_max":1051,"o":"m 610 290 q 597 257 610 271 q 563 243 583 243 q 528 257 542 243 q 514 290 514 271 q 528 325 514 311 q 563 339 543 339 q 596 324 582 339 q 610 290 610 310 m 708 43 l 708 72 l 836 72 l 772 199 l 799 211 l 882 43 l 708 43 m 576 765 l 194 0 l 960 0 l 576 765 m 100 -57 l 158 57 l -14 57 l 463 1008 l 549 836 l 576 894 l 1051 -57 l 100 -57 m 465 1222 l 506 1163 l 525 1163 l 644 986 l 543 986 l 489 1046 l 483 1046 l 324 1222 l 465 1222 m 436 1138 l 551 1008 l 600 1008 l 513 1138 l 436 1138 z "},"":{"ha":969,"x_min":-14,"x_max":1051,"o":"m 610 290 q 597 257 610 271 q 563 243 583 243 q 528 257 542 243 q 514 290 514 271 q 528 325 514 311 q 563 339 543 339 q 596 324 582 339 q 610 290 610 310 m 708 43 l 708 72 l 836 72 l 772 199 l 799 211 l 882 43 l 708 43 m 576 765 l 194 0 l 960 0 l 576 765 m 100 -57 l 158 57 l -14 57 l 463 1008 l 549 836 l 576 894 l 1051 -57 l 100 -57 m 625 1163 l 740 1163 l 581 986 l 479 986 l 519 1046 l 419 1046 l 539 1222 l 681 1222 l 625 1163 m 686 1138 l 608 1138 l 521 1008 l 569 1008 l 686 1138 z "},"":{"ha":969,"x_min":-14,"x_max":1051,"o":"m 610 290 q 597 257 610 271 q 563 243 583 243 q 528 257 542 243 q 514 290 514 271 q 528 325 514 311 q 563 339 543 339 q 596 324 582 339 q 610 290 610 310 m 708 43 l 708 72 l 836 72 l 772 199 l 799 211 l 882 43 l 708 43 m 576 765 l 194 0 l 960 0 l 576 765 m 497 1008 l 660 1008 l 579 1119 l 497 1008 m 521 1222 l 572 1151 l 581 1163 l 707 986 l 474 986 l 549 836 l 576 894 l 1051 -57 l 100 -57 l 158 57 l -14 57 l 451 986 l 494 1046 l 392 1046 l 521 1222 z "},"":{"ha":969,"x_min":-14,"x_max":1051,"o":"m 610 290 q 597 257 610 271 q 563 243 583 243 q 528 257 542 243 q 514 290 514 271 q 528 325 514 311 q 563 339 543 339 q 596 324 582 339 q 610 290 610 310 m 708 43 l 708 72 l 836 72 l 772 199 l 799 211 l 882 43 l 708 43 m 576 765 l 194 0 l 960 0 l 576 765 m 100 -57 l 158 57 l -14 57 l 463 1008 l 549 836 l 576 894 l 1051 -57 l 100 -57 m 414 1024 q 443 1042 428 1038 q 476 1047 458 1047 q 521 1040 500 1047 q 562 1025 542 1033 q 602 1010 582 1017 q 644 1003 622 1003 q 727 1019 685 1003 q 793 1065 769 1035 l 710 1132 q 686 1115 701 1121 q 654 1110 671 1110 q 610 1117 631 1110 q 569 1133 589 1124 q 526 1149 549 1142 q 479 1156 504 1156 q 408 1144 443 1156 q 344 1106 374 1132 l 414 1024 m 253 1163 q 328 1207 288 1193 q 411 1221 368 1221 q 474 1215 443 1221 q 535 1194 506 1208 q 583 1176 557 1176 q 626 1188 606 1176 q 661 1218 646 1199 l 757 1139 l 750 1131 l 828 1067 q 748 1001 796 1024 q 647 979 700 979 q 607 986 628 979 q 565 1001 586 993 q 522 1017 544 1010 q 478 1024 500 1024 q 406 994 435 1024 l 342 1072 l 335 1067 l 253 1163 z "},"":{"ha":969,"x_min":-14,"x_max":1051,"o":"m 339 1190 l 465 1190 l 465 1131 l 525 1131 l 525 1003 l 465 1003 l 549 836 l 576 894 l 1051 -57 l 100 -57 l 158 57 l -14 57 l 460 1003 l 399 1003 l 399 1063 l 339 1063 l 339 1190 m 576 765 l 194 0 l 960 0 l 576 765 m 625 1003 l 625 1063 l 565 1063 l 565 1190 l 696 1190 l 696 1131 l 756 1131 l 756 1003 l 625 1003 m 708 43 l 708 72 l 836 72 l 772 199 l 799 211 l 882 43 l 708 43 m 610 290 q 597 257 610 271 q 563 243 583 243 q 528 257 542 243 q 514 290 514 271 q 528 325 514 311 q 563 339 543 339 q 596 324 582 339 q 610 290 610 310 m 731 1025 l 731 1106 l 649 1106 l 649 1025 l 731 1025 m 422 1025 l 500 1025 l 500 1106 l 422 1106 l 422 1025 z "},"":{"ha":969,"x_min":-14,"x_max":1051,"o":"m 610 290 q 597 257 610 271 q 563 243 583 243 q 528 257 542 243 q 514 290 514 271 q 528 325 514 311 q 563 339 543 339 q 596 324 582 339 q 610 290 610 310 m 708 43 l 708 72 l 836 72 l 772 199 l 799 211 l 882 43 l 708 43 m 576 765 l 194 0 l 960 0 l 576 765 m 100 -57 l 158 57 l -14 57 l 463 1008 l 549 836 l 576 894 l 1051 -57 l 100 -57 m 403 1144 q 434 1224 403 1192 q 513 1256 465 1256 q 574 1237 547 1256 q 614 1188 601 1218 q 664 1147 646 1174 q 682 1085 682 1119 q 651 1007 682 1039 q 572 975 619 975 q 510 994 538 975 q 469 1042 482 1013 q 421 1083 439 1056 q 403 1144 403 1110 m 485 1083 q 510 1023 485 1049 q 571 997 535 997 q 632 1023 607 997 q 657 1083 657 1049 q 632 1144 657 1119 q 571 1169 607 1169 q 510 1144 535 1169 q 485 1083 485 1119 m 542 1083 q 572 1114 542 1114 q 593 1106 585 1114 q 601 1083 601 1097 q 593 1063 601 1071 q 572 1054 585 1054 q 550 1063 558 1054 q 542 1083 542 1071 z "},"":{"ha":1381,"x_min":-14,"x_max":1356,"o":"m 158 57 l -14 57 l 463 1008 l 549 836 l 576 894 l 647 753 l 647 938 l 1240 938 l 1240 824 l 1356 824 l 1356 421 l 1240 421 l 1240 344 l 1356 344 l 1356 -57 l 100 -57 l 158 57 m 1046 288 l 1046 324 l 1165 324 l 1165 443 l 1046 443 l 1046 479 l 1299 479 l 1299 765 l 819 765 l 819 407 l 1024 0 l 1299 0 l 1299 288 l 1046 288 m 194 0 l 960 0 l 576 765 l 194 0 m 1083 539 l 1238 539 l 1238 678 l 1265 678 l 1265 510 l 1083 510 l 1083 539 m 1083 63 l 1238 63 l 1238 203 l 1265 203 l 1265 33 l 1083 33 l 1083 63 m 708 72 l 836 72 l 772 199 l 799 211 l 882 43 l 708 43 l 708 72 m 610 290 q 597 257 610 271 q 563 243 583 243 q 528 257 542 243 q 514 290 514 271 q 528 325 514 311 q 563 339 543 339 q 596 324 582 339 q 610 290 610 310 z "},"":{"ha":996,"x_min":3,"x_max":979,"o":"m 847 193 q 805 146 822 164 q 774 116 788 128 q 747 96 760 104 q 718 75 735 88 l 703 100 q 750 136 726 115 q 799 183 774 157 l 519 331 l 532 357 l 847 193 m 901 554 q 761 710 853 654 q 558 765 669 765 q 410 735 479 765 q 288 652 340 704 q 206 531 236 600 q 176 383 176 461 q 206 234 176 304 q 288 112 236 164 q 409 30 339 60 q 558 0 479 0 q 666 16 614 0 q 763 60 718 32 q 842 126 807 88 q 901 211 878 165 l 558 383 l 901 554 m 681 -240 q 682 -251 682 -243 q 676 -276 682 -262 q 660 -300 669 -289 q 640 -319 651 -311 q 615 -328 628 -328 l 615 -303 q 653 -240 653 -293 l 681 -240 m 708 -237 q 672 -148 708 -185 q 585 -111 636 -111 q 495 -148 532 -111 q 458 -237 458 -185 l 585 -237 l 585 -361 q 672 -325 636 -361 q 708 -237 708 -289 m 758 -237 q 696 -365 758 -318 q 533 -411 633 -411 l 533 -297 q 435 -312 485 -312 l 435 -286 l 408 -286 q 424 -186 408 -236 l 308 -186 q 369 -14 308 -72 q 272 47 317 10 q 194 133 228 85 q 53 290 103 196 q 3 497 3 385 q 38 668 3 588 q 134 808 74 749 q 274 903 194 868 q 444 938 354 938 q 801 747 661 938 q 979 529 911 671 l 744 411 l 863 351 q 851 329 857 340 q 839 307 844 318 l 978 238 q 636 -50 850 -12 q 642 -60 639 -56 q 647 -72 644 -65 q 728 -137 699 -93 q 758 -237 758 -182 z "},"":{"ha":893,"x_min":44,"x_max":849,"o":"m 576 33 l 576 63 l 729 63 l 729 203 l 758 203 l 758 33 l 576 33 m 576 510 l 576 539 l 729 539 l 729 678 l 758 678 l 758 510 l 576 510 m 790 288 l 539 288 l 539 324 l 658 324 l 658 443 l 539 443 l 539 479 l 790 479 l 790 765 l 217 765 l 217 0 l 790 0 l 790 288 m 160 -57 l 160 57 l 44 57 l 44 938 l 733 938 l 733 824 l 849 824 l 849 421 l 733 421 l 733 344 l 849 344 l 849 -57 l 160 -57 m 401 1222 l 442 1163 l 461 1163 l 581 986 l 479 986 l 425 1046 l 419 1046 l 260 1222 l 401 1222 m 372 1138 l 488 1008 l 536 1008 l 449 1138 l 372 1138 z "},"":{"ha":893,"x_min":44,"x_max":849,"o":"m 576 33 l 576 63 l 729 63 l 729 203 l 758 203 l 758 33 l 576 33 m 576 510 l 576 539 l 729 539 l 729 678 l 758 678 l 758 510 l 576 510 m 790 288 l 539 288 l 539 324 l 658 324 l 658 443 l 539 443 l 539 479 l 790 479 l 790 765 l 217 765 l 217 0 l 790 0 l 790 288 m 160 -57 l 160 57 l 44 57 l 44 938 l 733 938 l 733 824 l 849 824 l 849 421 l 733 421 l 733 344 l 849 344 l 849 -57 l 160 -57 m 567 1163 l 682 1163 l 522 986 l 421 986 l 461 1046 l 361 1046 l 481 1222 l 622 1222 l 567 1163 m 628 1138 l 550 1138 l 463 1008 l 511 1008 l 628 1138 z "},"":{"ha":893,"x_min":44,"x_max":849,"o":"m 576 33 l 576 63 l 729 63 l 729 203 l 758 203 l 758 33 l 576 33 m 576 510 l 576 539 l 729 539 l 729 678 l 758 678 l 758 510 l 576 510 m 790 288 l 539 288 l 539 324 l 658 324 l 658 443 l 539 443 l 539 479 l 790 479 l 790 765 l 217 765 l 217 0 l 790 0 l 790 288 m 160 -57 l 160 57 l 44 57 l 44 938 l 733 938 l 733 824 l 849 824 l 849 421 l 733 421 l 733 344 l 849 344 l 849 -57 l 160 -57 m 450 1222 l 501 1151 l 510 1163 l 636 986 l 381 986 l 424 1046 l 321 1046 l 450 1222 m 426 1008 l 589 1008 l 508 1119 l 426 1008 z "},"":{"ha":893,"x_min":44,"x_max":849,"o":"m 576 33 l 576 63 l 729 63 l 729 203 l 758 203 l 758 33 l 576 33 m 576 510 l 576 539 l 729 539 l 729 678 l 758 678 l 758 510 l 576 510 m 790 288 l 539 288 l 539 324 l 658 324 l 658 443 l 539 443 l 539 479 l 790 479 l 790 765 l 217 765 l 217 0 l 790 0 l 790 288 m 160 -57 l 160 57 l 44 57 l 44 938 l 733 938 l 733 824 l 849 824 l 849 421 l 733 421 l 733 344 l 849 344 l 849 -57 l 160 -57 m 556 1003 l 556 1063 l 496 1063 l 496 1190 l 626 1190 l 626 1131 l 686 1131 l 686 1003 l 556 1003 m 269 1190 l 396 1190 l 396 1131 l 456 1131 l 456 1003 l 329 1003 l 329 1063 l 269 1063 l 269 1190 m 661 1025 l 661 1106 l 579 1106 l 579 1025 l 661 1025 m 353 1025 l 431 1025 l 431 1106 l 353 1106 l 353 1025 z "},"":{"ha":608,"x_min":46,"x_max":563,"o":"m 290 33 l 290 63 l 444 63 l 444 203 l 472 203 l 472 33 l 290 33 m 506 765 l 218 765 l 218 0 l 506 0 l 506 765 m 160 -57 l 160 57 l 46 57 l 46 938 l 447 938 l 447 824 l 563 824 l 563 -57 l 160 -57 m 253 1222 l 293 1163 l 313 1163 l 432 986 l 331 986 l 276 1046 l 271 1046 l 111 1222 l 253 1222 m 224 1138 l 339 1008 l 388 1008 l 300 1138 l 224 1138 z "},"":{"ha":608,"x_min":46,"x_max":563,"o":"m 290 33 l 290 63 l 444 63 l 444 203 l 472 203 l 472 33 l 290 33 m 506 765 l 218 765 l 218 0 l 506 0 l 506 765 m 160 -57 l 160 57 l 46 57 l 46 938 l 447 938 l 447 824 l 563 824 l 563 -57 l 160 -57 m 444 1163 l 560 1163 l 400 986 l 299 986 l 339 1046 l 239 1046 l 358 1222 l 500 1222 l 444 1163 m 506 1138 l 428 1138 l 340 1008 l 389 1008 l 506 1138 z "},"":{"ha":608,"x_min":46,"x_max":563,"o":"m 290 33 l 290 63 l 444 63 l 444 203 l 472 203 l 472 33 l 290 33 m 506 765 l 218 765 l 218 0 l 506 0 l 506 765 m 160 -57 l 160 57 l 46 57 l 46 938 l 447 938 l 447 824 l 563 824 l 563 -57 l 160 -57 m 321 1222 l 372 1151 l 381 1163 l 507 986 l 251 986 l 294 1046 l 192 1046 l 321 1222 m 297 1008 l 460 1008 l 379 1119 l 297 1008 z "},"":{"ha":608,"x_min":46,"x_max":563,"o":"m 290 33 l 290 63 l 444 63 l 444 203 l 472 203 l 472 33 l 290 33 m 506 765 l 218 765 l 218 0 l 506 0 l 506 765 m 160 -57 l 160 57 l 46 57 l 46 938 l 447 938 l 447 824 l 563 824 l 563 -57 l 160 -57 m 408 1003 l 408 1063 l 349 1063 l 349 1190 l 479 1190 l 479 1131 l 539 1131 l 539 1003 l 408 1003 m 122 1190 l 249 1190 l 249 1131 l 308 1131 l 308 1003 l 182 1003 l 182 1063 l 122 1063 l 122 1190 m 514 1025 l 514 1106 l 432 1106 l 432 1025 l 514 1025 m 206 1025 l 283 1025 l 283 1106 l 206 1106 l 206 1025 z "},"":{"ha":988,"x_min":-87,"x_max":1022,"o":"m 1022 383 q 988 213 1022 293 q 893 72 953 132 q 753 -22 833 13 q 582 -57 672 -57 l 142 -57 l 142 57 l 26 57 l 26 383 l -87 383 l -87 553 l 26 553 l 26 938 l 467 938 q 674 888 579 938 q 831 747 768 839 q 972 590 922 685 q 1022 383 1022 496 m 199 308 l 199 0 l 582 0 q 731 31 661 0 q 852 113 800 61 q 934 235 904 165 q 964 383 964 304 q 934 532 964 463 q 852 653 904 601 q 731 735 800 706 q 582 765 661 765 l 199 765 l 199 443 l 79 443 l 79 308 l 199 308 m 931 383 q 903 249 931 313 q 828 136 875 185 q 717 59 781 88 q 582 31 653 31 l 582 60 q 699 86 642 60 q 802 158 757 113 q 875 261 847 203 q 903 383 903 319 l 931 383 m 629 383 q 615 349 629 363 q 582 335 601 335 q 547 349 561 335 q 533 383 533 363 q 547 417 533 403 q 582 431 561 431 q 615 417 601 431 q 629 383 629 403 z "},"":{"ha":1015,"x_min":82,"x_max":982,"o":"m 714 33 l 714 63 l 868 63 l 868 203 l 897 203 l 897 33 l 714 33 m 925 765 l 733 765 l 733 288 l 254 765 l 254 0 l 925 0 l 925 765 m 197 -57 l 197 57 l 82 57 l 82 1019 l 561 540 l 561 938 l 868 938 l 868 824 l 982 824 l 982 -57 l 197 -57 m 450 1024 q 479 1042 464 1038 q 513 1047 494 1047 q 557 1040 536 1047 q 598 1025 578 1033 q 638 1010 618 1017 q 681 1003 658 1003 q 763 1019 721 1003 q 829 1065 806 1035 l 746 1132 q 722 1115 738 1121 q 690 1110 707 1110 q 646 1117 667 1110 q 605 1133 625 1124 q 563 1149 585 1142 q 515 1156 540 1156 q 444 1144 479 1156 q 381 1106 410 1132 l 450 1024 m 289 1163 q 364 1207 324 1193 q 447 1221 404 1221 q 510 1215 479 1221 q 571 1194 542 1208 q 619 1176 593 1176 q 662 1188 642 1176 q 697 1218 682 1199 l 793 1139 l 786 1131 l 864 1067 q 784 1001 832 1024 q 683 979 736 979 q 643 986 664 979 q 601 1001 622 993 q 558 1017 581 1010 q 514 1024 536 1024 q 442 994 471 1024 l 378 1072 l 371 1067 l 289 1163 z "},"":{"ha":1000,"x_min":3,"x_max":999,"o":"m 606 375 q 592 342 606 356 q 558 328 578 328 q 524 342 538 328 q 510 375 510 356 q 524 410 510 396 q 558 424 538 424 q 591 409 576 424 q 606 375 606 394 m 907 383 q 879 249 907 313 q 804 136 851 185 q 693 59 757 88 q 558 31 629 31 l 558 60 q 677 87 619 60 q 779 158 735 114 q 851 262 824 203 q 878 383 878 321 l 907 383 m 940 383 q 910 532 940 463 q 828 653 881 601 q 707 735 776 706 q 558 765 638 765 q 410 735 479 765 q 288 652 340 704 q 206 531 236 600 q 175 383 175 461 q 205 233 175 303 q 287 112 235 164 q 408 30 339 60 q 558 0 478 0 q 707 31 638 0 q 828 113 776 61 q 910 235 881 165 q 940 383 940 304 m 999 383 q 964 213 999 293 q 869 72 929 132 q 729 -22 810 13 q 558 -57 649 -57 q 351 -8 446 -57 q 194 133 257 42 q 53 290 103 196 q 3 497 3 385 q 38 667 3 588 q 133 808 72 747 q 273 903 193 868 q 443 938 353 938 q 650 888 556 938 q 807 747 744 839 q 949 590 899 685 q 999 383 999 496 m 447 1222 l 488 1163 l 507 1163 l 626 986 l 525 986 l 471 1046 l 465 1046 l 306 1222 l 447 1222 m 418 1138 l 533 1008 l 582 1008 l 494 1138 l 418 1138 z "},"":{"ha":1000,"x_min":3,"x_max":999,"o":"m 606 375 q 592 342 606 356 q 558 328 578 328 q 524 342 538 328 q 510 375 510 356 q 524 410 510 396 q 558 424 538 424 q 591 409 576 424 q 606 375 606 394 m 907 383 q 879 249 907 313 q 804 136 851 185 q 693 59 757 88 q 558 31 629 31 l 558 60 q 677 87 619 60 q 779 158 735 114 q 851 262 824 203 q 878 383 878 321 l 907 383 m 940 383 q 910 532 940 463 q 828 653 881 601 q 707 735 776 706 q 558 765 638 765 q 410 735 479 765 q 288 652 340 704 q 206 531 236 600 q 175 383 175 461 q 205 233 175 303 q 287 112 235 164 q 408 30 339 60 q 558 0 478 0 q 707 31 638 0 q 828 113 776 61 q 910 235 881 165 q 940 383 940 304 m 999 383 q 964 213 999 293 q 869 72 929 132 q 729 -22 810 13 q 558 -57 649 -57 q 351 -8 446 -57 q 194 133 257 42 q 53 290 103 196 q 3 497 3 385 q 38 667 3 588 q 133 808 72 747 q 273 903 193 868 q 443 938 353 938 q 650 888 556 938 q 807 747 744 839 q 949 590 899 685 q 999 383 999 496 m 611 1163 l 726 1163 l 567 986 l 465 986 l 506 1046 l 406 1046 l 525 1222 l 667 1222 l 611 1163 m 672 1138 l 594 1138 l 507 1008 l 556 1008 l 672 1138 z "},"":{"ha":1000,"x_min":3,"x_max":999,"o":"m 606 375 q 592 342 606 356 q 558 328 578 328 q 524 342 538 328 q 510 375 510 356 q 524 410 510 396 q 558 424 538 424 q 591 409 576 424 q 606 375 606 394 m 907 383 q 879 249 907 313 q 804 136 851 185 q 693 59 757 88 q 558 31 629 31 l 558 60 q 677 87 619 60 q 779 158 735 114 q 851 262 824 203 q 878 383 878 321 l 907 383 m 940 383 q 910 532 940 463 q 828 653 881 601 q 707 735 776 706 q 558 765 638 765 q 410 735 479 765 q 288 652 340 704 q 206 531 236 600 q 175 383 175 461 q 205 233 175 303 q 287 112 235 164 q 408 30 339 60 q 558 0 478 0 q 707 31 638 0 q 828 113 776 61 q 910 235 881 165 q 940 383 940 304 m 999 383 q 964 213 999 293 q 869 72 929 132 q 729 -22 810 13 q 558 -57 649 -57 q 351 -8 446 -57 q 194 133 257 42 q 53 290 103 196 q 3 497 3 385 q 38 667 3 588 q 133 808 72 747 q 273 903 193 868 q 443 938 353 938 q 650 888 556 938 q 807 747 744 839 q 949 590 899 685 q 999 383 999 496 m 510 1222 l 561 1151 l 569 1163 l 696 986 l 440 986 l 483 1046 l 381 1046 l 510 1222 m 486 1008 l 649 1008 l 568 1119 l 486 1008 z "},"":{"ha":1000,"x_min":3,"x_max":999,"o":"m 606 375 q 592 342 606 356 q 558 328 578 328 q 524 342 538 328 q 510 375 510 356 q 524 410 510 396 q 558 424 538 424 q 591 409 576 424 q 606 375 606 394 m 907 383 q 879 249 907 313 q 804 136 851 185 q 693 59 757 88 q 558 31 629 31 l 558 60 q 677 87 619 60 q 779 158 735 114 q 851 262 824 203 q 878 383 878 321 l 907 383 m 940 383 q 910 532 940 463 q 828 653 881 601 q 707 735 776 706 q 558 765 638 765 q 410 735 479 765 q 288 652 340 704 q 206 531 236 600 q 175 383 175 461 q 205 233 175 303 q 287 112 235 164 q 408 30 339 60 q 558 0 478 0 q 707 31 638 0 q 828 113 776 61 q 910 235 881 165 q 940 383 940 304 m 999 383 q 964 213 999 293 q 869 72 929 132 q 729 -22 810 13 q 558 -57 649 -57 q 351 -8 446 -57 q 194 133 257 42 q 53 290 103 196 q 3 497 3 385 q 38 667 3 588 q 133 808 72 747 q 273 903 193 868 q 443 938 353 938 q 650 888 556 938 q 807 747 744 839 q 949 590 899 685 q 999 383 999 496 m 403 1024 q 432 1042 417 1038 q 465 1047 447 1047 q 510 1040 489 1047 q 551 1025 531 1033 q 591 1010 571 1017 q 633 1003 611 1003 q 716 1019 674 1003 q 782 1065 758 1035 l 699 1132 q 675 1115 690 1121 q 643 1110 660 1110 q 599 1117 619 1110 q 558 1133 578 1124 q 515 1149 538 1142 q 468 1156 493 1156 q 397 1144 432 1156 q 333 1106 363 1132 l 403 1024 m 242 1163 q 317 1207 276 1193 q 400 1221 357 1221 q 463 1215 432 1221 q 524 1194 494 1208 q 572 1176 546 1176 q 615 1188 594 1176 q 650 1218 635 1199 l 746 1139 l 739 1131 l 817 1067 q 737 1001 785 1024 q 636 979 689 979 q 596 986 617 979 q 554 1001 575 993 q 511 1017 533 1010 q 467 1024 489 1024 q 394 994 424 1024 l 331 1072 l 324 1067 l 242 1163 z "},"":{"ha":1000,"x_min":3,"x_max":999,"o":"m 606 375 q 592 342 606 356 q 558 328 578 328 q 524 342 538 328 q 510 375 510 356 q 524 410 510 396 q 558 424 538 424 q 591 409 576 424 q 606 375 606 394 m 907 383 q 879 249 907 313 q 804 136 851 185 q 693 59 757 88 q 558 31 629 31 l 558 60 q 677 87 619 60 q 779 158 735 114 q 851 262 824 203 q 878 383 878 321 l 907 383 m 940 383 q 910 532 940 463 q 828 653 881 601 q 707 735 776 706 q 558 765 638 765 q 410 735 479 765 q 288 652 340 704 q 206 531 236 600 q 175 383 175 461 q 205 233 175 303 q 287 112 235 164 q 408 30 339 60 q 558 0 478 0 q 707 31 638 0 q 828 113 776 61 q 910 235 881 165 q 940 383 940 304 m 999 383 q 964 213 999 293 q 869 72 929 132 q 729 -22 810 13 q 558 -57 649 -57 q 351 -8 446 -57 q 194 133 257 42 q 53 290 103 196 q 3 497 3 385 q 38 667 3 588 q 133 808 72 747 q 273 903 193 868 q 443 938 353 938 q 650 888 556 938 q 807 747 744 839 q 949 590 899 685 q 999 383 999 496 m 606 1003 l 606 1063 l 546 1063 l 546 1190 l 676 1190 l 676 1131 l 736 1131 l 736 1003 l 606 1003 m 319 1190 l 446 1190 l 446 1131 l 506 1131 l 506 1003 l 379 1003 l 379 1063 l 319 1063 l 319 1190 m 711 1025 l 711 1106 l 629 1106 l 629 1025 l 711 1025 m 403 1025 l 481 1025 l 481 1106 l 403 1106 l 403 1025 z "},"":{"ha":1000,"x_min":1,"x_max":997,"o":"m 896 668 q 971 538 944 610 q 997 383 997 465 q 963 211 997 292 q 869 72 928 131 q 729 -22 810 13 q 557 -57 649 -57 q 450 -44 501 -57 l 443 -57 l 117 -57 l 188 57 l 1 57 l 101 218 q 28 347 53 276 q 3 497 3 418 q 38 667 3 588 q 133 808 72 747 q 273 903 193 868 q 443 938 353 938 q 544 926 492 938 l 551 938 l 878 938 l 807 824 l 993 824 l 896 668 m 699 765 l 685 743 q 557 765 621 765 q 410 735 479 765 q 288 652 340 704 q 206 531 236 600 q 175 383 175 461 q 206 232 175 301 q 289 110 236 163 l 221 0 l 411 0 l 425 22 q 557 0 486 0 q 706 30 636 0 q 828 112 776 60 q 910 233 881 164 q 940 383 940 303 q 909 535 940 465 q 824 658 878 606 l 890 765 l 699 765 m 892 282 q 841 183 875 229 q 763 103 807 138 q 665 50 718 69 q 557 31 611 31 l 557 60 q 651 81 601 60 q 742 136 700 103 q 817 208 785 169 q 860 282 849 247 l 892 282 m 393 24 l 278 24 l 278 56 l 378 56 l 806 735 l 835 735 l 393 24 z "},"":{"ha":869,"x_min":28,"x_max":832,"o":"m 735 288 q 715 192 735 239 q 662 110 696 146 q 583 52 628 74 q 488 31 538 31 l 488 60 q 569 81 531 60 q 639 135 608 101 q 688 208 669 168 q 706 288 706 249 l 735 288 m 774 765 l 200 765 l 200 288 q 222 176 200 229 q 283 85 244 124 q 374 23 321 46 q 488 0 426 0 q 599 23 547 0 q 690 85 651 46 q 751 176 729 124 q 774 288 774 229 l 774 765 m 832 288 q 805 154 832 217 q 731 44 778 92 q 622 -30 685 -3 q 488 -57 558 -57 q 315 -14 392 -57 q 193 108 238 29 q 71 231 114 151 q 28 401 28 310 l 28 938 l 717 938 l 717 824 l 832 824 l 832 288 m 401 1222 l 442 1163 l 461 1163 l 581 986 l 479 986 l 425 1046 l 419 1046 l 260 1222 l 401 1222 m 372 1138 l 488 1008 l 536 1008 l 449 1138 l 372 1138 z "},"":{"ha":869,"x_min":28,"x_max":832,"o":"m 735 288 q 715 192 735 239 q 662 110 696 146 q 583 52 628 74 q 488 31 538 31 l 488 60 q 569 81 531 60 q 639 135 608 101 q 688 208 669 168 q 706 288 706 249 l 735 288 m 774 765 l 200 765 l 200 288 q 222 176 200 229 q 283 85 244 124 q 374 23 321 46 q 488 0 426 0 q 599 23 547 0 q 690 85 651 46 q 751 176 729 124 q 774 288 774 229 l 774 765 m 832 288 q 805 154 832 217 q 731 44 778 92 q 622 -30 685 -3 q 488 -57 558 -57 q 315 -14 392 -57 q 193 108 238 29 q 71 231 114 151 q 28 401 28 310 l 28 938 l 717 938 l 717 824 l 832 824 l 832 288 m 556 1163 l 671 1163 l 511 986 l 410 986 l 450 1046 l 350 1046 l 469 1222 l 611 1222 l 556 1163 m 617 1138 l 539 1138 l 451 1008 l 500 1008 l 617 1138 z "},"":{"ha":869,"x_min":28,"x_max":832,"o":"m 735 288 q 715 192 735 239 q 662 110 696 146 q 583 52 628 74 q 488 31 538 31 l 488 60 q 569 81 531 60 q 639 135 608 101 q 688 208 669 168 q 706 288 706 249 l 735 288 m 774 765 l 200 765 l 200 288 q 222 176 200 229 q 283 85 244 124 q 374 23 321 46 q 488 0 426 0 q 599 23 547 0 q 690 85 651 46 q 751 176 729 124 q 774 288 774 229 l 774 765 m 832 288 q 805 154 832 217 q 731 44 778 92 q 622 -30 685 -3 q 488 -57 558 -57 q 315 -14 392 -57 q 193 108 238 29 q 71 231 114 151 q 28 401 28 310 l 28 938 l 717 938 l 717 824 l 832 824 l 832 288 m 442 1222 l 493 1151 l 501 1163 l 628 986 l 372 986 l 415 1046 l 313 1046 l 442 1222 m 418 1008 l 581 1008 l 500 1119 l 418 1008 z "},"":{"ha":869,"x_min":28,"x_max":832,"o":"m 735 288 q 715 192 735 239 q 662 110 696 146 q 583 52 628 74 q 488 31 538 31 l 488 60 q 569 81 531 60 q 639 135 608 101 q 688 208 669 168 q 706 288 706 249 l 735 288 m 774 765 l 200 765 l 200 288 q 222 176 200 229 q 283 85 244 124 q 374 23 321 46 q 488 0 426 0 q 599 23 547 0 q 690 85 651 46 q 751 176 729 124 q 774 288 774 229 l 774 765 m 832 288 q 805 154 832 217 q 731 44 778 92 q 622 -30 685 -3 q 488 -57 558 -57 q 315 -14 392 -57 q 193 108 238 29 q 71 231 114 151 q 28 401 28 310 l 28 938 l 717 938 l 717 824 l 832 824 l 832 288 m 544 1003 l 544 1063 l 485 1063 l 485 1190 l 615 1190 l 615 1131 l 675 1131 l 675 1003 l 544 1003 m 258 1190 l 385 1190 l 385 1131 l 444 1131 l 444 1003 l 318 1003 l 318 1063 l 258 1063 l 258 1190 m 650 1025 l 650 1106 l 568 1106 l 568 1025 l 650 1025 m 342 1025 l 419 1025 l 419 1106 l 342 1106 l 342 1025 z "},"":{"ha":761,"x_min":-62,"x_max":814,"o":"m 490 389 l 490 33 l 383 33 l 383 63 l 461 63 l 461 396 l 635 738 l 661 724 l 490 389 m 146 765 l 338 383 l 338 0 l 529 0 l 529 383 l 721 765 l 146 765 m 586 369 l 586 -57 l 281 -57 l 281 57 l 165 57 l 165 485 l -62 938 l 699 938 l 642 824 l 814 824 l 586 369 m 492 1163 l 607 1163 l 447 986 l 346 986 l 386 1046 l 286 1046 l 406 1222 l 547 1222 l 492 1163 m 553 1138 l 475 1138 l 388 1008 l 436 1008 l 553 1138 z "},"":{"ha":843,"x_min":14,"x_max":838,"o":"m 838 443 q 817 339 838 389 q 761 250 797 289 q 676 188 725 211 q 569 165 626 165 l 513 165 l 513 -57 l 129 -57 l 129 57 l 14 57 l 14 981 l 493 981 l 493 835 q 537 823 511 833 q 590 794 563 813 q 643 749 617 775 q 689 689 669 722 q 838 443 838 599 m 454 0 l 454 221 l 569 222 q 653 240 614 222 q 720 289 692 258 q 765 359 749 319 q 781 443 781 399 q 764 526 781 486 q 718 596 747 565 q 651 644 689 626 q 569 663 613 663 l 453 663 l 453 926 l 186 926 l 186 0 l 454 0 m 746 442 q 730 367 746 401 q 686 308 714 333 q 622 269 658 283 q 546 254 586 254 l 425 254 l 425 33 l 242 33 l 242 63 l 396 63 l 396 283 l 546 283 q 605 297 575 283 q 660 333 635 311 q 701 384 685 356 q 717 442 717 413 l 746 442 m 600 442 q 586 408 600 422 q 553 393 572 393 q 519 407 532 393 q 506 442 506 421 q 519 476 506 463 q 553 489 532 489 q 587 476 574 489 q 600 442 600 463 z "},"":{"ha":1533,"x_min":14,"x_max":1519,"o":"m 664 258 q 647 169 664 211 q 599 97 629 128 q 527 47 568 65 q 440 29 486 29 l 440 57 q 515 75 479 57 q 576 122 550 93 q 619 186 603 150 q 635 258 635 222 l 664 258 m 422 531 l 401 551 l 531 692 l 551 672 l 422 531 m 696 254 q 676 353 696 307 q 621 434 656 400 q 540 488 586 468 q 440 508 493 508 l 622 690 q 440 765 549 765 q 342 746 388 765 q 261 692 296 726 q 206 612 226 658 q 186 513 186 565 q 206 413 186 460 q 260 333 226 367 q 341 278 294 299 q 440 258 388 258 l 256 74 q 440 0 322 0 q 541 20 494 0 q 622 75 588 40 q 676 156 656 110 q 696 254 696 201 m 753 254 q 728 135 753 192 q 662 35 704 78 q 563 -32 619 -7 q 440 -57 506 -57 q 176 75 296 -57 l 192 90 q 63 190 121 124 l 194 322 q 171 357 182 336 q 56 472 99 400 q 14 626 14 543 q 39 749 14 692 q 106 847 64 806 q 205 913 149 889 q 325 938 261 938 q 589 806 457 938 l 574 790 q 704 690 635 760 l 574 558 q 596 524 585 543 q 712 410 671 482 q 753 254 753 339 m 1431 258 q 1413 169 1431 211 q 1365 97 1396 128 q 1294 47 1335 65 q 1207 29 1253 29 l 1207 57 q 1281 75 1246 57 q 1343 122 1317 93 q 1385 186 1369 150 q 1401 258 1401 222 l 1431 258 m 1189 531 l 1168 551 l 1297 692 l 1318 672 l 1189 531 m 1463 254 q 1442 353 1463 307 q 1388 434 1422 400 q 1306 488 1353 468 q 1207 508 1260 508 l 1389 690 q 1207 765 1315 765 q 1108 746 1154 765 q 1028 692 1063 726 q 973 612 993 658 q 953 513 953 565 q 973 413 953 460 q 1027 333 993 367 q 1108 278 1061 299 q 1207 258 1154 258 l 1022 74 q 1207 0 1089 0 q 1308 20 1261 0 q 1388 75 1354 40 q 1442 156 1422 110 q 1463 254 1463 201 m 1519 254 q 1495 135 1519 192 q 1428 35 1471 78 q 1329 -32 1386 -7 q 1207 -57 1272 -57 q 943 75 1063 -57 l 958 90 q 829 190 888 124 l 961 322 q 938 357 949 336 q 823 472 865 400 q 781 626 781 543 q 806 749 781 692 q 873 847 831 806 q 972 913 915 889 q 1092 938 1028 938 q 1356 806 1224 938 l 1340 790 q 1471 690 1401 760 l 1340 558 q 1363 524 1351 543 q 1478 410 1438 482 q 1519 254 1519 339 z "},"":{"ha":969,"x_min":-14,"x_max":1051,"o":"m 610 290 q 597 257 610 271 q 563 243 583 243 q 528 257 542 243 q 514 290 514 271 q 528 325 514 311 q 563 339 543 339 q 596 324 582 339 q 610 290 610 310 m 708 43 l 708 72 l 836 72 l 772 199 l 799 211 l 882 43 l 708 43 m 576 765 l 194 0 l 960 0 l 576 765 m 100 -57 l 158 57 l -14 57 l 463 1008 l 549 836 l 576 894 l 1051 -57 l 100 -57 m 465 1222 l 506 1163 l 525 1163 l 644 986 l 543 986 l 489 1046 l 483 1046 l 324 1222 l 465 1222 m 436 1138 l 551 1008 l 600 1008 l 513 1138 l 436 1138 z "},"":{"ha":969,"x_min":-14,"x_max":1051,"o":"m 610 290 q 597 257 610 271 q 563 243 583 243 q 528 257 542 243 q 514 290 514 271 q 528 325 514 311 q 563 339 543 339 q 596 324 582 339 q 610 290 610 310 m 708 43 l 708 72 l 836 72 l 772 199 l 799 211 l 882 43 l 708 43 m 576 765 l 194 0 l 960 0 l 576 765 m 100 -57 l 158 57 l -14 57 l 463 1008 l 549 836 l 576 894 l 1051 -57 l 100 -57 m 625 1163 l 740 1163 l 581 986 l 479 986 l 519 1046 l 419 1046 l 539 1222 l 681 1222 l 625 1163 m 686 1138 l 608 1138 l 521 1008 l 569 1008 l 686 1138 z "},"":{"ha":969,"x_min":-14,"x_max":1051,"o":"m 610 290 q 597 257 610 271 q 563 243 583 243 q 528 257 542 243 q 514 290 514 271 q 528 325 514 311 q 563 339 543 339 q 596 324 582 339 q 610 290 610 310 m 708 43 l 708 72 l 836 72 l 772 199 l 799 211 l 882 43 l 708 43 m 576 765 l 194 0 l 960 0 l 576 765 m 497 1008 l 660 1008 l 579 1119 l 497 1008 m 521 1222 l 572 1151 l 581 1163 l 707 986 l 474 986 l 549 836 l 576 894 l 1051 -57 l 100 -57 l 158 57 l -14 57 l 451 986 l 494 1046 l 392 1046 l 521 1222 z "},"":{"ha":969,"x_min":-14,"x_max":1051,"o":"m 610 290 q 597 257 610 271 q 563 243 583 243 q 528 257 542 243 q 514 290 514 271 q 528 325 514 311 q 563 339 543 339 q 596 324 582 339 q 610 290 610 310 m 708 43 l 708 72 l 836 72 l 772 199 l 799 211 l 882 43 l 708 43 m 576 765 l 194 0 l 960 0 l 576 765 m 100 -57 l 158 57 l -14 57 l 463 1008 l 549 836 l 576 894 l 1051 -57 l 100 -57 m 414 1024 q 443 1042 428 1038 q 476 1047 458 1047 q 521 1040 500 1047 q 562 1025 542 1033 q 602 1010 582 1017 q 644 1003 622 1003 q 727 1019 685 1003 q 793 1065 769 1035 l 710 1132 q 686 1115 701 1121 q 654 1110 671 1110 q 610 1117 631 1110 q 569 1133 589 1124 q 526 1149 549 1142 q 479 1156 504 1156 q 408 1144 443 1156 q 344 1106 374 1132 l 414 1024 m 253 1163 q 328 1207 288 1193 q 411 1221 368 1221 q 474 1215 443 1221 q 535 1194 506 1208 q 583 1176 557 1176 q 626 1188 606 1176 q 661 1218 646 1199 l 757 1139 l 750 1131 l 828 1067 q 748 1001 796 1024 q 647 979 700 979 q 607 986 628 979 q 565 1001 586 993 q 522 1017 544 1010 q 478 1024 500 1024 q 406 994 435 1024 l 342 1072 l 335 1067 l 253 1163 z "},"":{"ha":969,"x_min":-14,"x_max":1051,"o":"m 339 1190 l 465 1190 l 465 1131 l 525 1131 l 525 1003 l 465 1003 l 549 836 l 576 894 l 1051 -57 l 100 -57 l 158 57 l -14 57 l 460 1003 l 399 1003 l 399 1063 l 339 1063 l 339 1190 m 576 765 l 194 0 l 960 0 l 576 765 m 625 1003 l 625 1063 l 565 1063 l 565 1190 l 696 1190 l 696 1131 l 756 1131 l 756 1003 l 625 1003 m 708 43 l 708 72 l 836 72 l 772 199 l 799 211 l 882 43 l 708 43 m 610 290 q 597 257 610 271 q 563 243 583 243 q 528 257 542 243 q 514 290 514 271 q 528 325 514 311 q 563 339 543 339 q 596 324 582 339 q 610 290 610 310 m 731 1025 l 731 1106 l 649 1106 l 649 1025 l 731 1025 m 422 1025 l 500 1025 l 500 1106 l 422 1106 l 422 1025 z "},"":{"ha":969,"x_min":-14,"x_max":1051,"o":"m 610 290 q 597 257 610 271 q 563 243 583 243 q 528 257 542 243 q 514 290 514 271 q 528 325 514 311 q 563 339 543 339 q 596 324 582 339 q 610 290 610 310 m 708 43 l 708 72 l 836 72 l 772 199 l 799 211 l 882 43 l 708 43 m 576 765 l 194 0 l 960 0 l 576 765 m 100 -57 l 158 57 l -14 57 l 463 1008 l 549 836 l 576 894 l 1051 -57 l 100 -57 m 403 1144 q 434 1224 403 1192 q 513 1256 465 1256 q 574 1237 547 1256 q 614 1188 601 1218 q 664 1147 646 1174 q 682 1085 682 1119 q 651 1007 682 1039 q 572 975 619 975 q 510 994 538 975 q 469 1042 482 1013 q 421 1083 439 1056 q 403 1144 403 1110 m 485 1083 q 510 1023 485 1049 q 571 997 535 997 q 632 1023 607 997 q 657 1083 657 1049 q 632 1144 657 1119 q 571 1169 607 1169 q 510 1144 535 1169 q 485 1083 485 1119 m 542 1083 q 572 1114 542 1114 q 593 1106 585 1114 q 601 1083 601 1097 q 593 1063 601 1071 q 572 1054 585 1054 q 550 1063 558 1054 q 542 1083 542 1071 z "},"":{"ha":1381,"x_min":-14,"x_max":1356,"o":"m 158 57 l -14 57 l 463 1008 l 549 836 l 576 894 l 647 753 l 647 938 l 1240 938 l 1240 824 l 1356 824 l 1356 421 l 1240 421 l 1240 344 l 1356 344 l 1356 -57 l 100 -57 l 158 57 m 1046 288 l 1046 324 l 1165 324 l 1165 443 l 1046 443 l 1046 479 l 1299 479 l 1299 765 l 819 765 l 819 407 l 1024 0 l 1299 0 l 1299 288 l 1046 288 m 194 0 l 960 0 l 576 765 l 194 0 m 1083 539 l 1238 539 l 1238 678 l 1265 678 l 1265 510 l 1083 510 l 1083 539 m 1083 63 l 1238 63 l 1238 203 l 1265 203 l 1265 33 l 1083 33 l 1083 63 m 708 72 l 836 72 l 772 199 l 799 211 l 882 43 l 708 43 l 708 72 m 610 290 q 597 257 610 271 q 563 243 583 243 q 528 257 542 243 q 514 290 514 271 q 528 325 514 311 q 563 339 543 339 q 596 324 582 339 q 610 290 610 310 z "},"":{"ha":996,"x_min":3,"x_max":979,"o":"m 847 193 q 805 146 822 164 q 774 116 788 128 q 747 96 760 104 q 718 75 735 88 l 703 100 q 750 136 726 115 q 799 183 774 157 l 519 331 l 532 357 l 847 193 m 901 554 q 761 710 853 654 q 558 765 669 765 q 410 735 479 765 q 288 652 340 704 q 206 531 236 600 q 176 383 176 461 q 206 234 176 304 q 288 112 236 164 q 409 30 339 60 q 558 0 479 0 q 666 16 614 0 q 763 60 718 32 q 842 126 807 88 q 901 211 878 165 l 558 383 l 901 554 m 681 -240 q 682 -251 682 -243 q 676 -276 682 -262 q 660 -300 669 -289 q 640 -319 651 -311 q 615 -328 628 -328 l 615 -303 q 653 -240 653 -293 l 681 -240 m 708 -237 q 672 -148 708 -185 q 585 -111 636 -111 q 495 -148 532 -111 q 458 -237 458 -185 l 585 -237 l 585 -361 q 672 -325 636 -361 q 708 -237 708 -289 m 758 -237 q 696 -365 758 -318 q 533 -411 633 -411 l 533 -297 q 435 -312 485 -312 l 435 -286 l 408 -286 q 424 -186 408 -236 l 308 -186 q 369 -14 308 -72 q 272 47 317 10 q 194 133 228 85 q 53 290 103 196 q 3 497 3 385 q 38 668 3 588 q 134 808 74 749 q 274 903 194 868 q 444 938 354 938 q 801 747 661 938 q 979 529 911 671 l 744 411 l 863 351 q 851 329 857 340 q 839 307 844 318 l 978 238 q 636 -50 850 -12 q 642 -60 639 -56 q 647 -72 644 -65 q 728 -137 699 -93 q 758 -237 758 -182 z "},"":{"ha":893,"x_min":44,"x_max":849,"o":"m 576 33 l 576 63 l 729 63 l 729 203 l 758 203 l 758 33 l 576 33 m 576 510 l 576 539 l 729 539 l 729 678 l 758 678 l 758 510 l 576 510 m 790 288 l 539 288 l 539 324 l 658 324 l 658 443 l 539 443 l 539 479 l 790 479 l 790 765 l 217 765 l 217 0 l 790 0 l 790 288 m 160 -57 l 160 57 l 44 57 l 44 938 l 733 938 l 733 824 l 849 824 l 849 421 l 733 421 l 733 344 l 849 344 l 849 -57 l 160 -57 m 401 1222 l 442 1163 l 461 1163 l 581 986 l 479 986 l 425 1046 l 419 1046 l 260 1222 l 401 1222 m 372 1138 l 488 1008 l 536 1008 l 449 1138 l 372 1138 z "},"":{"ha":893,"x_min":44,"x_max":849,"o":"m 576 33 l 576 63 l 729 63 l 729 203 l 758 203 l 758 33 l 576 33 m 576 510 l 576 539 l 729 539 l 729 678 l 758 678 l 758 510 l 576 510 m 790 288 l 539 288 l 539 324 l 658 324 l 658 443 l 539 443 l 539 479 l 790 479 l 790 765 l 217 765 l 217 0 l 790 0 l 790 288 m 160 -57 l 160 57 l 44 57 l 44 938 l 733 938 l 733 824 l 849 824 l 849 421 l 733 421 l 733 344 l 849 344 l 849 -57 l 160 -57 m 567 1163 l 682 1163 l 522 986 l 421 986 l 461 1046 l 361 1046 l 481 1222 l 622 1222 l 567 1163 m 628 1138 l 550 1138 l 463 1008 l 511 1008 l 628 1138 z "},"":{"ha":893,"x_min":44,"x_max":849,"o":"m 576 33 l 576 63 l 729 63 l 729 203 l 758 203 l 758 33 l 576 33 m 576 510 l 576 539 l 729 539 l 729 678 l 758 678 l 758 510 l 576 510 m 790 288 l 539 288 l 539 324 l 658 324 l 658 443 l 539 443 l 539 479 l 790 479 l 790 765 l 217 765 l 217 0 l 790 0 l 790 288 m 160 -57 l 160 57 l 44 57 l 44 938 l 733 938 l 733 824 l 849 824 l 849 421 l 733 421 l 733 344 l 849 344 l 849 -57 l 160 -57 m 450 1222 l 501 1151 l 510 1163 l 636 986 l 381 986 l 424 1046 l 321 1046 l 450 1222 m 426 1008 l 589 1008 l 508 1119 l 426 1008 z "},"":{"ha":893,"x_min":44,"x_max":849,"o":"m 576 33 l 576 63 l 729 63 l 729 203 l 758 203 l 758 33 l 576 33 m 576 510 l 576 539 l 729 539 l 729 678 l 758 678 l 758 510 l 576 510 m 790 288 l 539 288 l 539 324 l 658 324 l 658 443 l 539 443 l 539 479 l 790 479 l 790 765 l 217 765 l 217 0 l 790 0 l 790 288 m 160 -57 l 160 57 l 44 57 l 44 938 l 733 938 l 733 824 l 849 824 l 849 421 l 733 421 l 733 344 l 849 344 l 849 -57 l 160 -57 m 556 1003 l 556 1063 l 496 1063 l 496 1190 l 626 1190 l 626 1131 l 686 1131 l 686 1003 l 556 1003 m 269 1190 l 396 1190 l 396 1131 l 456 1131 l 456 1003 l 329 1003 l 329 1063 l 269 1063 l 269 1190 m 661 1025 l 661 1106 l 579 1106 l 579 1025 l 661 1025 m 353 1025 l 431 1025 l 431 1106 l 353 1106 l 353 1025 z "},"":{"ha":608,"x_min":46,"x_max":563,"o":"m 290 33 l 290 63 l 444 63 l 444 203 l 472 203 l 472 33 l 290 33 m 506 765 l 218 765 l 218 0 l 506 0 l 506 765 m 160 -57 l 160 57 l 46 57 l 46 938 l 447 938 l 447 824 l 563 824 l 563 -57 l 160 -57 m 253 1222 l 293 1163 l 313 1163 l 432 986 l 331 986 l 276 1046 l 271 1046 l 111 1222 l 253 1222 m 224 1138 l 339 1008 l 388 1008 l 300 1138 l 224 1138 z "},"":{"ha":608,"x_min":46,"x_max":563,"o":"m 290 33 l 290 63 l 444 63 l 444 203 l 472 203 l 472 33 l 290 33 m 506 765 l 218 765 l 218 0 l 506 0 l 506 765 m 160 -57 l 160 57 l 46 57 l 46 938 l 447 938 l 447 824 l 563 824 l 563 -57 l 160 -57 m 444 1163 l 560 1163 l 400 986 l 299 986 l 339 1046 l 239 1046 l 358 1222 l 500 1222 l 444 1163 m 506 1138 l 428 1138 l 340 1008 l 389 1008 l 506 1138 z "},"":{"ha":608,"x_min":46,"x_max":563,"o":"m 290 33 l 290 63 l 444 63 l 444 203 l 472 203 l 472 33 l 290 33 m 506 765 l 218 765 l 218 0 l 506 0 l 506 765 m 160 -57 l 160 57 l 46 57 l 46 938 l 447 938 l 447 824 l 563 824 l 563 -57 l 160 -57 m 321 1222 l 372 1151 l 381 1163 l 507 986 l 251 986 l 294 1046 l 192 1046 l 321 1222 m 297 1008 l 460 1008 l 379 1119 l 297 1008 z "},"":{"ha":608,"x_min":46,"x_max":563,"o":"m 290 33 l 290 63 l 444 63 l 444 203 l 472 203 l 472 33 l 290 33 m 506 765 l 218 765 l 218 0 l 506 0 l 506 765 m 160 -57 l 160 57 l 46 57 l 46 938 l 447 938 l 447 824 l 563 824 l 563 -57 l 160 -57 m 408 1003 l 408 1063 l 349 1063 l 349 1190 l 479 1190 l 479 1131 l 539 1131 l 539 1003 l 408 1003 m 122 1190 l 249 1190 l 249 1131 l 308 1131 l 308 1003 l 182 1003 l 182 1063 l 122 1063 l 122 1190 m 514 1025 l 514 1106 l 432 1106 l 432 1025 l 514 1025 m 206 1025 l 283 1025 l 283 1106 l 206 1106 l 206 1025 z "},"":{"ha":988,"x_min":-87,"x_max":1022,"o":"m 1022 383 q 988 213 1022 293 q 893 72 953 132 q 753 -22 833 13 q 582 -57 672 -57 l 142 -57 l 142 57 l 26 57 l 26 383 l -87 383 l -87 553 l 26 553 l 26 938 l 467 938 q 674 888 579 938 q 831 747 768 839 q 972 590 922 685 q 1022 383 1022 496 m 199 308 l 199 0 l 582 0 q 731 31 661 0 q 852 113 800 61 q 934 235 904 165 q 964 383 964 304 q 934 532 964 463 q 852 653 904 601 q 731 735 800 706 q 582 765 661 765 l 199 765 l 199 443 l 79 443 l 79 308 l 199 308 m 931 383 q 903 249 931 313 q 828 136 875 185 q 717 59 781 88 q 582 31 653 31 l 582 60 q 699 86 642 60 q 802 158 757 113 q 875 261 847 203 q 903 383 903 319 l 931 383 m 629 383 q 615 349 629 363 q 582 335 601 335 q 547 349 561 335 q 533 383 533 363 q 547 417 533 403 q 582 431 561 431 q 615 417 601 431 q 629 383 629 403 z "},"":{"ha":1015,"x_min":82,"x_max":982,"o":"m 714 33 l 714 63 l 868 63 l 868 203 l 897 203 l 897 33 l 714 33 m 925 765 l 733 765 l 733 288 l 254 765 l 254 0 l 925 0 l 925 765 m 197 -57 l 197 57 l 82 57 l 82 1019 l 561 540 l 561 938 l 868 938 l 868 824 l 982 824 l 982 -57 l 197 -57 m 450 1024 q 479 1042 464 1038 q 513 1047 494 1047 q 557 1040 536 1047 q 598 1025 578 1033 q 638 1010 618 1017 q 681 1003 658 1003 q 763 1019 721 1003 q 829 1065 806 1035 l 746 1132 q 722 1115 738 1121 q 690 1110 707 1110 q 646 1117 667 1110 q 605 1133 625 1124 q 563 1149 585 1142 q 515 1156 540 1156 q 444 1144 479 1156 q 381 1106 410 1132 l 450 1024 m 289 1163 q 364 1207 324 1193 q 447 1221 404 1221 q 510 1215 479 1221 q 571 1194 542 1208 q 619 1176 593 1176 q 662 1188 642 1176 q 697 1218 682 1199 l 793 1139 l 786 1131 l 864 1067 q 784 1001 832 1024 q 683 979 736 979 q 643 986 664 979 q 601 1001 622 993 q 558 1017 581 1010 q 514 1024 536 1024 q 442 994 471 1024 l 378 1072 l 371 1067 l 289 1163 z "},"":{"ha":1000,"x_min":3,"x_max":999,"o":"m 606 375 q 592 342 606 356 q 558 328 578 328 q 524 342 538 328 q 510 375 510 356 q 524 410 510 396 q 558 424 538 424 q 591 409 576 424 q 606 375 606 394 m 907 383 q 879 249 907 313 q 804 136 851 185 q 693 59 757 88 q 558 31 629 31 l 558 60 q 677 87 619 60 q 779 158 735 114 q 851 262 824 203 q 878 383 878 321 l 907 383 m 940 383 q 910 532 940 463 q 828 653 881 601 q 707 735 776 706 q 558 765 638 765 q 410 735 479 765 q 288 652 340 704 q 206 531 236 600 q 175 383 175 461 q 205 233 175 303 q 287 112 235 164 q 408 30 339 60 q 558 0 478 0 q 707 31 638 0 q 828 113 776 61 q 910 235 881 165 q 940 383 940 304 m 999 383 q 964 213 999 293 q 869 72 929 132 q 729 -22 810 13 q 558 -57 649 -57 q 351 -8 446 -57 q 194 133 257 42 q 53 290 103 196 q 3 497 3 385 q 38 667 3 588 q 133 808 72 747 q 273 903 193 868 q 443 938 353 938 q 650 888 556 938 q 807 747 744 839 q 949 590 899 685 q 999 383 999 496 m 447 1222 l 488 1163 l 507 1163 l 626 986 l 525 986 l 471 1046 l 465 1046 l 306 1222 l 447 1222 m 418 1138 l 533 1008 l 582 1008 l 494 1138 l 418 1138 z "},"":{"ha":1000,"x_min":3,"x_max":999,"o":"m 606 375 q 592 342 606 356 q 558 328 578 328 q 524 342 538 328 q 510 375 510 356 q 524 410 510 396 q 558 424 538 424 q 591 409 576 424 q 606 375 606 394 m 907 383 q 879 249 907 313 q 804 136 851 185 q 693 59 757 88 q 558 31 629 31 l 558 60 q 677 87 619 60 q 779 158 735 114 q 851 262 824 203 q 878 383 878 321 l 907 383 m 940 383 q 910 532 940 463 q 828 653 881 601 q 707 735 776 706 q 558 765 638 765 q 410 735 479 765 q 288 652 340 704 q 206 531 236 600 q 175 383 175 461 q 205 233 175 303 q 287 112 235 164 q 408 30 339 60 q 558 0 478 0 q 707 31 638 0 q 828 113 776 61 q 910 235 881 165 q 940 383 940 304 m 999 383 q 964 213 999 293 q 869 72 929 132 q 729 -22 810 13 q 558 -57 649 -57 q 351 -8 446 -57 q 194 133 257 42 q 53 290 103 196 q 3 497 3 385 q 38 667 3 588 q 133 808 72 747 q 273 903 193 868 q 443 938 353 938 q 650 888 556 938 q 807 747 744 839 q 949 590 899 685 q 999 383 999 496 m 611 1163 l 726 1163 l 567 986 l 465 986 l 506 1046 l 406 1046 l 525 1222 l 667 1222 l 611 1163 m 672 1138 l 594 1138 l 507 1008 l 556 1008 l 672 1138 z "},"":{"ha":1000,"x_min":3,"x_max":999,"o":"m 606 375 q 592 342 606 356 q 558 328 578 328 q 524 342 538 328 q 510 375 510 356 q 524 410 510 396 q 558 424 538 424 q 591 409 576 424 q 606 375 606 394 m 907 383 q 879 249 907 313 q 804 136 851 185 q 693 59 757 88 q 558 31 629 31 l 558 60 q 677 87 619 60 q 779 158 735 114 q 851 262 824 203 q 878 383 878 321 l 907 383 m 940 383 q 910 532 940 463 q 828 653 881 601 q 707 735 776 706 q 558 765 638 765 q 410 735 479 765 q 288 652 340 704 q 206 531 236 600 q 175 383 175 461 q 205 233 175 303 q 287 112 235 164 q 408 30 339 60 q 558 0 478 0 q 707 31 638 0 q 828 113 776 61 q 910 235 881 165 q 940 383 940 304 m 999 383 q 964 213 999 293 q 869 72 929 132 q 729 -22 810 13 q 558 -57 649 -57 q 351 -8 446 -57 q 194 133 257 42 q 53 290 103 196 q 3 497 3 385 q 38 667 3 588 q 133 808 72 747 q 273 903 193 868 q 443 938 353 938 q 650 888 556 938 q 807 747 744 839 q 949 590 899 685 q 999 383 999 496 m 510 1222 l 561 1151 l 569 1163 l 696 986 l 440 986 l 483 1046 l 381 1046 l 510 1222 m 486 1008 l 649 1008 l 568 1119 l 486 1008 z "},"":{"ha":1000,"x_min":3,"x_max":999,"o":"m 606 375 q 592 342 606 356 q 558 328 578 328 q 524 342 538 328 q 510 375 510 356 q 524 410 510 396 q 558 424 538 424 q 591 409 576 424 q 606 375 606 394 m 907 383 q 879 249 907 313 q 804 136 851 185 q 693 59 757 88 q 558 31 629 31 l 558 60 q 677 87 619 60 q 779 158 735 114 q 851 262 824 203 q 878 383 878 321 l 907 383 m 940 383 q 910 532 940 463 q 828 653 881 601 q 707 735 776 706 q 558 765 638 765 q 410 735 479 765 q 288 652 340 704 q 206 531 236 600 q 175 383 175 461 q 205 233 175 303 q 287 112 235 164 q 408 30 339 60 q 558 0 478 0 q 707 31 638 0 q 828 113 776 61 q 910 235 881 165 q 940 383 940 304 m 999 383 q 964 213 999 293 q 869 72 929 132 q 729 -22 810 13 q 558 -57 649 -57 q 351 -8 446 -57 q 194 133 257 42 q 53 290 103 196 q 3 497 3 385 q 38 667 3 588 q 133 808 72 747 q 273 903 193 868 q 443 938 353 938 q 650 888 556 938 q 807 747 744 839 q 949 590 899 685 q 999 383 999 496 m 403 1024 q 432 1042 417 1038 q 465 1047 447 1047 q 510 1040 489 1047 q 551 1025 531 1033 q 591 1010 571 1017 q 633 1003 611 1003 q 716 1019 674 1003 q 782 1065 758 1035 l 699 1132 q 675 1115 690 1121 q 643 1110 660 1110 q 599 1117 619 1110 q 558 1133 578 1124 q 515 1149 538 1142 q 468 1156 493 1156 q 397 1144 432 1156 q 333 1106 363 1132 l 403 1024 m 242 1163 q 317 1207 276 1193 q 400 1221 357 1221 q 463 1215 432 1221 q 524 1194 494 1208 q 572 1176 546 1176 q 615 1188 594 1176 q 650 1218 635 1199 l 746 1139 l 739 1131 l 817 1067 q 737 1001 785 1024 q 636 979 689 979 q 596 986 617 979 q 554 1001 575 993 q 511 1017 533 1010 q 467 1024 489 1024 q 394 994 424 1024 l 331 1072 l 324 1067 l 242 1163 z "},"":{"ha":1000,"x_min":3,"x_max":999,"o":"m 606 375 q 592 342 606 356 q 558 328 578 328 q 524 342 538 328 q 510 375 510 356 q 524 410 510 396 q 558 424 538 424 q 591 409 576 424 q 606 375 606 394 m 907 383 q 879 249 907 313 q 804 136 851 185 q 693 59 757 88 q 558 31 629 31 l 558 60 q 677 87 619 60 q 779 158 735 114 q 851 262 824 203 q 878 383 878 321 l 907 383 m 940 383 q 910 532 940 463 q 828 653 881 601 q 707 735 776 706 q 558 765 638 765 q 410 735 479 765 q 288 652 340 704 q 206 531 236 600 q 175 383 175 461 q 205 233 175 303 q 287 112 235 164 q 408 30 339 60 q 558 0 478 0 q 707 31 638 0 q 828 113 776 61 q 910 235 881 165 q 940 383 940 304 m 999 383 q 964 213 999 293 q 869 72 929 132 q 729 -22 810 13 q 558 -57 649 -57 q 351 -8 446 -57 q 194 133 257 42 q 53 290 103 196 q 3 497 3 385 q 38 667 3 588 q 133 808 72 747 q 273 903 193 868 q 443 938 353 938 q 650 888 556 938 q 807 747 744 839 q 949 590 899 685 q 999 383 999 496 m 606 1003 l 606 1063 l 546 1063 l 546 1190 l 676 1190 l 676 1131 l 736 1131 l 736 1003 l 606 1003 m 319 1190 l 446 1190 l 446 1131 l 506 1131 l 506 1003 l 379 1003 l 379 1063 l 319 1063 l 319 1190 m 711 1025 l 711 1106 l 629 1106 l 629 1025 l 711 1025 m 403 1025 l 481 1025 l 481 1106 l 403 1106 l 403 1025 z "},"":{"ha":1000,"x_min":1,"x_max":997,"o":"m 896 668 q 971 538 944 610 q 997 383 997 465 q 963 211 997 292 q 869 72 928 131 q 729 -22 810 13 q 557 -57 649 -57 q 450 -44 501 -57 l 443 -57 l 117 -57 l 188 57 l 1 57 l 101 218 q 28 347 53 276 q 3 497 3 418 q 38 667 3 588 q 133 808 72 747 q 273 903 193 868 q 443 938 353 938 q 544 926 492 938 l 551 938 l 878 938 l 807 824 l 993 824 l 896 668 m 699 765 l 685 743 q 557 765 621 765 q 410 735 479 765 q 288 652 340 704 q 206 531 236 600 q 175 383 175 461 q 206 232 175 301 q 289 110 236 163 l 221 0 l 411 0 l 425 22 q 557 0 486 0 q 706 30 636 0 q 828 112 776 60 q 910 233 881 164 q 940 383 940 303 q 909 535 940 465 q 824 658 878 606 l 890 765 l 699 765 m 892 282 q 841 183 875 229 q 763 103 807 138 q 665 50 718 69 q 557 31 611 31 l 557 60 q 651 81 601 60 q 742 136 700 103 q 817 208 785 169 q 860 282 849 247 l 892 282 m 393 24 l 278 24 l 278 56 l 378 56 l 806 735 l 835 735 l 393 24 z "},"":{"ha":869,"x_min":28,"x_max":832,"o":"m 735 288 q 715 192 735 239 q 662 110 696 146 q 583 52 628 74 q 488 31 538 31 l 488 60 q 569 81 531 60 q 639 135 608 101 q 688 208 669 168 q 706 288 706 249 l 735 288 m 774 765 l 200 765 l 200 288 q 222 176 200 229 q 283 85 244 124 q 374 23 321 46 q 488 0 426 0 q 599 23 547 0 q 690 85 651 46 q 751 176 729 124 q 774 288 774 229 l 774 765 m 832 288 q 805 154 832 217 q 731 44 778 92 q 622 -30 685 -3 q 488 -57 558 -57 q 315 -14 392 -57 q 193 108 238 29 q 71 231 114 151 q 28 401 28 310 l 28 938 l 717 938 l 717 824 l 832 824 l 832 288 m 401 1222 l 442 1163 l 461 1163 l 581 986 l 479 986 l 425 1046 l 419 1046 l 260 1222 l 401 1222 m 372 1138 l 488 1008 l 536 1008 l 449 1138 l 372 1138 z "},"":{"ha":869,"x_min":28,"x_max":832,"o":"m 735 288 q 715 192 735 239 q 662 110 696 146 q 583 52 628 74 q 488 31 538 31 l 488 60 q 569 81 531 60 q 639 135 608 101 q 688 208 669 168 q 706 288 706 249 l 735 288 m 774 765 l 200 765 l 200 288 q 222 176 200 229 q 283 85 244 124 q 374 23 321 46 q 488 0 426 0 q 599 23 547 0 q 690 85 651 46 q 751 176 729 124 q 774 288 774 229 l 774 765 m 832 288 q 805 154 832 217 q 731 44 778 92 q 622 -30 685 -3 q 488 -57 558 -57 q 315 -14 392 -57 q 193 108 238 29 q 71 231 114 151 q 28 401 28 310 l 28 938 l 717 938 l 717 824 l 832 824 l 832 288 m 556 1163 l 671 1163 l 511 986 l 410 986 l 450 1046 l 350 1046 l 469 1222 l 611 1222 l 556 1163 m 617 1138 l 539 1138 l 451 1008 l 500 1008 l 617 1138 z "},"":{"ha":869,"x_min":28,"x_max":832,"o":"m 735 288 q 715 192 735 239 q 662 110 696 146 q 583 52 628 74 q 488 31 538 31 l 488 60 q 569 81 531 60 q 639 135 608 101 q 688 208 669 168 q 706 288 706 249 l 735 288 m 774 765 l 200 765 l 200 288 q 222 176 200 229 q 283 85 244 124 q 374 23 321 46 q 488 0 426 0 q 599 23 547 0 q 690 85 651 46 q 751 176 729 124 q 774 288 774 229 l 774 765 m 832 288 q 805 154 832 217 q 731 44 778 92 q 622 -30 685 -3 q 488 -57 558 -57 q 315 -14 392 -57 q 193 108 238 29 q 71 231 114 151 q 28 401 28 310 l 28 938 l 717 938 l 717 824 l 832 824 l 832 288 m 442 1222 l 493 1151 l 501 1163 l 628 986 l 372 986 l 415 1046 l 313 1046 l 442 1222 m 418 1008 l 581 1008 l 500 1119 l 418 1008 z "},"":{"ha":869,"x_min":28,"x_max":832,"o":"m 735 288 q 715 192 735 239 q 662 110 696 146 q 583 52 628 74 q 488 31 538 31 l 488 60 q 569 81 531 60 q 639 135 608 101 q 688 208 669 168 q 706 288 706 249 l 735 288 m 774 765 l 200 765 l 200 288 q 222 176 200 229 q 283 85 244 124 q 374 23 321 46 q 488 0 426 0 q 599 23 547 0 q 690 85 651 46 q 751 176 729 124 q 774 288 774 229 l 774 765 m 832 288 q 805 154 832 217 q 731 44 778 92 q 622 -30 685 -3 q 488 -57 558 -57 q 315 -14 392 -57 q 193 108 238 29 q 71 231 114 151 q 28 401 28 310 l 28 938 l 717 938 l 717 824 l 832 824 l 832 288 m 544 1003 l 544 1063 l 485 1063 l 485 1190 l 615 1190 l 615 1131 l 675 1131 l 675 1003 l 544 1003 m 258 1190 l 385 1190 l 385 1131 l 444 1131 l 444 1003 l 318 1003 l 318 1063 l 258 1063 l 258 1190 m 650 1025 l 650 1106 l 568 1106 l 568 1025 l 650 1025 m 342 1025 l 419 1025 l 419 1106 l 342 1106 l 342 1025 z "},"":{"ha":761,"x_min":-62,"x_max":814,"o":"m 490 389 l 490 33 l 383 33 l 383 63 l 461 63 l 461 396 l 635 738 l 661 724 l 490 389 m 146 765 l 338 383 l 338 0 l 529 0 l 529 383 l 721 765 l 146 765 m 586 369 l 586 -57 l 281 -57 l 281 57 l 165 57 l 165 485 l -62 938 l 699 938 l 642 824 l 814 824 l 586 369 m 492 1163 l 607 1163 l 447 986 l 346 986 l 386 1046 l 286 1046 l 406 1222 l 547 1222 l 492 1163 m 553 1138 l 475 1138 l 388 1008 l 436 1008 l 553 1138 z "},"":{"ha":843,"x_min":14,"x_max":838,"o":"m 838 443 q 817 339 838 389 q 761 250 797 289 q 676 188 725 211 q 569 165 626 165 l 513 165 l 513 -57 l 129 -57 l 129 57 l 14 57 l 14 981 l 493 981 l 493 835 q 537 823 511 833 q 590 794 563 813 q 643 749 617 775 q 689 689 669 722 q 838 443 838 599 m 454 0 l 454 221 l 569 222 q 653 240 614 222 q 720 289 692 258 q 765 359 749 319 q 781 443 781 399 q 764 526 781 486 q 718 596 747 565 q 651 644 689 626 q 569 663 613 663 l 453 663 l 453 926 l 186 926 l 186 0 l 454 0 m 746 442 q 730 367 746 401 q 686 308 714 333 q 622 269 658 283 q 546 254 586 254 l 425 254 l 425 33 l 242 33 l 242 63 l 396 63 l 396 283 l 546 283 q 605 297 575 283 q 660 333 635 311 q 701 384 685 356 q 717 442 717 413 l 746 442 m 600 442 q 586 408 600 422 q 553 393 572 393 q 519 407 532 393 q 506 442 506 421 q 519 476 506 463 q 553 489 532 489 q 587 476 574 489 q 600 442 600 463 z "},"":{"ha":761,"x_min":-62,"x_max":814,"o":"m 490 389 l 490 33 l 383 33 l 383 63 l 461 63 l 461 396 l 635 738 l 661 724 l 490 389 m 146 765 l 338 383 l 338 0 l 529 0 l 529 383 l 721 765 l 146 765 m 586 369 l 586 -57 l 281 -57 l 281 57 l 165 57 l 165 485 l -62 938 l 699 938 l 642 824 l 814 824 l 586 369 m 485 1003 l 485 1063 l 425 1063 l 425 1190 l 556 1190 l 556 1131 l 615 1131 l 615 1003 l 485 1003 m 199 1190 l 325 1190 l 325 1131 l 385 1131 l 385 1003 l 258 1003 l 258 1063 l 199 1063 l 199 1190 m 590 1025 l 590 1106 l 508 1106 l 508 1025 l 590 1025 m 282 1025 l 360 1025 l 360 1106 l 282 1106 l 282 1025 z "},"":{"ha":969,"x_min":-14,"x_max":1051,"o":"m 351 1190 l 708 1190 l 708 1131 l 768 1131 l 768 1003 l 465 1003 l 549 836 l 576 894 l 1051 -57 l 100 -57 l 158 57 l -14 57 l 460 1003 l 411 1003 l 411 1063 l 351 1063 l 351 1190 m 576 765 l 194 0 l 960 0 l 576 765 m 435 1025 l 743 1025 l 743 1106 l 435 1106 l 435 1025 m 708 43 l 708 72 l 836 72 l 772 199 l 799 211 l 882 43 l 708 43 m 610 290 q 597 257 610 271 q 563 243 583 243 q 528 257 542 243 q 514 290 514 271 q 528 325 514 311 q 563 339 543 339 q 596 324 582 339 q 610 290 610 310 z "},"":{"ha":969,"x_min":-14,"x_max":1051,"o":"m 351 1190 l 708 1190 l 708 1131 l 768 1131 l 768 1003 l 465 1003 l 549 836 l 576 894 l 1051 -57 l 100 -57 l 158 57 l -14 57 l 460 1003 l 411 1003 l 411 1063 l 351 1063 l 351 1190 m 576 765 l 194 0 l 960 0 l 576 765 m 435 1025 l 743 1025 l 743 1106 l 435 1106 l 435 1025 m 708 43 l 708 72 l 836 72 l 772 199 l 799 211 l 882 43 l 708 43 m 610 290 q 597 257 610 271 q 563 243 583 243 q 528 257 542 243 q 514 290 514 271 q 528 325 514 311 q 563 339 543 339 q 596 324 582 339 q 610 290 610 310 z "},"":{"ha":969,"x_min":-14,"x_max":1051,"o":"m 610 290 q 597 257 610 271 q 563 243 583 243 q 528 257 542 243 q 514 290 514 271 q 528 325 514 311 q 563 339 543 339 q 596 324 582 339 q 610 290 610 310 m 708 43 l 708 72 l 836 72 l 772 199 l 799 211 l 882 43 l 708 43 m 576 765 l 194 0 l 960 0 l 576 765 m 592 978 q 684 1012 644 978 q 732 1097 724 1046 l 449 1097 q 497 1012 457 1046 q 592 978 536 978 m 622 1042 q 653 1063 640 1047 l 685 1063 q 622 1014 669 1026 l 622 1042 m 289 1256 l 674 1256 l 674 1151 l 792 1151 l 792 1121 q 775 1037 792 1074 q 730 974 758 1000 q 665 935 701 949 q 592 921 629 921 q 493 946 536 921 l 549 836 l 576 894 l 1051 -57 l 100 -57 l 158 57 l -14 57 l 449 981 q 404 1049 419 1008 q 321 1099 353 1060 q 289 1193 289 1139 l 289 1256 z "},"":{"ha":969,"x_min":-14,"x_max":1051,"o":"m 610 290 q 597 257 610 271 q 563 243 583 243 q 528 257 542 243 q 514 290 514 271 q 528 325 514 311 q 563 339 543 339 q 596 324 582 339 q 610 290 610 310 m 708 43 l 708 72 l 836 72 l 772 199 l 799 211 l 882 43 l 708 43 m 576 765 l 194 0 l 960 0 l 576 765 m 592 978 q 684 1012 644 978 q 732 1097 724 1046 l 449 1097 q 497 1012 457 1046 q 592 978 536 978 m 622 1042 q 653 1063 640 1047 l 685 1063 q 622 1014 669 1026 l 622 1042 m 289 1256 l 674 1256 l 674 1151 l 792 1151 l 792 1121 q 775 1037 792 1074 q 730 974 758 1000 q 665 935 701 949 q 592 921 629 921 q 493 946 536 921 l 549 836 l 576 894 l 1051 -57 l 100 -57 l 158 57 l -14 57 l 449 981 q 404 1049 419 1008 q 321 1099 353 1060 q 289 1193 289 1139 l 289 1256 z "},"":{"ha":969,"x_min":-14,"x_max":1051,"o":"m 610 290 q 597 257 610 271 q 563 243 583 243 q 528 257 542 243 q 514 290 514 271 q 528 325 514 311 q 563 339 543 339 q 596 324 582 339 q 610 290 610 310 m 708 43 l 708 72 l 836 72 l 772 199 l 799 211 l 882 43 l 708 43 m 576 765 l 194 0 l 960 0 l 576 765 m 958 -233 q 885 -318 958 -301 l 885 -279 q 929 -233 929 -264 l 958 -233 m 860 -210 l 860 -67 q 804 -78 831 -67 q 758 -108 778 -89 q 728 -154 739 -128 q 717 -210 717 -181 q 728 -265 717 -239 q 758 -311 739 -292 q 804 -342 778 -331 q 860 -353 831 -353 q 915 -342 889 -353 q 962 -311 942 -331 q 993 -265 982 -292 q 1004 -210 1004 -239 l 860 -210 m 1051 -153 q 997 -340 1051 -269 q 850 -411 942 -411 q 737 -376 788 -411 q 664 -283 686 -342 q 570 -208 606 -260 q 535 -94 535 -157 q 535 -74 535 -83 q 538 -57 536 -65 l 100 -57 l 158 57 l -14 57 l 463 1008 l 549 836 l 576 894 l 1051 -57 l 936 -57 q 931 -106 935 -82 q 919 -153 926 -129 l 1051 -153 z "},"":{"ha":969,"x_min":-14,"x_max":1051,"o":"m 610 290 q 597 257 610 271 q 563 243 583 243 q 528 257 542 243 q 514 290 514 271 q 528 325 514 311 q 563 339 543 339 q 596 324 582 339 q 610 290 610 310 m 708 43 l 708 72 l 836 72 l 772 199 l 799 211 l 882 43 l 708 43 m 576 765 l 194 0 l 960 0 l 576 765 m 958 -233 q 885 -318 958 -301 l 885 -279 q 929 -233 929 -264 l 958 -233 m 860 -210 l 860 -67 q 804 -78 831 -67 q 758 -108 778 -89 q 728 -154 739 -128 q 717 -210 717 -181 q 728 -265 717 -239 q 758 -311 739 -292 q 804 -342 778 -331 q 860 -353 831 -353 q 915 -342 889 -353 q 962 -311 942 -331 q 993 -265 982 -292 q 1004 -210 1004 -239 l 860 -210 m 1051 -153 q 997 -340 1051 -269 q 850 -411 942 -411 q 737 -376 788 -411 q 664 -283 686 -342 q 570 -208 606 -260 q 535 -94 535 -157 q 535 -74 535 -83 q 538 -57 536 -65 l 100 -57 l 158 57 l -14 57 l 463 1008 l 549 836 l 576 894 l 1051 -57 l 936 -57 q 931 -106 935 -82 q 919 -153 926 -129 l 1051 -153 z "},"":{"ha":996,"x_min":3,"x_max":979,"o":"m 847 193 q 805 146 822 164 q 774 116 788 128 q 747 96 760 104 q 718 75 735 88 l 703 100 q 750 136 726 115 q 799 183 774 157 l 519 331 l 532 357 l 847 193 m 901 554 q 761 710 853 654 q 558 765 669 765 q 410 735 479 765 q 288 652 340 704 q 206 531 236 600 q 176 383 176 461 q 206 234 176 304 q 288 112 236 164 q 409 30 339 60 q 558 0 479 0 q 666 16 614 0 q 763 60 718 32 q 842 126 807 88 q 901 211 878 165 l 558 383 l 901 554 m 744 411 l 863 351 q 851 329 857 340 q 839 307 844 318 l 978 238 q 558 -57 829 -57 q 353 -6 449 -57 q 194 133 257 44 q 53 290 103 196 q 3 497 3 385 q 38 668 3 588 q 134 808 74 749 q 274 903 194 868 q 444 938 354 938 q 801 747 661 938 q 979 529 911 671 l 744 411 m 599 1163 l 714 1163 l 554 986 l 453 986 l 493 1046 l 393 1046 l 513 1222 l 654 1222 l 599 1163 m 660 1138 l 582 1138 l 494 1008 l 543 1008 l 660 1138 z "},"":{"ha":996,"x_min":3,"x_max":979,"o":"m 847 193 q 805 146 822 164 q 774 116 788 128 q 747 96 760 104 q 718 75 735 88 l 703 100 q 750 136 726 115 q 799 183 774 157 l 519 331 l 532 357 l 847 193 m 901 554 q 761 710 853 654 q 558 765 669 765 q 410 735 479 765 q 288 652 340 704 q 206 531 236 600 q 176 383 176 461 q 206 234 176 304 q 288 112 236 164 q 409 30 339 60 q 558 0 479 0 q 666 16 614 0 q 763 60 718 32 q 842 126 807 88 q 901 211 878 165 l 558 383 l 901 554 m 744 411 l 863 351 q 851 329 857 340 q 839 307 844 318 l 978 238 q 558 -57 829 -57 q 353 -6 449 -57 q 194 133 257 44 q 53 290 103 196 q 3 497 3 385 q 38 668 3 588 q 134 808 74 749 q 274 903 194 868 q 444 938 354 938 q 801 747 661 938 q 979 529 911 671 l 744 411 m 599 1163 l 714 1163 l 554 986 l 453 986 l 493 1046 l 393 1046 l 513 1222 l 654 1222 l 599 1163 m 660 1138 l 582 1138 l 494 1008 l 543 1008 l 660 1138 z "},"":{"ha":996,"x_min":3,"x_max":979,"o":"m 847 193 q 805 146 822 164 q 774 116 788 128 q 747 96 760 104 q 718 75 735 88 l 703 100 q 750 136 726 115 q 799 183 774 157 l 519 331 l 532 357 l 847 193 m 901 554 q 761 710 853 654 q 558 765 669 765 q 410 735 479 765 q 288 652 340 704 q 206 531 236 600 q 176 383 176 461 q 206 234 176 304 q 288 112 236 164 q 409 30 339 60 q 558 0 479 0 q 666 16 614 0 q 763 60 718 32 q 842 126 807 88 q 901 211 878 165 l 558 383 l 901 554 m 744 411 l 863 351 q 851 329 857 340 q 839 307 844 318 l 978 238 q 558 -57 829 -57 q 353 -6 449 -57 q 194 133 257 44 q 53 290 103 196 q 3 497 3 385 q 38 668 3 588 q 134 808 74 749 q 274 903 194 868 q 444 938 354 938 q 801 747 661 938 q 979 529 911 671 l 744 411 m 438 1190 l 564 1190 l 564 1131 l 624 1131 l 624 1003 l 497 1003 l 497 1063 l 438 1063 l 438 1190 m 521 1025 l 599 1025 l 599 1106 l 521 1106 l 521 1025 z "},"":{"ha":996,"x_min":3,"x_max":979,"o":"m 847 193 q 805 146 822 164 q 774 116 788 128 q 747 96 760 104 q 718 75 735 88 l 703 100 q 750 136 726 115 q 799 183 774 157 l 519 331 l 532 357 l 847 193 m 901 554 q 761 710 853 654 q 558 765 669 765 q 410 735 479 765 q 288 652 340 704 q 206 531 236 600 q 176 383 176 461 q 206 234 176 304 q 288 112 236 164 q 409 30 339 60 q 558 0 479 0 q 666 16 614 0 q 763 60 718 32 q 842 126 807 88 q 901 211 878 165 l 558 383 l 901 554 m 744 411 l 863 351 q 851 329 857 340 q 839 307 844 318 l 978 238 q 558 -57 829 -57 q 353 -6 449 -57 q 194 133 257 44 q 53 290 103 196 q 3 497 3 385 q 38 668 3 588 q 134 808 74 749 q 274 903 194 868 q 444 938 354 938 q 801 747 661 938 q 979 529 911 671 l 744 411 m 438 1190 l 564 1190 l 564 1131 l 624 1131 l 624 1003 l 497 1003 l 497 1063 l 438 1063 l 438 1190 m 521 1025 l 599 1025 l 599 1106 l 521 1106 l 521 1025 z "},"":{"ha":996,"x_min":3,"x_max":979,"o":"m 847 193 q 805 146 822 164 q 774 116 788 128 q 747 96 760 104 q 718 75 735 88 l 703 100 q 750 136 726 115 q 799 183 774 157 l 519 331 l 532 357 l 847 193 m 901 554 q 761 710 853 654 q 558 765 669 765 q 410 735 479 765 q 288 652 340 704 q 206 531 236 600 q 176 383 176 461 q 206 234 176 304 q 288 112 236 164 q 409 30 339 60 q 558 0 479 0 q 666 16 614 0 q 763 60 718 32 q 842 126 807 88 q 901 211 878 165 l 558 383 l 901 554 m 744 411 l 863 351 q 851 329 857 340 q 839 307 844 318 l 978 238 q 558 -57 829 -57 q 353 -6 449 -57 q 194 133 257 44 q 53 290 103 196 q 3 497 3 385 q 38 668 3 588 q 134 808 74 749 q 274 903 194 868 q 444 938 354 938 q 801 747 661 938 q 979 529 911 671 l 744 411 m 581 1163 l 685 1163 l 556 986 l 504 1058 l 496 1046 l 369 1222 l 625 1222 l 581 1163 m 636 1138 l 475 1138 l 554 1026 l 636 1138 z "},"":{"ha":996,"x_min":3,"x_max":979,"o":"m 847 193 q 805 146 822 164 q 774 116 788 128 q 747 96 760 104 q 718 75 735 88 l 703 100 q 750 136 726 115 q 799 183 774 157 l 519 331 l 532 357 l 847 193 m 901 554 q 761 710 853 654 q 558 765 669 765 q 410 735 479 765 q 288 652 340 704 q 206 531 236 600 q 176 383 176 461 q 206 234 176 304 q 288 112 236 164 q 409 30 339 60 q 558 0 479 0 q 666 16 614 0 q 763 60 718 32 q 842 126 807 88 q 901 211 878 165 l 558 383 l 901 554 m 744 411 l 863 351 q 851 329 857 340 q 839 307 844 318 l 978 238 q 558 -57 829 -57 q 353 -6 449 -57 q 194 133 257 44 q 53 290 103 196 q 3 497 3 385 q 38 668 3 588 q 134 808 74 749 q 274 903 194 868 q 444 938 354 938 q 801 747 661 938 q 979 529 911 671 l 744 411 m 581 1163 l 685 1163 l 556 986 l 504 1058 l 496 1046 l 369 1222 l 625 1222 l 581 1163 m 636 1138 l 475 1138 l 554 1026 l 636 1138 z "},"":{"ha":988,"x_min":26,"x_max":1022,"o":"m 931 383 q 903 249 931 313 q 828 136 875 185 q 717 59 781 88 q 582 31 653 31 l 582 60 q 699 86 642 60 q 802 158 757 113 q 875 261 847 203 q 903 383 903 319 l 931 383 m 629 383 q 615 349 629 363 q 582 335 601 335 q 547 349 561 335 q 533 383 533 363 q 547 417 533 403 q 582 431 561 431 q 615 417 601 431 q 629 383 629 403 m 964 383 q 934 532 964 463 q 852 653 904 601 q 731 735 800 706 q 582 765 661 765 l 199 765 l 199 0 l 582 0 q 731 31 661 0 q 852 113 800 61 q 934 235 904 165 q 964 383 964 304 m 1022 383 q 988 213 1022 293 q 893 72 953 132 q 753 -22 833 13 q 582 -57 672 -57 l 142 -57 l 142 57 l 26 57 l 26 938 l 467 938 q 674 888 579 938 q 831 747 768 839 q 972 590 922 685 q 1022 383 1022 496 m 547 1163 l 651 1163 l 522 986 l 471 1058 l 463 1046 l 336 1222 l 592 1222 l 547 1163 m 603 1138 l 442 1138 l 521 1026 l 603 1138 z "},"":{"ha":988,"x_min":26,"x_max":1022,"o":"m 931 383 q 903 249 931 313 q 828 136 875 185 q 717 59 781 88 q 582 31 653 31 l 582 60 q 699 86 642 60 q 802 158 757 113 q 875 261 847 203 q 903 383 903 319 l 931 383 m 629 383 q 615 349 629 363 q 582 335 601 335 q 547 349 561 335 q 533 383 533 363 q 547 417 533 403 q 582 431 561 431 q 615 417 601 431 q 629 383 629 403 m 964 383 q 934 532 964 463 q 852 653 904 601 q 731 735 800 706 q 582 765 661 765 l 199 765 l 199 0 l 582 0 q 731 31 661 0 q 852 113 800 61 q 934 235 904 165 q 964 383 964 304 m 1022 383 q 988 213 1022 293 q 893 72 953 132 q 753 -22 833 13 q 582 -57 672 -57 l 142 -57 l 142 57 l 26 57 l 26 938 l 467 938 q 674 888 579 938 q 831 747 768 839 q 972 590 922 685 q 1022 383 1022 496 m 547 1163 l 651 1163 l 522 986 l 471 1058 l 463 1046 l 336 1222 l 592 1222 l 547 1163 m 603 1138 l 442 1138 l 521 1026 l 603 1138 z "},"":{"ha":988,"x_min":-87,"x_max":1022,"o":"m 1022 383 q 988 213 1022 293 q 893 72 953 132 q 753 -22 833 13 q 582 -57 672 -57 l 142 -57 l 142 57 l 26 57 l 26 383 l -87 383 l -87 553 l 26 553 l 26 938 l 467 938 q 674 888 579 938 q 831 747 768 839 q 972 590 922 685 q 1022 383 1022 496 m 199 308 l 199 0 l 582 0 q 731 31 661 0 q 852 113 800 61 q 934 235 904 165 q 964 383 964 304 q 934 532 964 463 q 852 653 904 601 q 731 735 800 706 q 582 765 661 765 l 199 765 l 199 443 l 79 443 l 79 308 l 199 308 m 931 383 q 903 249 931 313 q 828 136 875 185 q 717 59 781 88 q 582 31 653 31 l 582 60 q 699 86 642 60 q 802 158 757 113 q 875 261 847 203 q 903 383 903 319 l 931 383 m 629 383 q 615 349 629 363 q 582 335 601 335 q 547 349 561 335 q 533 383 533 363 q 547 417 533 403 q 582 431 561 431 q 615 417 601 431 q 629 383 629 403 z "},"":{"ha":988,"x_min":-87,"x_max":1022,"o":"m 1022 383 q 988 213 1022 293 q 893 72 953 132 q 753 -22 833 13 q 582 -57 672 -57 l 142 -57 l 142 57 l 26 57 l 26 383 l -87 383 l -87 553 l 26 553 l 26 938 l 467 938 q 674 888 579 938 q 831 747 768 839 q 972 590 922 685 q 1022 383 1022 496 m 199 308 l 199 0 l 582 0 q 731 31 661 0 q 852 113 800 61 q 934 235 904 165 q 964 383 964 304 q 934 532 964 463 q 852 653 904 601 q 731 735 800 706 q 582 765 661 765 l 199 765 l 199 443 l 79 443 l 79 308 l 199 308 m 931 383 q 903 249 931 313 q 828 136 875 185 q 717 59 781 88 q 582 31 653 31 l 582 60 q 699 86 642 60 q 802 158 757 113 q 875 261 847 203 q 903 383 903 319 l 931 383 m 629 383 q 615 349 629 363 q 582 335 601 335 q 547 349 561 335 q 533 383 533 363 q 547 417 533 403 q 582 431 561 431 q 615 417 601 431 q 629 383 629 403 z "},"":{"ha":893,"x_min":44,"x_max":849,"o":"m 576 33 l 576 63 l 729 63 l 729 203 l 758 203 l 758 33 l 576 33 m 576 510 l 576 539 l 729 539 l 729 678 l 758 678 l 758 510 l 576 510 m 790 288 l 539 288 l 539 324 l 658 324 l 658 443 l 539 443 l 539 479 l 790 479 l 790 765 l 217 765 l 217 0 l 790 0 l 790 288 m 160 -57 l 160 57 l 44 57 l 44 938 l 733 938 l 733 824 l 849 824 l 849 421 l 733 421 l 733 344 l 849 344 l 849 -57 l 160 -57 m 267 1190 l 624 1190 l 624 1131 l 683 1131 l 683 1003 l 326 1003 l 326 1063 l 267 1063 l 267 1190 m 350 1025 l 658 1025 l 658 1106 l 350 1106 l 350 1025 z "},"":{"ha":893,"x_min":44,"x_max":849,"o":"m 576 33 l 576 63 l 729 63 l 729 203 l 758 203 l 758 33 l 576 33 m 576 510 l 576 539 l 729 539 l 729 678 l 758 678 l 758 510 l 576 510 m 790 288 l 539 288 l 539 324 l 658 324 l 658 443 l 539 443 l 539 479 l 790 479 l 790 765 l 217 765 l 217 0 l 790 0 l 790 288 m 160 -57 l 160 57 l 44 57 l 44 938 l 733 938 l 733 824 l 849 824 l 849 421 l 733 421 l 733 344 l 849 344 l 849 -57 l 160 -57 m 267 1190 l 624 1190 l 624 1131 l 683 1131 l 683 1003 l 326 1003 l 326 1063 l 267 1063 l 267 1190 m 350 1025 l 658 1025 l 658 1106 l 350 1106 l 350 1025 z "},"":{"ha":893,"x_min":44,"x_max":849,"o":"m 224 1256 l 608 1256 l 608 1151 l 726 1151 l 726 1121 q 692 1005 726 1051 q 607 938 658 958 l 733 938 l 733 824 l 849 824 l 849 421 l 733 421 l 733 344 l 849 344 l 849 -57 l 160 -57 l 160 57 l 44 57 l 44 938 l 446 938 q 382 981 410 953 q 339 1049 354 1010 q 256 1099 288 1060 q 224 1193 224 1139 l 224 1256 m 790 288 l 539 288 l 539 324 l 658 324 l 658 443 l 539 443 l 539 479 l 790 479 l 790 765 l 217 765 l 217 0 l 790 0 l 790 288 m 526 978 q 619 1012 579 978 q 667 1097 658 1046 l 383 1097 q 431 1012 392 1046 q 526 978 471 978 m 576 33 l 576 63 l 729 63 l 729 203 l 758 203 l 758 33 l 576 33 m 576 510 l 576 539 l 729 539 l 729 678 l 758 678 l 758 510 l 576 510 m 557 1042 q 588 1063 575 1047 l 619 1063 q 557 1014 604 1026 l 557 1042 z "},"":{"ha":893,"x_min":44,"x_max":849,"o":"m 224 1256 l 608 1256 l 608 1151 l 726 1151 l 726 1121 q 692 1005 726 1051 q 607 938 658 958 l 733 938 l 733 824 l 849 824 l 849 421 l 733 421 l 733 344 l 849 344 l 849 -57 l 160 -57 l 160 57 l 44 57 l 44 938 l 446 938 q 382 981 410 953 q 339 1049 354 1010 q 256 1099 288 1060 q 224 1193 224 1139 l 224 1256 m 790 288 l 539 288 l 539 324 l 658 324 l 658 443 l 539 443 l 539 479 l 790 479 l 790 765 l 217 765 l 217 0 l 790 0 l 790 288 m 526 978 q 619 1012 579 978 q 667 1097 658 1046 l 383 1097 q 431 1012 392 1046 q 526 978 471 978 m 576 33 l 576 63 l 729 63 l 729 203 l 758 203 l 758 33 l 576 33 m 576 510 l 576 539 l 729 539 l 729 678 l 758 678 l 758 510 l 576 510 m 557 1042 q 588 1063 575 1047 l 619 1063 q 557 1014 604 1026 l 557 1042 z "},"":{"ha":893,"x_min":44,"x_max":849,"o":"m 576 33 l 576 63 l 729 63 l 729 203 l 758 203 l 758 33 l 576 33 m 576 510 l 576 539 l 729 539 l 729 678 l 758 678 l 758 510 l 576 510 m 790 288 l 539 288 l 539 324 l 658 324 l 658 443 l 539 443 l 539 479 l 790 479 l 790 765 l 217 765 l 217 0 l 790 0 l 790 288 m 160 -57 l 160 57 l 44 57 l 44 938 l 733 938 l 733 824 l 849 824 l 849 421 l 733 421 l 733 344 l 849 344 l 849 -57 l 160 -57 m 396 1190 l 522 1190 l 522 1131 l 582 1131 l 582 1003 l 456 1003 l 456 1063 l 396 1063 l 396 1190 m 479 1025 l 557 1025 l 557 1106 l 479 1106 l 479 1025 z "},"":{"ha":893,"x_min":44,"x_max":849,"o":"m 576 33 l 576 63 l 729 63 l 729 203 l 758 203 l 758 33 l 576 33 m 576 510 l 576 539 l 729 539 l 729 678 l 758 678 l 758 510 l 576 510 m 790 288 l 539 288 l 539 324 l 658 324 l 658 443 l 539 443 l 539 479 l 790 479 l 790 765 l 217 765 l 217 0 l 790 0 l 790 288 m 160 -57 l 160 57 l 44 57 l 44 938 l 733 938 l 733 824 l 849 824 l 849 421 l 733 421 l 733 344 l 849 344 l 849 -57 l 160 -57 m 396 1190 l 522 1190 l 522 1131 l 582 1131 l 582 1003 l 456 1003 l 456 1063 l 396 1063 l 396 1190 m 479 1025 l 557 1025 l 557 1106 l 479 1106 l 479 1025 z "},"":{"ha":893,"x_min":44,"x_max":849,"o":"m 849 -153 q 794 -340 849 -269 q 647 -411 739 -411 q 534 -376 585 -411 q 461 -283 483 -342 q 367 -208 403 -260 q 332 -94 332 -157 q 333 -74 332 -83 q 335 -57 333 -65 l 160 -57 l 160 57 l 44 57 l 44 938 l 733 938 l 733 824 l 849 824 l 849 421 l 733 421 l 733 344 l 849 344 l 849 -57 l 733 -57 q 728 -106 732 -82 q 717 -153 724 -129 l 849 -153 m 576 33 l 576 63 l 729 63 l 729 203 l 758 203 l 758 33 l 576 33 m 576 510 l 576 539 l 729 539 l 729 678 l 758 678 l 758 510 l 576 510 m 790 288 l 539 288 l 539 324 l 658 324 l 658 443 l 539 443 l 539 479 l 790 479 l 790 765 l 217 765 l 217 0 l 790 0 l 790 288 m 756 -233 q 682 -318 756 -301 l 682 -279 q 726 -233 726 -264 l 756 -233 m 657 -210 l 657 -67 q 601 -78 628 -67 q 556 -108 575 -89 q 525 -154 536 -128 q 514 -210 514 -181 q 525 -265 514 -239 q 556 -311 536 -292 q 601 -342 575 -331 q 657 -353 628 -353 q 713 -342 686 -353 q 759 -311 739 -331 q 790 -265 779 -292 q 801 -210 801 -239 l 657 -210 z "},"":{"ha":893,"x_min":44,"x_max":849,"o":"m 849 -153 q 794 -340 849 -269 q 647 -411 739 -411 q 534 -376 585 -411 q 461 -283 483 -342 q 367 -208 403 -260 q 332 -94 332 -157 q 333 -74 332 -83 q 335 -57 333 -65 l 160 -57 l 160 57 l 44 57 l 44 938 l 733 938 l 733 824 l 849 824 l 849 421 l 733 421 l 733 344 l 849 344 l 849 -57 l 733 -57 q 728 -106 732 -82 q 717 -153 724 -129 l 849 -153 m 576 33 l 576 63 l 729 63 l 729 203 l 758 203 l 758 33 l 576 33 m 576 510 l 576 539 l 729 539 l 729 678 l 758 678 l 758 510 l 576 510 m 790 288 l 539 288 l 539 324 l 658 324 l 658 443 l 539 443 l 539 479 l 790 479 l 790 765 l 217 765 l 217 0 l 790 0 l 790 288 m 756 -233 q 682 -318 756 -301 l 682 -279 q 726 -233 726 -264 l 756 -233 m 657 -210 l 657 -67 q 601 -78 628 -67 q 556 -108 575 -89 q 525 -154 536 -128 q 514 -210 514 -181 q 525 -265 514 -239 q 556 -311 536 -292 q 601 -342 575 -331 q 657 -353 628 -353 q 713 -342 686 -353 q 759 -311 739 -331 q 790 -265 779 -292 q 801 -210 801 -239 l 657 -210 z "},"":{"ha":893,"x_min":44,"x_max":849,"o":"m 576 33 l 576 63 l 729 63 l 729 203 l 758 203 l 758 33 l 576 33 m 576 510 l 576 539 l 729 539 l 729 678 l 758 678 l 758 510 l 576 510 m 790 288 l 539 288 l 539 324 l 658 324 l 658 443 l 539 443 l 539 479 l 790 479 l 790 765 l 217 765 l 217 0 l 790 0 l 790 288 m 160 -57 l 160 57 l 44 57 l 44 938 l 733 938 l 733 824 l 849 824 l 849 421 l 733 421 l 733 344 l 849 344 l 849 -57 l 160 -57 m 533 1163 l 638 1163 l 508 986 l 457 1058 l 449 1046 l 322 1222 l 578 1222 l 533 1163 m 589 1138 l 428 1138 l 507 1026 l 589 1138 z "},"":{"ha":893,"x_min":44,"x_max":849,"o":"m 576 33 l 576 63 l 729 63 l 729 203 l 758 203 l 758 33 l 576 33 m 576 510 l 576 539 l 729 539 l 729 678 l 758 678 l 758 510 l 576 510 m 790 288 l 539 288 l 539 324 l 658 324 l 658 443 l 539 443 l 539 479 l 790 479 l 790 765 l 217 765 l 217 0 l 790 0 l 790 288 m 160 -57 l 160 57 l 44 57 l 44 938 l 733 938 l 733 824 l 849 824 l 849 421 l 733 421 l 733 344 l 849 344 l 849 -57 l 160 -57 m 533 1163 l 638 1163 l 508 986 l 457 1058 l 449 1046 l 322 1222 l 578 1222 l 533 1163 m 589 1138 l 428 1138 l 507 1026 l 589 1138 z "},"":{"ha":988,"x_min":3,"x_max":999,"o":"m 258 1256 l 643 1256 l 643 1151 l 761 1151 l 761 1121 q 744 1037 761 1074 q 699 974 726 1000 q 634 935 671 949 q 558 921 597 921 q 796 769 679 883 l 785 757 q 847 713 815 739 q 911 654 879 686 l 811 556 l 883 556 l 883 440 l 999 440 l 999 -57 l 558 -57 q 351 -6 446 -57 q 194 133 257 44 q 53 290 103 196 q 3 497 3 385 q 38 667 3 588 q 133 808 72 747 q 273 903 193 868 q 443 938 353 938 q 465 937 454 938 q 486 935 475 936 q 419 979 449 950 q 374 1049 389 1008 q 290 1099 322 1060 q 258 1193 258 1139 l 258 1256 m 940 383 l 558 383 l 829 654 q 558 765 718 765 q 410 735 479 765 q 288 652 340 704 q 206 531 236 600 q 175 383 175 461 q 205 233 175 303 q 287 112 235 164 q 408 30 339 60 q 558 0 478 0 l 940 0 l 940 383 m 561 978 q 653 1012 614 978 q 701 1097 693 1046 l 418 1097 q 466 1012 426 1046 q 561 978 506 978 m 528 401 l 508 421 l 749 661 l 768 642 l 528 401 m 725 33 l 725 63 l 879 63 l 879 203 l 907 203 l 907 33 l 725 33 m 592 1042 q 622 1063 610 1047 l 654 1063 q 592 1014 639 1026 l 592 1042 z "},"":{"ha":988,"x_min":3,"x_max":999,"o":"m 258 1256 l 643 1256 l 643 1151 l 761 1151 l 761 1121 q 744 1037 761 1074 q 699 974 726 1000 q 634 935 671 949 q 558 921 597 921 q 796 769 679 883 l 785 757 q 847 713 815 739 q 911 654 879 686 l 811 556 l 883 556 l 883 440 l 999 440 l 999 -57 l 558 -57 q 351 -6 446 -57 q 194 133 257 44 q 53 290 103 196 q 3 497 3 385 q 38 667 3 588 q 133 808 72 747 q 273 903 193 868 q 443 938 353 938 q 465 937 454 938 q 486 935 475 936 q 419 979 449 950 q 374 1049 389 1008 q 290 1099 322 1060 q 258 1193 258 1139 l 258 1256 m 940 383 l 558 383 l 829 654 q 558 765 718 765 q 410 735 479 765 q 288 652 340 704 q 206 531 236 600 q 175 383 175 461 q 205 233 175 303 q 287 112 235 164 q 408 30 339 60 q 558 0 478 0 l 940 0 l 940 383 m 561 978 q 653 1012 614 978 q 701 1097 693 1046 l 418 1097 q 466 1012 426 1046 q 561 978 506 978 m 528 401 l 508 421 l 749 661 l 768 642 l 528 401 m 725 33 l 725 63 l 879 63 l 879 203 l 907 203 l 907 33 l 725 33 m 592 1042 q 622 1063 610 1047 l 654 1063 q 592 1014 639 1026 l 592 1042 z "},"":{"ha":988,"x_min":3,"x_max":999,"o":"m 725 33 l 725 63 l 879 63 l 879 203 l 907 203 l 907 33 l 725 33 m 528 401 l 508 421 l 749 661 l 768 642 l 528 401 m 940 383 l 558 383 l 829 654 q 558 765 718 765 q 410 735 479 765 q 288 652 340 704 q 206 531 236 600 q 175 383 175 461 q 205 233 175 303 q 287 112 235 164 q 408 30 339 60 q 558 0 478 0 l 940 0 l 940 383 m 558 -57 q 351 -6 446 -57 q 194 133 257 44 q 53 290 103 196 q 3 497 3 385 q 38 667 3 588 q 133 808 72 747 q 273 903 193 868 q 443 938 353 938 q 796 769 628 938 l 785 757 q 847 713 815 739 q 911 654 879 686 l 811 556 l 883 556 l 883 440 l 999 440 l 999 -57 l 558 -57 m 443 1190 l 569 1190 l 569 1131 l 629 1131 l 629 1003 l 503 1003 l 503 1063 l 443 1063 l 443 1190 m 526 1025 l 604 1025 l 604 1106 l 526 1106 l 526 1025 z "},"":{"ha":988,"x_min":3,"x_max":999,"o":"m 725 33 l 725 63 l 879 63 l 879 203 l 907 203 l 907 33 l 725 33 m 528 401 l 508 421 l 749 661 l 768 642 l 528 401 m 940 383 l 558 383 l 829 654 q 558 765 718 765 q 410 735 479 765 q 288 652 340 704 q 206 531 236 600 q 175 383 175 461 q 205 233 175 303 q 287 112 235 164 q 408 30 339 60 q 558 0 478 0 l 940 0 l 940 383 m 558 -57 q 351 -6 446 -57 q 194 133 257 44 q 53 290 103 196 q 3 497 3 385 q 38 667 3 588 q 133 808 72 747 q 273 903 193 868 q 443 938 353 938 q 796 769 628 938 l 785 757 q 847 713 815 739 q 911 654 879 686 l 811 556 l 883 556 l 883 440 l 999 440 l 999 -57 l 558 -57 m 443 1190 l 569 1190 l 569 1131 l 629 1131 l 629 1003 l 503 1003 l 503 1063 l 443 1063 l 443 1190 m 526 1025 l 604 1025 l 604 1106 l 526 1106 l 526 1025 z "},"":{"ha":988,"x_min":3,"x_max":999,"o":"m 778 -237 q 715 -365 778 -318 q 553 -411 653 -411 l 553 -297 q 454 -312 504 -312 l 454 -286 l 428 -286 q 443 -186 428 -236 l 328 -186 q 383 -21 328 -79 q 194 133 268 28 q 53 290 103 196 q 3 497 3 385 q 38 667 3 588 q 133 808 72 747 q 273 903 193 868 q 443 938 353 938 q 796 769 628 938 l 785 757 q 847 713 815 739 q 911 654 879 686 l 811 556 l 883 556 l 883 440 l 999 440 l 999 -57 l 660 -57 q 663 -64 663 -60 q 667 -72 664 -68 q 748 -137 718 -93 q 778 -237 778 -182 m 725 33 l 725 63 l 879 63 l 879 203 l 907 203 l 907 33 l 725 33 m 528 401 l 508 421 l 749 661 l 768 642 l 528 401 m 940 383 l 558 383 l 829 654 q 558 765 718 765 q 410 735 479 765 q 288 652 340 704 q 206 531 236 600 q 175 383 175 461 q 205 233 175 303 q 287 112 235 164 q 408 30 339 60 q 558 0 478 0 l 940 0 l 940 383 m 700 -240 q 701 -251 701 -243 q 695 -276 701 -262 q 680 -300 689 -289 q 659 -319 671 -311 q 635 -328 647 -328 l 635 -303 q 672 -240 672 -293 l 700 -240 m 728 -237 q 692 -148 728 -185 q 604 -111 656 -111 q 515 -148 551 -111 q 478 -237 478 -185 l 604 -237 l 604 -361 q 692 -325 656 -361 q 728 -237 728 -289 z "},"":{"ha":988,"x_min":3,"x_max":999,"o":"m 778 -237 q 715 -365 778 -318 q 553 -411 653 -411 l 553 -297 q 454 -312 504 -312 l 454 -286 l 428 -286 q 443 -186 428 -236 l 328 -186 q 383 -21 328 -79 q 194 133 268 28 q 53 290 103 196 q 3 497 3 385 q 38 667 3 588 q 133 808 72 747 q 273 903 193 868 q 443 938 353 938 q 796 769 628 938 l 785 757 q 847 713 815 739 q 911 654 879 686 l 811 556 l 883 556 l 883 440 l 999 440 l 999 -57 l 660 -57 q 663 -64 663 -60 q 667 -72 664 -68 q 748 -137 718 -93 q 778 -237 778 -182 m 725 33 l 725 63 l 879 63 l 879 203 l 907 203 l 907 33 l 725 33 m 528 401 l 508 421 l 749 661 l 768 642 l 528 401 m 940 383 l 558 383 l 829 654 q 558 765 718 765 q 410 735 479 765 q 288 652 340 704 q 206 531 236 600 q 175 383 175 461 q 205 233 175 303 q 287 112 235 164 q 408 30 339 60 q 558 0 478 0 l 940 0 l 940 383 m 700 -240 q 701 -251 701 -243 q 695 -276 701 -262 q 680 -300 689 -289 q 659 -319 671 -311 q 635 -328 647 -328 l 635 -303 q 672 -240 672 -293 l 700 -240 m 728 -237 q 692 -148 728 -185 q 604 -111 656 -111 q 515 -148 551 -111 q 478 -237 478 -185 l 604 -237 l 604 -361 q 692 -325 656 -361 q 728 -237 728 -289 z "},"":{"ha":1049,"x_min":47,"x_max":1038,"o":"m 163 547 l 219 547 l 219 0 l 506 0 l 506 288 l 661 288 l 661 0 l 946 0 l 946 547 l 1004 547 l 1004 656 l 946 656 l 946 765 l 661 765 l 661 656 l 506 656 l 506 765 l 219 765 l 219 656 l 163 656 l 163 547 m 285 33 l 285 63 l 438 63 l 438 203 l 467 203 l 467 33 l 285 33 m 732 33 l 732 63 l 885 63 l 885 203 l 914 203 l 914 33 l 732 33 m 506 479 l 506 547 l 661 547 l 661 479 l 506 479 m 603 -57 l 603 57 l 564 57 l 564 -57 l 161 -57 l 161 57 l 47 57 l 47 938 l 449 938 l 449 824 l 488 824 l 488 938 l 928 938 l 928 824 l 1004 824 l 1004 689 l 1038 689 l 1038 518 l 1004 518 l 1004 -57 l 603 -57 z "},"":{"ha":1049,"x_min":47,"x_max":1038,"o":"m 163 547 l 219 547 l 219 0 l 506 0 l 506 288 l 661 288 l 661 0 l 946 0 l 946 547 l 1004 547 l 1004 656 l 946 656 l 946 765 l 661 765 l 661 656 l 506 656 l 506 765 l 219 765 l 219 656 l 163 656 l 163 547 m 285 33 l 285 63 l 438 63 l 438 203 l 467 203 l 467 33 l 285 33 m 732 33 l 732 63 l 885 63 l 885 203 l 914 203 l 914 33 l 732 33 m 506 479 l 506 547 l 661 547 l 661 479 l 506 479 m 603 -57 l 603 57 l 564 57 l 564 -57 l 161 -57 l 161 57 l 47 57 l 47 938 l 449 938 l 449 824 l 488 824 l 488 938 l 928 938 l 928 824 l 1004 824 l 1004 689 l 1038 689 l 1038 518 l 1004 518 l 1004 -57 l 603 -57 z "},"":{"ha":608,"x_min":46,"x_max":563,"o":"m 290 33 l 290 63 l 444 63 l 444 203 l 472 203 l 472 33 l 290 33 m 506 765 l 218 765 l 218 0 l 506 0 l 506 765 m 160 -57 l 160 57 l 46 57 l 46 938 l 447 938 l 447 824 l 563 824 l 563 -57 l 160 -57 m 132 1190 l 489 1190 l 489 1131 l 549 1131 l 549 1003 l 192 1003 l 192 1063 l 132 1063 l 132 1190 m 215 1025 l 524 1025 l 524 1106 l 215 1106 l 215 1025 z "},"":{"ha":608,"x_min":46,"x_max":563,"o":"m 290 33 l 290 63 l 444 63 l 444 203 l 472 203 l 472 33 l 290 33 m 506 765 l 218 765 l 218 0 l 506 0 l 506 765 m 160 -57 l 160 57 l 46 57 l 46 938 l 447 938 l 447 824 l 563 824 l 563 -57 l 160 -57 m 132 1190 l 489 1190 l 489 1131 l 549 1131 l 549 1003 l 192 1003 l 192 1063 l 132 1063 l 132 1190 m 215 1025 l 524 1025 l 524 1106 l 215 1106 l 215 1025 z "},"":{"ha":608,"x_min":46,"x_max":564,"o":"m 61 1256 l 446 1256 l 446 1151 l 564 1151 l 564 1121 q 531 1006 564 1053 q 447 939 497 960 l 447 824 l 563 824 l 563 -57 l 160 -57 l 160 57 l 46 57 l 46 938 l 283 938 q 219 981 247 953 q 176 1049 192 1010 q 93 1099 125 1060 q 61 1193 61 1139 l 61 1256 m 506 765 l 218 765 l 218 0 l 506 0 l 506 765 m 364 978 q 456 1012 417 978 q 504 1097 496 1046 l 221 1097 q 269 1012 229 1046 q 364 978 308 978 m 290 33 l 290 63 l 444 63 l 444 203 l 472 203 l 472 33 l 290 33 m 394 1042 q 425 1063 413 1047 l 457 1063 q 394 1014 442 1026 l 394 1042 z "},"":{"ha":608,"x_min":46,"x_max":564,"o":"m 61 1256 l 446 1256 l 446 1151 l 564 1151 l 564 1121 q 531 1006 564 1053 q 447 939 497 960 l 447 824 l 563 824 l 563 -57 l 160 -57 l 160 57 l 46 57 l 46 938 l 283 938 q 219 981 247 953 q 176 1049 192 1010 q 93 1099 125 1060 q 61 1193 61 1139 l 61 1256 m 506 765 l 218 765 l 218 0 l 506 0 l 506 765 m 364 978 q 456 1012 417 978 q 504 1097 496 1046 l 221 1097 q 269 1012 229 1046 q 364 978 308 978 m 290 33 l 290 63 l 444 63 l 444 203 l 472 203 l 472 33 l 290 33 m 394 1042 q 425 1063 413 1047 l 457 1063 q 394 1014 442 1026 l 394 1042 z "},"":{"ha":608,"x_min":46,"x_max":563,"o":"m 290 33 l 290 63 l 444 63 l 444 203 l 472 203 l 472 33 l 290 33 m 506 765 l 218 765 l 218 0 l 506 0 l 506 765 m 469 -233 q 396 -318 469 -301 l 396 -279 q 440 -233 440 -264 l 469 -233 m 371 -210 l 371 -67 q 315 -78 342 -67 q 269 -108 289 -89 q 239 -154 250 -128 q 228 -210 228 -181 q 239 -265 228 -239 q 269 -311 250 -292 q 315 -342 289 -331 q 371 -353 342 -353 q 426 -342 400 -353 q 473 -311 453 -331 q 504 -265 493 -292 q 515 -210 515 -239 l 371 -210 m 563 -153 q 508 -340 563 -269 q 361 -411 453 -411 q 248 -376 299 -411 q 175 -283 197 -342 q 81 -208 117 -260 q 46 -94 46 -157 q 124 57 46 3 l 46 57 l 46 938 l 447 938 l 447 824 l 563 824 l 563 -57 l 447 -57 q 442 -106 446 -82 q 431 -153 438 -129 l 563 -153 z "},"":{"ha":608,"x_min":46,"x_max":563,"o":"m 290 33 l 290 63 l 444 63 l 444 203 l 472 203 l 472 33 l 290 33 m 506 765 l 218 765 l 218 0 l 506 0 l 506 765 m 469 -233 q 396 -318 469 -301 l 396 -279 q 440 -233 440 -264 l 469 -233 m 371 -210 l 371 -67 q 315 -78 342 -67 q 269 -108 289 -89 q 239 -154 250 -128 q 228 -210 228 -181 q 239 -265 228 -239 q 269 -311 250 -292 q 315 -342 289 -331 q 371 -353 342 -353 q 426 -342 400 -353 q 473 -311 453 -331 q 504 -265 493 -292 q 515 -210 515 -239 l 371 -210 m 563 -153 q 508 -340 563 -269 q 361 -411 453 -411 q 248 -376 299 -411 q 175 -283 197 -342 q 81 -208 117 -260 q 46 -94 46 -157 q 124 57 46 3 l 46 57 l 46 938 l 447 938 l 447 824 l 563 824 l 563 -57 l 447 -57 q 442 -106 446 -82 q 431 -153 438 -129 l 563 -153 z "},"":{"ha":608,"x_min":46,"x_max":563,"o":"m 290 33 l 290 63 l 444 63 l 444 203 l 472 203 l 472 33 l 290 33 m 506 765 l 218 765 l 218 0 l 506 0 l 506 765 m 160 -57 l 160 57 l 46 57 l 46 938 l 447 938 l 447 824 l 563 824 l 563 -57 l 160 -57 m 226 1190 l 353 1190 l 353 1131 l 413 1131 l 413 1003 l 286 1003 l 286 1063 l 226 1063 l 226 1190 m 310 1025 l 388 1025 l 388 1106 l 310 1106 l 310 1025 z "},"":{"ha":608,"x_min":46,"x_max":563,"o":"m 290 33 l 290 63 l 444 63 l 444 203 l 472 203 l 472 33 l 290 33 m 506 765 l 218 765 l 218 0 l 506 0 l 506 765 m 160 -57 l 160 57 l 46 57 l 46 938 l 447 938 l 447 824 l 563 824 l 563 -57 l 160 -57 z "},"":{"ha":1253,"x_min":46,"x_max":1218,"o":"m 290 33 l 290 63 l 444 63 l 444 203 l 472 203 l 472 33 l 290 33 m 506 765 l 218 765 l 218 0 l 506 0 l 506 765 m 1132 288 q 1110 190 1132 236 q 1053 108 1089 143 q 971 51 1018 72 q 872 29 924 29 l 872 57 q 956 77 915 57 q 1030 131 997 97 q 1083 205 1063 164 q 1103 288 1103 246 l 1132 288 m 1160 765 l 872 765 l 872 288 l 586 288 q 608 176 586 229 q 669 85 631 124 q 760 23 708 46 q 872 0 813 0 q 986 23 933 0 q 1077 85 1039 46 q 1138 176 1115 124 q 1160 288 1160 229 l 1160 765 m 160 -57 l 160 57 l 46 57 l 46 938 l 447 938 l 447 824 l 563 824 l 563 460 l 700 460 l 700 938 l 1103 938 l 1103 824 l 1218 824 l 1218 288 q 1191 153 1218 217 q 1117 44 1164 90 q 1007 -30 1069 -3 q 872 -57 944 -57 q 590 103 690 -57 q 576 111 583 107 q 563 121 569 115 l 563 -57 l 160 -57 z "},"":{"ha":1253,"x_min":46,"x_max":1218,"o":"m 290 33 l 290 63 l 444 63 l 444 203 l 472 203 l 472 33 l 290 33 m 506 765 l 218 765 l 218 0 l 506 0 l 506 765 m 1132 288 q 1110 190 1132 236 q 1053 108 1089 143 q 971 51 1018 72 q 872 29 924 29 l 872 57 q 956 77 915 57 q 1030 131 997 97 q 1083 205 1063 164 q 1103 288 1103 246 l 1132 288 m 1160 765 l 872 765 l 872 288 l 586 288 q 608 176 586 229 q 669 85 631 124 q 760 23 708 46 q 872 0 813 0 q 986 23 933 0 q 1077 85 1039 46 q 1138 176 1115 124 q 1160 288 1160 229 l 1160 765 m 160 -57 l 160 57 l 46 57 l 46 938 l 447 938 l 447 824 l 563 824 l 563 460 l 700 460 l 700 938 l 1103 938 l 1103 824 l 1218 824 l 1218 288 q 1191 153 1218 217 q 1117 44 1164 90 q 1007 -30 1069 -3 q 872 -57 944 -57 q 590 103 690 -57 q 576 111 583 107 q 563 121 569 115 l 563 -57 l 160 -57 z "},"":{"ha":954,"x_min":13,"x_max":992,"o":"m 569 43 l 569 72 l 681 72 l 554 199 l 596 199 l 749 43 l 569 43 m 185 765 l 185 0 l 853 0 l 471 383 l 854 765 l 185 765 m 638 -240 q 639 -251 639 -243 q 633 -276 639 -262 q 617 -300 626 -289 q 597 -319 608 -311 q 572 -328 585 -328 l 572 -303 q 610 -240 610 -293 l 638 -240 m 665 -237 q 629 -148 665 -185 q 542 -111 593 -111 q 452 -148 489 -111 q 415 -237 415 -185 l 542 -237 l 542 -361 q 629 -325 593 -361 q 665 -237 665 -289 m 715 -237 q 653 -365 715 -318 q 490 -411 590 -411 l 490 -297 q 392 -312 442 -312 l 392 -286 l 365 -286 q 381 -186 365 -236 l 265 -186 q 294 -57 265 -110 l 126 -57 l 126 57 l 13 57 l 13 938 l 876 938 l 763 824 l 992 824 l 551 383 l 990 -57 l 597 -57 q 601 -64 600 -60 q 604 -72 601 -68 q 685 -137 656 -93 q 715 -237 715 -182 z "},"":{"ha":954,"x_min":13,"x_max":992,"o":"m 569 43 l 569 72 l 681 72 l 554 199 l 596 199 l 749 43 l 569 43 m 185 765 l 185 0 l 853 0 l 471 383 l 854 765 l 185 765 m 638 -240 q 639 -251 639 -243 q 633 -276 639 -262 q 617 -300 626 -289 q 597 -319 608 -311 q 572 -328 585 -328 l 572 -303 q 610 -240 610 -293 l 638 -240 m 665 -237 q 629 -148 665 -185 q 542 -111 593 -111 q 452 -148 489 -111 q 415 -237 415 -185 l 542 -237 l 542 -361 q 629 -325 593 -361 q 665 -237 665 -289 m 715 -237 q 653 -365 715 -318 q 490 -411 590 -411 l 490 -297 q 392 -312 442 -312 l 392 -286 l 365 -286 q 381 -186 365 -236 l 265 -186 q 294 -57 265 -110 l 126 -57 l 126 57 l 13 57 l 13 938 l 876 938 l 763 824 l 992 824 l 551 383 l 990 -57 l 597 -57 q 601 -64 600 -60 q 604 -72 601 -68 q 685 -137 656 -93 q 715 -237 715 -182 z "},"":{"ha":824,"x_min":14,"x_max":818,"o":"m 544 33 l 544 63 l 697 63 l 697 203 l 726 203 l 726 33 l 544 33 m 761 228 l 474 228 l 474 765 l 186 765 l 186 0 l 761 0 l 761 228 m 129 -57 l 129 57 l 14 57 l 14 938 l 417 938 l 417 824 l 531 824 l 531 400 l 704 400 l 704 285 l 818 285 l 818 -57 l 129 -57 m 457 1163 l 572 1163 l 413 986 l 311 986 l 351 1046 l 251 1046 l 371 1222 l 513 1222 l 457 1163 m 518 1138 l 440 1138 l 353 1008 l 401 1008 l 518 1138 z "},"":{"ha":824,"x_min":14,"x_max":818,"o":"m 544 33 l 544 63 l 697 63 l 697 203 l 726 203 l 726 33 l 544 33 m 761 228 l 474 228 l 474 765 l 186 765 l 186 0 l 761 0 l 761 228 m 129 -57 l 129 57 l 14 57 l 14 938 l 417 938 l 417 824 l 531 824 l 531 400 l 704 400 l 704 285 l 818 285 l 818 -57 l 129 -57 m 457 1163 l 572 1163 l 413 986 l 311 986 l 351 1046 l 251 1046 l 371 1222 l 513 1222 l 457 1163 m 518 1138 l 440 1138 l 353 1008 l 401 1008 l 518 1138 z "},"":{"ha":824,"x_min":14,"x_max":818,"o":"m 544 33 l 544 63 l 697 63 l 697 203 l 726 203 l 726 33 l 544 33 m 761 228 l 474 228 l 474 765 l 186 765 l 186 0 l 761 0 l 761 228 m 558 -240 q 560 -251 560 -243 q 553 -276 560 -262 q 538 -300 547 -289 q 517 -319 529 -311 q 493 -328 506 -328 l 493 -303 q 531 -240 531 -293 l 558 -240 m 586 -237 q 550 -148 586 -185 q 463 -111 514 -111 q 373 -148 410 -111 q 336 -237 336 -185 l 463 -237 l 463 -361 q 550 -325 514 -361 q 586 -237 586 -289 m 636 -237 q 574 -365 636 -318 q 411 -411 511 -411 l 411 -297 q 313 -312 363 -312 l 313 -286 l 286 -286 q 301 -186 286 -236 l 186 -186 q 215 -57 186 -110 l 129 -57 l 129 57 l 14 57 l 14 938 l 417 938 l 417 824 l 531 824 l 531 400 l 704 400 l 704 285 l 818 285 l 818 -57 l 518 -57 q 522 -64 521 -60 q 525 -72 522 -68 q 606 -137 576 -93 q 636 -237 636 -182 z "},"":{"ha":824,"x_min":14,"x_max":818,"o":"m 544 33 l 544 63 l 697 63 l 697 203 l 726 203 l 726 33 l 544 33 m 761 228 l 474 228 l 474 765 l 186 765 l 186 0 l 761 0 l 761 228 m 558 -240 q 560 -251 560 -243 q 553 -276 560 -262 q 538 -300 547 -289 q 517 -319 529 -311 q 493 -328 506 -328 l 493 -303 q 531 -240 531 -293 l 558 -240 m 586 -237 q 550 -148 586 -185 q 463 -111 514 -111 q 373 -148 410 -111 q 336 -237 336 -185 l 463 -237 l 463 -361 q 550 -325 514 -361 q 586 -237 586 -289 m 636 -237 q 574 -365 636 -318 q 411 -411 511 -411 l 411 -297 q 313 -312 363 -312 l 313 -286 l 286 -286 q 301 -186 286 -236 l 186 -186 q 215 -57 186 -110 l 129 -57 l 129 57 l 14 57 l 14 938 l 417 938 l 417 824 l 531 824 l 531 400 l 704 400 l 704 285 l 818 285 l 818 -57 l 518 -57 q 522 -64 521 -60 q 525 -72 522 -68 q 606 -137 576 -93 q 636 -237 636 -182 z "},"":{"ha":911,"x_min":14,"x_max":901,"o":"m 544 33 l 544 63 l 697 63 l 697 203 l 726 203 l 726 33 l 544 33 m 761 228 l 474 228 l 474 765 l 186 765 l 186 0 l 761 0 l 761 228 m 129 -57 l 129 57 l 14 57 l 14 938 l 417 938 l 417 824 l 531 824 l 531 400 l 704 400 l 704 285 l 818 285 l 818 -57 l 129 -57 m 824 783 q 825 772 825 781 q 819 748 825 761 q 803 724 813 735 q 783 704 794 713 q 758 696 771 696 l 758 721 q 796 783 796 731 l 824 783 m 851 786 q 815 876 851 839 q 728 913 779 913 q 638 876 675 913 q 601 786 601 839 l 728 786 l 728 663 q 815 699 779 663 q 851 786 851 735 m 901 786 q 839 659 901 706 q 676 613 776 613 l 676 726 q 578 711 628 711 l 578 738 l 551 738 q 567 838 551 788 l 451 838 q 499 994 451 936 q 626 1051 546 1051 q 726 1026 682 1051 q 790 951 771 1001 q 872 886 842 931 q 901 786 901 842 z "},"":{"ha":911,"x_min":14,"x_max":901,"o":"m 544 33 l 544 63 l 697 63 l 697 203 l 726 203 l 726 33 l 544 33 m 761 228 l 474 228 l 474 765 l 186 765 l 186 0 l 761 0 l 761 228 m 129 -57 l 129 57 l 14 57 l 14 938 l 417 938 l 417 824 l 531 824 l 531 400 l 704 400 l 704 285 l 818 285 l 818 -57 l 129 -57 m 824 783 q 825 772 825 781 q 819 748 825 761 q 803 724 813 735 q 783 704 794 713 q 758 696 771 696 l 758 721 q 796 783 796 731 l 824 783 m 851 786 q 815 876 851 839 q 728 913 779 913 q 638 876 675 913 q 601 786 601 839 l 728 786 l 728 663 q 815 699 779 663 q 851 786 851 735 m 901 786 q 839 659 901 706 q 676 613 776 613 l 676 726 q 578 711 628 711 l 578 738 l 551 738 q 567 838 551 788 l 451 838 q 499 994 451 936 q 626 1051 546 1051 q 726 1026 682 1051 q 790 951 771 1001 q 872 886 842 931 q 901 786 901 842 z "},"":{"ha":824,"x_min":14,"x_max":818,"o":"m 544 33 l 544 63 l 697 63 l 697 203 l 726 203 l 726 33 l 544 33 m 761 228 l 474 228 l 474 765 l 186 765 l 186 0 l 761 0 l 761 228 m 129 -57 l 129 57 l 14 57 l 14 938 l 417 938 l 417 824 l 531 824 l 531 400 l 704 400 l 704 285 l 818 285 l 818 -57 l 129 -57 m 560 614 l 686 614 l 686 554 l 746 554 l 746 426 l 619 426 l 619 486 l 560 486 l 560 614 m 643 449 l 721 449 l 721 529 l 643 529 l 643 449 z "},"":{"ha":824,"x_min":14,"x_max":818,"o":"m 544 33 l 544 63 l 697 63 l 697 203 l 726 203 l 726 33 l 544 33 m 761 228 l 474 228 l 474 765 l 186 765 l 186 0 l 761 0 l 761 228 m 129 -57 l 129 57 l 14 57 l 14 938 l 417 938 l 417 824 l 531 824 l 531 400 l 704 400 l 704 285 l 818 285 l 818 -57 l 129 -57 m 560 614 l 686 614 l 686 554 l 746 554 l 746 426 l 619 426 l 619 486 l 560 486 l 560 614 m 643 449 l 721 449 l 721 529 l 643 529 l 643 449 z "},"":{"ha":824,"x_min":-29,"x_max":818,"o":"m 704 343 l 704 285 l 818 285 l 818 -57 l 129 -57 l 129 57 l 14 57 l 14 457 l -29 457 l -29 704 l 14 704 l 14 938 l 417 938 l 417 824 l 531 824 l 531 704 l 646 704 l 646 589 l 761 589 l 761 343 l 704 343 m 704 532 l 474 532 l 474 765 l 186 765 l 186 532 l 143 532 l 143 400 l 186 400 l 186 0 l 761 0 l 761 228 l 474 228 l 474 400 l 704 400 l 704 532 m 544 33 l 544 63 l 697 63 l 697 203 l 726 203 l 726 33 l 544 33 m 500 433 l 500 463 l 643 463 l 643 501 l 671 501 l 671 433 l 500 433 z "},"":{"ha":824,"x_min":-29,"x_max":818,"o":"m 704 343 l 704 285 l 818 285 l 818 -57 l 129 -57 l 129 57 l 14 57 l 14 457 l -29 457 l -29 704 l 14 704 l 14 938 l 417 938 l 417 824 l 531 824 l 531 704 l 646 704 l 646 589 l 761 589 l 761 343 l 704 343 m 704 532 l 474 532 l 474 765 l 186 765 l 186 532 l 143 532 l 143 400 l 186 400 l 186 0 l 761 0 l 761 228 l 474 228 l 474 400 l 704 400 l 704 532 m 544 33 l 544 63 l 697 63 l 697 203 l 726 203 l 726 33 l 544 33 m 500 433 l 500 463 l 643 463 l 643 501 l 671 501 l 671 433 l 500 433 z "},"":{"ha":1015,"x_min":82,"x_max":982,"o":"m 714 33 l 714 63 l 868 63 l 868 203 l 897 203 l 897 33 l 714 33 m 925 765 l 733 765 l 733 288 l 254 765 l 254 0 l 925 0 l 925 765 m 197 -57 l 197 57 l 82 57 l 82 1019 l 561 540 l 561 938 l 868 938 l 868 824 l 982 824 l 982 -57 l 197 -57 m 575 1163 l 690 1163 l 531 986 l 429 986 l 469 1046 l 369 1046 l 489 1222 l 631 1222 l 575 1163 m 636 1138 l 558 1138 l 471 1008 l 519 1008 l 636 1138 z "},"":{"ha":1015,"x_min":82,"x_max":982,"o":"m 714 33 l 714 63 l 868 63 l 868 203 l 897 203 l 897 33 l 714 33 m 925 765 l 733 765 l 733 288 l 254 765 l 254 0 l 925 0 l 925 765 m 197 -57 l 197 57 l 82 57 l 82 1019 l 561 540 l 561 938 l 868 938 l 868 824 l 982 824 l 982 -57 l 197 -57 m 575 1163 l 690 1163 l 531 986 l 429 986 l 469 1046 l 369 1046 l 489 1222 l 631 1222 l 575 1163 m 636 1138 l 558 1138 l 471 1008 l 519 1008 l 636 1138 z "},"":{"ha":1015,"x_min":82,"x_max":982,"o":"m 714 33 l 714 63 l 868 63 l 868 203 l 897 203 l 897 33 l 714 33 m 925 765 l 733 765 l 733 288 l 254 765 l 254 0 l 925 0 l 925 765 m 696 -240 q 697 -251 697 -243 q 691 -276 697 -262 q 676 -300 685 -289 q 655 -319 667 -311 q 631 -328 643 -328 l 631 -303 q 668 -240 668 -293 l 696 -240 m 724 -237 q 688 -148 724 -185 q 600 -111 651 -111 q 510 -148 547 -111 q 474 -237 474 -185 l 600 -237 l 600 -361 q 688 -325 651 -361 q 724 -237 724 -289 m 774 -237 q 711 -365 774 -318 q 549 -411 649 -411 l 549 -297 q 450 -312 500 -312 l 450 -286 l 424 -286 q 439 -186 424 -236 l 324 -186 q 353 -57 324 -110 l 197 -57 l 197 57 l 82 57 l 82 1019 l 561 540 l 561 938 l 868 938 l 868 824 l 982 824 l 982 -57 l 656 -57 q 659 -64 658 -60 q 663 -72 660 -68 q 744 -137 714 -93 q 774 -237 774 -182 z "},"":{"ha":1015,"x_min":82,"x_max":982,"o":"m 714 33 l 714 63 l 868 63 l 868 203 l 897 203 l 897 33 l 714 33 m 925 765 l 733 765 l 733 288 l 254 765 l 254 0 l 925 0 l 925 765 m 696 -240 q 697 -251 697 -243 q 691 -276 697 -262 q 676 -300 685 -289 q 655 -319 667 -311 q 631 -328 643 -328 l 631 -303 q 668 -240 668 -293 l 696 -240 m 724 -237 q 688 -148 724 -185 q 600 -111 651 -111 q 510 -148 547 -111 q 474 -237 474 -185 l 600 -237 l 600 -361 q 688 -325 651 -361 q 724 -237 724 -289 m 774 -237 q 711 -365 774 -318 q 549 -411 649 -411 l 549 -297 q 450 -312 500 -312 l 450 -286 l 424 -286 q 439 -186 424 -236 l 324 -186 q 353 -57 324 -110 l 197 -57 l 197 57 l 82 57 l 82 1019 l 561 540 l 561 938 l 868 938 l 868 824 l 982 824 l 982 -57 l 656 -57 q 659 -64 658 -60 q 663 -72 660 -68 q 744 -137 714 -93 q 774 -237 774 -182 z "},"":{"ha":1015,"x_min":82,"x_max":982,"o":"m 714 33 l 714 63 l 868 63 l 868 203 l 897 203 l 897 33 l 714 33 m 925 765 l 733 765 l 733 288 l 254 765 l 254 0 l 925 0 l 925 765 m 197 -57 l 197 57 l 82 57 l 82 1019 l 561 540 l 561 938 l 868 938 l 868 824 l 982 824 l 982 -57 l 197 -57 m 561 1163 l 665 1163 l 536 986 l 485 1058 l 476 1046 l 350 1222 l 606 1222 l 561 1163 m 617 1138 l 456 1138 l 535 1026 l 617 1138 z "},"":{"ha":1015,"x_min":82,"x_max":982,"o":"m 714 33 l 714 63 l 868 63 l 868 203 l 897 203 l 897 33 l 714 33 m 925 765 l 733 765 l 733 288 l 254 765 l 254 0 l 925 0 l 925 765 m 197 -57 l 197 57 l 82 57 l 82 1019 l 561 540 l 561 938 l 868 938 l 868 824 l 982 824 l 982 -57 l 197 -57 m 561 1163 l 665 1163 l 536 986 l 485 1058 l 476 1046 l 350 1222 l 606 1222 l 561 1163 m 617 1138 l 456 1138 l 535 1026 l 617 1138 z "},"":{"ha":1015,"x_min":82,"x_max":982,"o":"m 982 -67 q 955 -201 982 -137 q 881 -310 928 -264 q 771 -384 833 -357 q 636 -411 708 -411 q 354 -251 454 -411 q 233 -125 276 -207 q 179 57 189 -43 l 82 57 l 82 1019 l 561 540 l 561 938 l 868 938 l 868 824 l 982 824 l 982 -67 m 925 765 l 733 765 l 733 288 l 254 765 l 254 0 l 636 0 l 636 -67 l 350 -67 q 372 -178 350 -125 q 433 -269 394 -231 q 524 -331 472 -308 q 636 -354 576 -354 q 750 -331 697 -354 q 842 -269 803 -308 q 903 -178 881 -231 q 925 -67 925 -125 l 925 765 m 868 203 l 897 203 l 897 -67 q 876 -165 897 -118 q 818 -247 854 -211 q 735 -303 782 -282 q 636 -325 688 -325 l 636 -297 q 719 -277 678 -297 q 794 -224 761 -257 q 848 -149 828 -190 q 868 -67 868 -108 l 868 203 z "},"":{"ha":1015,"x_min":82,"x_max":982,"o":"m 982 -67 q 955 -201 982 -137 q 881 -310 928 -264 q 771 -384 833 -357 q 636 -411 708 -411 q 354 -251 454 -411 q 233 -125 276 -207 q 179 57 189 -43 l 82 57 l 82 1019 l 561 540 l 561 938 l 868 938 l 868 824 l 982 824 l 982 -67 m 925 765 l 733 765 l 733 288 l 254 765 l 254 0 l 636 0 l 636 -67 l 350 -67 q 372 -178 350 -125 q 433 -269 394 -231 q 524 -331 472 -308 q 636 -354 576 -354 q 750 -331 697 -354 q 842 -269 803 -308 q 903 -178 881 -231 q 925 -67 925 -125 l 925 765 m 868 203 l 897 203 l 897 -67 q 876 -165 897 -118 q 818 -247 854 -211 q 735 -303 782 -282 q 636 -325 688 -325 l 636 -297 q 719 -277 678 -297 q 794 -224 761 -257 q 848 -149 828 -190 q 868 -67 868 -108 l 868 203 z "},"":{"ha":1000,"x_min":3,"x_max":999,"o":"m 606 375 q 592 342 606 356 q 558 328 578 328 q 524 342 538 328 q 510 375 510 356 q 524 410 510 396 q 558 424 538 424 q 591 409 576 424 q 606 375 606 394 m 907 383 q 879 249 907 313 q 804 136 851 185 q 693 59 757 88 q 558 31 629 31 l 558 60 q 677 87 619 60 q 779 158 735 114 q 851 262 824 203 q 878 383 878 321 l 907 383 m 940 383 q 910 532 940 463 q 828 653 881 601 q 707 735 776 706 q 558 765 638 765 q 410 735 479 765 q 288 652 340 704 q 206 531 236 600 q 175 383 175 461 q 205 233 175 303 q 287 112 235 164 q 408 30 339 60 q 558 0 478 0 q 707 31 638 0 q 828 113 776 61 q 910 235 881 165 q 940 383 940 304 m 999 383 q 964 213 999 293 q 869 72 929 132 q 729 -22 810 13 q 558 -57 649 -57 q 351 -8 446 -57 q 194 133 257 42 q 53 290 103 196 q 3 497 3 385 q 38 667 3 588 q 133 808 72 747 q 273 903 193 868 q 443 938 353 938 q 650 888 556 938 q 807 747 744 839 q 949 590 899 685 q 999 383 999 496 m 311 1190 l 668 1190 l 668 1131 l 728 1131 l 728 1003 l 371 1003 l 371 1063 l 311 1063 l 311 1190 m 394 1025 l 703 1025 l 703 1106 l 394 1106 l 394 1025 z "},"":{"ha":1000,"x_min":3,"x_max":999,"o":"m 606 375 q 592 342 606 356 q 558 328 578 328 q 524 342 538 328 q 510 375 510 356 q 524 410 510 396 q 558 424 538 424 q 591 409 576 424 q 606 375 606 394 m 907 383 q 879 249 907 313 q 804 136 851 185 q 693 59 757 88 q 558 31 629 31 l 558 60 q 677 87 619 60 q 779 158 735 114 q 851 262 824 203 q 878 383 878 321 l 907 383 m 940 383 q 910 532 940 463 q 828 653 881 601 q 707 735 776 706 q 558 765 638 765 q 410 735 479 765 q 288 652 340 704 q 206 531 236 600 q 175 383 175 461 q 205 233 175 303 q 287 112 235 164 q 408 30 339 60 q 558 0 478 0 q 707 31 638 0 q 828 113 776 61 q 910 235 881 165 q 940 383 940 304 m 999 383 q 964 213 999 293 q 869 72 929 132 q 729 -22 810 13 q 558 -57 649 -57 q 351 -8 446 -57 q 194 133 257 42 q 53 290 103 196 q 3 497 3 385 q 38 667 3 588 q 133 808 72 747 q 273 903 193 868 q 443 938 353 938 q 650 888 556 938 q 807 747 744 839 q 949 590 899 685 q 999 383 999 496 m 311 1190 l 668 1190 l 668 1131 l 728 1131 l 728 1003 l 371 1003 l 371 1063 l 311 1063 l 311 1190 m 394 1025 l 703 1025 l 703 1106 l 394 1106 l 394 1025 z "},"":{"ha":1000,"x_min":3,"x_max":999,"o":"m 274 1256 l 658 1256 l 658 1151 l 776 1151 l 776 1121 q 760 1037 776 1074 q 715 974 743 1000 q 650 935 686 949 q 576 921 614 921 l 565 921 q 701 856 639 900 q 807 747 763 813 q 949 590 899 685 q 999 383 999 496 q 964 213 999 293 q 869 72 929 132 q 729 -22 810 13 q 558 -57 649 -57 q 351 -8 446 -57 q 194 133 257 42 q 53 290 103 196 q 3 497 3 385 q 38 667 3 588 q 133 808 72 747 q 273 903 193 868 q 443 938 353 938 q 476 936 460 938 q 508 932 492 935 q 389 1049 424 963 q 306 1099 338 1060 q 274 1193 274 1139 l 274 1256 m 940 383 q 910 532 940 463 q 828 653 881 601 q 707 735 776 706 q 558 765 638 765 q 410 735 479 765 q 288 652 340 704 q 206 531 236 600 q 175 383 175 461 q 205 233 175 303 q 287 112 235 164 q 408 30 339 60 q 558 0 478 0 q 707 31 638 0 q 828 113 776 61 q 910 235 881 165 q 940 383 940 304 m 576 978 q 669 1012 629 978 q 717 1097 708 1046 l 433 1097 q 481 1012 442 1046 q 576 978 521 978 m 907 383 q 879 249 907 313 q 804 136 851 185 q 693 59 757 88 q 558 31 629 31 l 558 60 q 677 87 619 60 q 779 158 735 114 q 851 262 824 203 q 878 383 878 321 l 907 383 m 606 375 q 592 342 606 356 q 558 328 578 328 q 524 342 538 328 q 510 375 510 356 q 524 410 510 396 q 558 424 538 424 q 591 409 576 424 q 606 375 606 394 m 607 1042 q 638 1063 625 1047 l 669 1063 q 607 1014 654 1026 l 607 1042 z "},"":{"ha":1000,"x_min":3,"x_max":999,"o":"m 274 1256 l 658 1256 l 658 1151 l 776 1151 l 776 1121 q 760 1037 776 1074 q 715 974 743 1000 q 650 935 686 949 q 576 921 614 921 l 565 921 q 701 856 639 900 q 807 747 763 813 q 949 590 899 685 q 999 383 999 496 q 964 213 999 293 q 869 72 929 132 q 729 -22 810 13 q 558 -57 649 -57 q 351 -8 446 -57 q 194 133 257 42 q 53 290 103 196 q 3 497 3 385 q 38 667 3 588 q 133 808 72 747 q 273 903 193 868 q 443 938 353 938 q 476 936 460 938 q 508 932 492 935 q 389 1049 424 963 q 306 1099 338 1060 q 274 1193 274 1139 l 274 1256 m 940 383 q 910 532 940 463 q 828 653 881 601 q 707 735 776 706 q 558 765 638 765 q 410 735 479 765 q 288 652 340 704 q 206 531 236 600 q 175 383 175 461 q 205 233 175 303 q 287 112 235 164 q 408 30 339 60 q 558 0 478 0 q 707 31 638 0 q 828 113 776 61 q 910 235 881 165 q 940 383 940 304 m 576 978 q 669 1012 629 978 q 717 1097 708 1046 l 433 1097 q 481 1012 442 1046 q 576 978 521 978 m 907 383 q 879 249 907 313 q 804 136 851 185 q 693 59 757 88 q 558 31 629 31 l 558 60 q 677 87 619 60 q 779 158 735 114 q 851 262 824 203 q 878 383 878 321 l 907 383 m 606 375 q 592 342 606 356 q 558 328 578 328 q 524 342 538 328 q 510 375 510 356 q 524 410 510 396 q 558 424 538 424 q 591 409 576 424 q 606 375 606 394 m 607 1042 q 638 1063 625 1047 l 669 1063 q 607 1014 654 1026 l 607 1042 z "},"":{"ha":1000,"x_min":3,"x_max":999,"o":"m 606 375 q 592 342 606 356 q 558 328 578 328 q 524 342 538 328 q 510 375 510 356 q 524 410 510 396 q 558 424 538 424 q 591 409 576 424 q 606 375 606 394 m 907 383 q 879 249 907 313 q 804 136 851 185 q 693 59 757 88 q 558 31 629 31 l 558 60 q 677 87 619 60 q 779 158 735 114 q 851 262 824 203 q 878 383 878 321 l 907 383 m 940 383 q 910 532 940 463 q 828 653 881 601 q 707 735 776 706 q 558 765 638 765 q 410 735 479 765 q 288 652 340 704 q 206 531 236 600 q 175 383 175 461 q 205 233 175 303 q 287 112 235 164 q 408 30 339 60 q 558 0 478 0 q 707 31 638 0 q 828 113 776 61 q 910 235 881 165 q 940 383 940 304 m 999 383 q 964 213 999 293 q 869 72 929 132 q 729 -22 810 13 q 558 -57 649 -57 q 351 -8 446 -57 q 194 133 257 42 q 53 290 103 196 q 3 497 3 385 q 38 667 3 588 q 133 808 72 747 q 273 903 193 868 q 443 938 353 938 q 650 888 556 938 q 807 747 744 839 q 949 590 899 685 q 999 383 999 496 m 529 1163 l 583 1163 l 624 1222 l 765 1222 l 710 1163 l 825 1163 l 665 986 l 564 986 l 604 1046 l 539 1046 l 485 986 l 383 986 l 424 1046 l 324 1046 l 443 1222 l 585 1222 l 529 1163 m 771 1138 l 693 1138 l 606 1008 l 654 1008 l 771 1138 m 590 1138 l 513 1138 l 425 1008 l 474 1008 l 590 1138 z "},"":{"ha":1000,"x_min":3,"x_max":999,"o":"m 606 375 q 592 342 606 356 q 558 328 578 328 q 524 342 538 328 q 510 375 510 356 q 524 410 510 396 q 558 424 538 424 q 591 409 576 424 q 606 375 606 394 m 907 383 q 879 249 907 313 q 804 136 851 185 q 693 59 757 88 q 558 31 629 31 l 558 60 q 677 87 619 60 q 779 158 735 114 q 851 262 824 203 q 878 383 878 321 l 907 383 m 940 383 q 910 532 940 463 q 828 653 881 601 q 707 735 776 706 q 558 765 638 765 q 410 735 479 765 q 288 652 340 704 q 206 531 236 600 q 175 383 175 461 q 205 233 175 303 q 287 112 235 164 q 408 30 339 60 q 558 0 478 0 q 707 31 638 0 q 828 113 776 61 q 910 235 881 165 q 940 383 940 304 m 999 383 q 964 213 999 293 q 869 72 929 132 q 729 -22 810 13 q 558 -57 649 -57 q 351 -8 446 -57 q 194 133 257 42 q 53 290 103 196 q 3 497 3 385 q 38 667 3 588 q 133 808 72 747 q 273 903 193 868 q 443 938 353 938 q 650 888 556 938 q 807 747 744 839 q 949 590 899 685 q 999 383 999 496 m 529 1163 l 583 1163 l 624 1222 l 765 1222 l 710 1163 l 825 1163 l 665 986 l 564 986 l 604 1046 l 539 1046 l 485 986 l 383 986 l 424 1046 l 324 1046 l 443 1222 l 585 1222 l 529 1163 m 771 1138 l 693 1138 l 606 1008 l 654 1008 l 771 1138 m 590 1138 l 513 1138 l 425 1008 l 474 1008 l 590 1138 z "},"":{"ha":1413,"x_min":3,"x_max":1361,"o":"m 767 -6 q 558 -57 674 -57 q 351 -8 446 -57 q 194 133 257 42 q 53 290 103 196 q 3 497 3 385 q 38 667 3 588 q 133 808 72 747 q 273 903 193 868 q 443 938 353 938 q 649 888 554 938 l 653 885 l 653 938 l 1246 938 l 1246 824 l 1361 824 l 1361 421 l 1246 421 l 1246 344 l 1361 344 l 1361 -57 l 767 -57 l 767 -6 m 940 383 q 910 532 940 463 q 828 653 881 601 q 707 735 776 706 q 558 765 638 765 q 410 735 479 765 q 288 652 340 704 q 206 531 236 600 q 175 383 175 461 q 205 233 175 303 q 287 112 235 164 q 408 30 339 60 q 558 0 478 0 q 678 19 621 0 q 784 74 736 39 q 868 159 832 110 q 924 268 904 208 l 940 382 l 940 383 m 1050 288 l 1050 324 l 1171 324 l 1171 443 l 1050 443 l 1050 479 l 1303 479 l 1303 765 l 825 765 l 824 736 q 953 579 908 671 q 999 383 999 488 q 869 71 999 200 l 851 54 l 825 0 l 1303 0 l 1303 288 l 1050 288 m 907 383 q 879 249 907 313 q 804 136 851 185 q 693 59 757 88 q 558 31 629 31 l 558 60 q 677 87 619 60 q 779 158 735 114 q 851 262 824 203 q 878 383 878 321 l 907 383 m 1089 539 l 1242 539 l 1242 678 l 1271 678 l 1271 510 l 1089 510 l 1089 539 m 1089 63 l 1242 63 l 1242 203 l 1271 203 l 1271 33 l 1089 33 l 1089 63 m 606 375 q 592 342 606 356 q 558 328 578 328 q 524 342 538 328 q 510 375 510 356 q 524 410 510 396 q 558 424 538 424 q 591 409 576 424 q 606 375 606 394 z "},"":{"ha":1413,"x_min":3,"x_max":1361,"o":"m 767 -6 q 558 -57 674 -57 q 351 -8 446 -57 q 194 133 257 42 q 53 290 103 196 q 3 497 3 385 q 38 667 3 588 q 133 808 72 747 q 273 903 193 868 q 443 938 353 938 q 649 888 554 938 l 653 885 l 653 938 l 1246 938 l 1246 824 l 1361 824 l 1361 421 l 1246 421 l 1246 344 l 1361 344 l 1361 -57 l 767 -57 l 767 -6 m 940 383 q 910 532 940 463 q 828 653 881 601 q 707 735 776 706 q 558 765 638 765 q 410 735 479 765 q 288 652 340 704 q 206 531 236 600 q 175 383 175 461 q 205 233 175 303 q 287 112 235 164 q 408 30 339 60 q 558 0 478 0 q 678 19 621 0 q 784 74 736 39 q 868 159 832 110 q 924 268 904 208 l 940 382 l 940 383 m 1050 288 l 1050 324 l 1171 324 l 1171 443 l 1050 443 l 1050 479 l 1303 479 l 1303 765 l 825 765 l 824 736 q 953 579 908 671 q 999 383 999 488 q 869 71 999 200 l 851 54 l 825 0 l 1303 0 l 1303 288 l 1050 288 m 907 383 q 879 249 907 313 q 804 136 851 185 q 693 59 757 88 q 558 31 629 31 l 558 60 q 677 87 619 60 q 779 158 735 114 q 851 262 824 203 q 878 383 878 321 l 907 383 m 1089 539 l 1242 539 l 1242 678 l 1271 678 l 1271 510 l 1089 510 l 1089 539 m 1089 63 l 1242 63 l 1242 203 l 1271 203 l 1271 33 l 1089 33 l 1089 63 m 606 375 q 592 342 606 356 q 558 328 578 328 q 524 342 538 328 q 510 375 510 356 q 524 410 510 396 q 558 424 538 424 q 591 409 576 424 q 606 375 606 394 z "},"":{"ha":839,"x_min":10,"x_max":881,"o":"m 739 546 q 722 471 739 506 q 675 411 704 436 q 608 372 646 386 q 531 358 571 358 l 497 358 l 711 26 l 553 26 l 553 56 l 656 56 l 444 388 l 531 388 q 592 401 560 388 q 650 436 624 414 q 694 487 676 458 q 711 546 711 515 l 739 546 m 585 546 q 571 511 585 525 q 538 497 557 497 q 503 511 517 497 q 489 546 489 525 q 503 579 489 565 q 538 593 517 593 q 571 579 557 593 q 585 546 585 565 m 565 325 q 645 343 607 325 q 713 392 683 361 q 758 462 742 422 q 775 546 775 501 q 758 628 775 589 q 712 699 740 668 q 645 747 683 729 q 565 765 607 765 l 182 765 l 182 0 l 775 0 l 565 325 m 125 -57 l 125 57 l 10 57 l 10 938 l 450 938 q 581 898 517 938 q 683 792 644 858 q 795 686 757 747 q 833 546 833 625 q 821 464 833 504 q 785 390 808 424 q 730 328 763 356 q 658 286 697 301 l 881 -57 l 125 -57 m 490 1163 l 606 1163 l 446 986 l 344 986 l 385 1046 l 285 1046 l 404 1222 l 546 1222 l 490 1163 m 551 1138 l 474 1138 l 386 1008 l 435 1008 l 551 1138 z "},"":{"ha":839,"x_min":10,"x_max":881,"o":"m 739 546 q 722 471 739 506 q 675 411 704 436 q 608 372 646 386 q 531 358 571 358 l 497 358 l 711 26 l 553 26 l 553 56 l 656 56 l 444 388 l 531 388 q 592 401 560 388 q 650 436 624 414 q 694 487 676 458 q 711 546 711 515 l 739 546 m 585 546 q 571 511 585 525 q 538 497 557 497 q 503 511 517 497 q 489 546 489 525 q 503 579 489 565 q 538 593 517 593 q 571 579 557 593 q 585 546 585 565 m 565 325 q 645 343 607 325 q 713 392 683 361 q 758 462 742 422 q 775 546 775 501 q 758 628 775 589 q 712 699 740 668 q 645 747 683 729 q 565 765 607 765 l 182 765 l 182 0 l 775 0 l 565 325 m 125 -57 l 125 57 l 10 57 l 10 938 l 450 938 q 581 898 517 938 q 683 792 644 858 q 795 686 757 747 q 833 546 833 625 q 821 464 833 504 q 785 390 808 424 q 730 328 763 356 q 658 286 697 301 l 881 -57 l 125 -57 m 490 1163 l 606 1163 l 446 986 l 344 986 l 385 1046 l 285 1046 l 404 1222 l 546 1222 l 490 1163 m 551 1138 l 474 1138 l 386 1008 l 435 1008 l 551 1138 z "},"":{"ha":839,"x_min":10,"x_max":881,"o":"m 739 546 q 722 471 739 506 q 675 411 704 436 q 608 372 646 386 q 531 358 571 358 l 497 358 l 711 26 l 553 26 l 553 56 l 656 56 l 444 388 l 531 388 q 592 401 560 388 q 650 436 624 414 q 694 487 676 458 q 711 546 711 515 l 739 546 m 585 546 q 571 511 585 525 q 538 497 557 497 q 503 511 517 497 q 489 546 489 525 q 503 579 489 565 q 538 593 517 593 q 571 579 557 593 q 585 546 585 565 m 565 325 q 645 343 607 325 q 713 392 683 361 q 758 462 742 422 q 775 546 775 501 q 758 628 775 589 q 712 699 740 668 q 645 747 683 729 q 565 765 607 765 l 182 765 l 182 0 l 775 0 l 565 325 m 578 -240 q 579 -251 579 -243 q 573 -276 579 -262 q 558 -300 567 -289 q 537 -319 549 -311 q 513 -328 525 -328 l 513 -303 q 550 -240 550 -293 l 578 -240 m 606 -237 q 569 -148 606 -185 q 482 -111 533 -111 q 392 -148 429 -111 q 356 -237 356 -185 l 482 -237 l 482 -361 q 569 -325 533 -361 q 606 -237 606 -289 m 656 -237 q 593 -365 656 -318 q 431 -411 531 -411 l 431 -297 q 332 -312 382 -312 l 332 -286 l 306 -286 q 321 -186 306 -236 l 206 -186 q 235 -57 206 -110 l 125 -57 l 125 57 l 10 57 l 10 938 l 450 938 q 581 898 517 938 q 683 792 644 858 q 795 686 757 747 q 833 546 833 625 q 821 464 833 504 q 785 390 808 424 q 730 328 763 356 q 658 286 697 301 l 881 -57 l 538 -57 q 541 -64 540 -60 q 544 -72 542 -68 q 626 -137 596 -93 q 656 -237 656 -182 z "},"":{"ha":839,"x_min":10,"x_max":881,"o":"m 739 546 q 722 471 739 506 q 675 411 704 436 q 608 372 646 386 q 531 358 571 358 l 497 358 l 711 26 l 553 26 l 553 56 l 656 56 l 444 388 l 531 388 q 592 401 560 388 q 650 436 624 414 q 694 487 676 458 q 711 546 711 515 l 739 546 m 585 546 q 571 511 585 525 q 538 497 557 497 q 503 511 517 497 q 489 546 489 525 q 503 579 489 565 q 538 593 517 593 q 571 579 557 593 q 585 546 585 565 m 565 325 q 645 343 607 325 q 713 392 683 361 q 758 462 742 422 q 775 546 775 501 q 758 628 775 589 q 712 699 740 668 q 645 747 683 729 q 565 765 607 765 l 182 765 l 182 0 l 775 0 l 565 325 m 578 -240 q 579 -251 579 -243 q 573 -276 579 -262 q 558 -300 567 -289 q 537 -319 549 -311 q 513 -328 525 -328 l 513 -303 q 550 -240 550 -293 l 578 -240 m 606 -237 q 569 -148 606 -185 q 482 -111 533 -111 q 392 -148 429 -111 q 356 -237 356 -185 l 482 -237 l 482 -361 q 569 -325 533 -361 q 606 -237 606 -289 m 656 -237 q 593 -365 656 -318 q 431 -411 531 -411 l 431 -297 q 332 -312 382 -312 l 332 -286 l 306 -286 q 321 -186 306 -236 l 206 -186 q 235 -57 206 -110 l 125 -57 l 125 57 l 10 57 l 10 938 l 450 938 q 581 898 517 938 q 683 792 644 858 q 795 686 757 747 q 833 546 833 625 q 821 464 833 504 q 785 390 808 424 q 730 328 763 356 q 658 286 697 301 l 881 -57 l 538 -57 q 541 -64 540 -60 q 544 -72 542 -68 q 626 -137 596 -93 q 656 -237 656 -182 z "},"":{"ha":839,"x_min":10,"x_max":881,"o":"m 739 546 q 722 471 739 506 q 675 411 704 436 q 608 372 646 386 q 531 358 571 358 l 497 358 l 711 26 l 553 26 l 553 56 l 656 56 l 444 388 l 531 388 q 592 401 560 388 q 650 436 624 414 q 694 487 676 458 q 711 546 711 515 l 739 546 m 585 546 q 571 511 585 525 q 538 497 557 497 q 503 511 517 497 q 489 546 489 525 q 503 579 489 565 q 538 593 517 593 q 571 579 557 593 q 585 546 585 565 m 565 325 q 645 343 607 325 q 713 392 683 361 q 758 462 742 422 q 775 546 775 501 q 758 628 775 589 q 712 699 740 668 q 645 747 683 729 q 565 765 607 765 l 182 765 l 182 0 l 775 0 l 565 325 m 125 -57 l 125 57 l 10 57 l 10 938 l 450 938 q 581 898 517 938 q 683 792 644 858 q 795 686 757 747 q 833 546 833 625 q 821 464 833 504 q 785 390 808 424 q 730 328 763 356 q 658 286 697 301 l 881 -57 l 125 -57 m 475 1163 l 579 1163 l 450 986 l 399 1058 l 390 1046 l 264 1222 l 519 1222 l 475 1163 m 531 1138 l 369 1138 l 449 1026 l 531 1138 z "},"":{"ha":839,"x_min":10,"x_max":881,"o":"m 739 546 q 722 471 739 506 q 675 411 704 436 q 608 372 646 386 q 531 358 571 358 l 497 358 l 711 26 l 553 26 l 553 56 l 656 56 l 444 388 l 531 388 q 592 401 560 388 q 650 436 624 414 q 694 487 676 458 q 711 546 711 515 l 739 546 m 585 546 q 571 511 585 525 q 538 497 557 497 q 503 511 517 497 q 489 546 489 525 q 503 579 489 565 q 538 593 517 593 q 571 579 557 593 q 585 546 585 565 m 565 325 q 645 343 607 325 q 713 392 683 361 q 758 462 742 422 q 775 546 775 501 q 758 628 775 589 q 712 699 740 668 q 645 747 683 729 q 565 765 607 765 l 182 765 l 182 0 l 775 0 l 565 325 m 125 -57 l 125 57 l 10 57 l 10 938 l 450 938 q 581 898 517 938 q 683 792 644 858 q 795 686 757 747 q 833 546 833 625 q 821 464 833 504 q 785 390 808 424 q 730 328 763 356 q 658 286 697 301 l 881 -57 l 125 -57 m 475 1163 l 579 1163 l 450 986 l 399 1058 l 390 1046 l 264 1222 l 519 1222 l 475 1163 m 531 1138 l 369 1138 l 449 1026 l 531 1138 z "},"":{"ha":767,"x_min":14,"x_max":753,"o":"m 664 258 q 647 169 664 211 q 599 97 629 128 q 527 47 568 65 q 440 29 486 29 l 440 57 q 515 75 479 57 q 576 122 550 93 q 619 186 603 150 q 635 258 635 222 l 664 258 m 422 531 l 401 551 l 531 692 l 551 672 l 422 531 m 696 254 q 676 353 696 307 q 621 434 656 400 q 540 488 586 468 q 440 508 493 508 l 622 690 q 440 765 549 765 q 342 746 388 765 q 261 692 296 726 q 206 612 226 658 q 186 513 186 565 q 206 413 186 460 q 260 333 226 367 q 341 278 294 299 q 440 258 388 258 l 256 74 q 440 0 322 0 q 541 20 494 0 q 622 75 588 40 q 676 156 656 110 q 696 254 696 201 m 753 254 q 728 135 753 192 q 662 35 704 78 q 563 -32 619 -7 q 440 -57 506 -57 q 176 75 296 -57 l 192 90 q 63 190 121 124 l 194 322 q 171 357 182 336 q 56 472 99 400 q 14 626 14 543 q 39 749 14 692 q 106 847 64 806 q 205 913 149 889 q 325 938 261 938 q 589 806 457 938 l 574 790 q 704 690 635 760 l 574 558 q 596 524 585 543 q 712 410 671 482 q 753 254 753 339 m 486 1163 l 601 1163 l 442 986 l 340 986 l 381 1046 l 281 1046 l 400 1222 l 542 1222 l 486 1163 m 547 1138 l 469 1138 l 382 1008 l 431 1008 l 547 1138 z "},"":{"ha":767,"x_min":14,"x_max":753,"o":"m 664 258 q 647 169 664 211 q 599 97 629 128 q 527 47 568 65 q 440 29 486 29 l 440 57 q 515 75 479 57 q 576 122 550 93 q 619 186 603 150 q 635 258 635 222 l 664 258 m 422 531 l 401 551 l 531 692 l 551 672 l 422 531 m 696 254 q 676 353 696 307 q 621 434 656 400 q 540 488 586 468 q 440 508 493 508 l 622 690 q 440 765 549 765 q 342 746 388 765 q 261 692 296 726 q 206 612 226 658 q 186 513 186 565 q 206 413 186 460 q 260 333 226 367 q 341 278 294 299 q 440 258 388 258 l 256 74 q 440 0 322 0 q 541 20 494 0 q 622 75 588 40 q 676 156 656 110 q 696 254 696 201 m 753 254 q 728 135 753 192 q 662 35 704 78 q 563 -32 619 -7 q 440 -57 506 -57 q 176 75 296 -57 l 192 90 q 63 190 121 124 l 194 322 q 171 357 182 336 q 56 472 99 400 q 14 626 14 543 q 39 749 14 692 q 106 847 64 806 q 205 913 149 889 q 325 938 261 938 q 589 806 457 938 l 574 790 q 704 690 635 760 l 574 558 q 596 524 585 543 q 712 410 671 482 q 753 254 753 339 m 486 1163 l 601 1163 l 442 986 l 340 986 l 381 1046 l 281 1046 l 400 1222 l 542 1222 l 486 1163 m 547 1138 l 469 1138 l 382 1008 l 431 1008 l 547 1138 z "},"":{"ha":767,"x_min":14,"x_max":753,"o":"m 664 258 q 647 169 664 211 q 599 97 629 128 q 527 47 568 65 q 440 29 486 29 l 440 57 q 515 75 479 57 q 576 122 550 93 q 619 186 603 150 q 635 258 635 222 l 664 258 m 422 531 l 401 551 l 531 692 l 551 672 l 422 531 m 696 254 q 676 353 696 307 q 621 434 656 400 q 540 488 586 468 q 440 508 493 508 l 622 690 q 440 765 549 765 q 342 746 388 765 q 261 692 296 726 q 206 612 226 658 q 186 513 186 565 q 206 413 186 460 q 260 333 226 367 q 341 278 294 299 q 440 258 388 258 l 256 74 q 440 0 322 0 q 541 20 494 0 q 622 75 588 40 q 676 156 656 110 q 696 254 696 201 m 542 -240 q 543 -251 543 -243 q 537 -276 543 -262 q 522 -300 531 -289 q 501 -319 513 -311 q 476 -328 489 -328 l 476 -303 q 514 -240 514 -293 l 542 -240 m 569 -237 q 533 -148 569 -185 q 446 -111 497 -111 q 356 -148 393 -111 q 319 -237 319 -185 l 446 -237 l 446 -361 q 533 -325 497 -361 q 569 -237 569 -289 m 619 -237 q 557 -365 619 -318 q 394 -411 494 -411 l 394 -297 q 296 -312 346 -312 l 296 -286 l 269 -286 q 285 -186 269 -236 l 169 -186 q 192 -69 169 -118 q 256 4 215 -21 q 215 36 235 19 q 176 75 196 53 l 192 90 q 63 190 121 124 l 194 322 q 171 357 182 336 q 56 472 99 400 q 14 626 14 543 q 39 749 14 692 q 106 847 64 806 q 205 913 149 889 q 325 938 261 938 q 589 806 457 938 l 574 790 q 704 690 635 760 l 574 558 q 596 524 585 543 q 712 410 671 482 q 753 254 753 339 q 733 148 753 199 q 680 56 714 97 q 599 -13 646 15 q 499 -51 553 -42 q 503 -60 501 -56 q 508 -72 506 -65 q 590 -137 560 -93 q 619 -237 619 -182 z "},"":{"ha":767,"x_min":14,"x_max":753,"o":"m 664 258 q 647 169 664 211 q 599 97 629 128 q 527 47 568 65 q 440 29 486 29 l 440 57 q 515 75 479 57 q 576 122 550 93 q 619 186 603 150 q 635 258 635 222 l 664 258 m 422 531 l 401 551 l 531 692 l 551 672 l 422 531 m 696 254 q 676 353 696 307 q 621 434 656 400 q 540 488 586 468 q 440 508 493 508 l 622 690 q 440 765 549 765 q 342 746 388 765 q 261 692 296 726 q 206 612 226 658 q 186 513 186 565 q 206 413 186 460 q 260 333 226 367 q 341 278 294 299 q 440 258 388 258 l 256 74 q 440 0 322 0 q 541 20 494 0 q 622 75 588 40 q 676 156 656 110 q 696 254 696 201 m 542 -240 q 543 -251 543 -243 q 537 -276 543 -262 q 522 -300 531 -289 q 501 -319 513 -311 q 476 -328 489 -328 l 476 -303 q 514 -240 514 -293 l 542 -240 m 569 -237 q 533 -148 569 -185 q 446 -111 497 -111 q 356 -148 393 -111 q 319 -237 319 -185 l 446 -237 l 446 -361 q 533 -325 497 -361 q 569 -237 569 -289 m 619 -237 q 557 -365 619 -318 q 394 -411 494 -411 l 394 -297 q 296 -312 346 -312 l 296 -286 l 269 -286 q 285 -186 269 -236 l 169 -186 q 192 -69 169 -118 q 256 4 215 -21 q 215 36 235 19 q 176 75 196 53 l 192 90 q 63 190 121 124 l 194 322 q 171 357 182 336 q 56 472 99 400 q 14 626 14 543 q 39 749 14 692 q 106 847 64 806 q 205 913 149 889 q 325 938 261 938 q 589 806 457 938 l 574 790 q 704 690 635 760 l 574 558 q 596 524 585 543 q 712 410 671 482 q 753 254 753 339 q 733 148 753 199 q 680 56 714 97 q 599 -13 646 15 q 499 -51 553 -42 q 503 -60 501 -56 q 508 -72 506 -65 q 590 -137 560 -93 q 619 -237 619 -182 z "},"":{"ha":767,"x_min":14,"x_max":753,"o":"m 664 258 q 647 169 664 211 q 599 97 629 128 q 527 47 568 65 q 440 29 486 29 l 440 57 q 515 75 479 57 q 576 122 550 93 q 619 186 603 150 q 635 258 635 222 l 664 258 m 422 531 l 401 551 l 531 692 l 551 672 l 422 531 m 696 254 q 676 353 696 307 q 621 434 656 400 q 540 488 586 468 q 440 508 493 508 l 622 690 q 440 765 549 765 q 342 746 388 765 q 261 692 296 726 q 206 612 226 658 q 186 513 186 565 q 206 413 186 460 q 260 333 226 367 q 341 278 294 299 q 440 258 388 258 l 256 74 q 440 0 322 0 q 541 20 494 0 q 622 75 588 40 q 676 156 656 110 q 696 254 696 201 m 753 254 q 728 135 753 192 q 662 35 704 78 q 563 -32 619 -7 q 440 -57 506 -57 q 176 75 296 -57 l 192 90 q 63 190 121 124 l 194 322 q 171 357 182 336 q 56 472 99 400 q 14 626 14 543 q 39 749 14 692 q 106 847 64 806 q 205 913 149 889 q 325 938 261 938 q 589 806 457 938 l 574 790 q 704 690 635 760 l 574 558 q 596 524 585 543 q 712 410 671 482 q 753 254 753 339 m 447 1163 l 551 1163 l 422 986 l 371 1058 l 363 1046 l 236 1222 l 492 1222 l 447 1163 m 503 1138 l 342 1138 l 421 1026 l 503 1138 z "},"":{"ha":767,"x_min":14,"x_max":753,"o":"m 664 258 q 647 169 664 211 q 599 97 629 128 q 527 47 568 65 q 440 29 486 29 l 440 57 q 515 75 479 57 q 576 122 550 93 q 619 186 603 150 q 635 258 635 222 l 664 258 m 422 531 l 401 551 l 531 692 l 551 672 l 422 531 m 696 254 q 676 353 696 307 q 621 434 656 400 q 540 488 586 468 q 440 508 493 508 l 622 690 q 440 765 549 765 q 342 746 388 765 q 261 692 296 726 q 206 612 226 658 q 186 513 186 565 q 206 413 186 460 q 260 333 226 367 q 341 278 294 299 q 440 258 388 258 l 256 74 q 440 0 322 0 q 541 20 494 0 q 622 75 588 40 q 676 156 656 110 q 696 254 696 201 m 753 254 q 728 135 753 192 q 662 35 704 78 q 563 -32 619 -7 q 440 -57 506 -57 q 176 75 296 -57 l 192 90 q 63 190 121 124 l 194 322 q 171 357 182 336 q 56 472 99 400 q 14 626 14 543 q 39 749 14 692 q 106 847 64 806 q 205 913 149 889 q 325 938 261 938 q 589 806 457 938 l 574 790 q 704 690 635 760 l 574 558 q 596 524 585 543 q 712 410 671 482 q 753 254 753 339 m 447 1163 l 551 1163 l 422 986 l 371 1058 l 363 1046 l 236 1222 l 492 1222 l 447 1163 m 503 1138 l 342 1138 l 421 1026 l 503 1138 z "},"":{"ha":894,"x_min":-8,"x_max":892,"o":"m 426 33 l 426 63 l 579 63 l 579 203 l 608 203 l 608 33 l 426 33 m 643 613 l 643 642 l 769 642 l 769 713 l 799 713 l 799 613 l 643 613 m 833 765 l 164 765 l 164 574 l 356 574 l 356 0 l 643 0 l 643 574 l 833 574 l 833 765 m 589 -240 q 590 -251 590 -243 q 584 -276 590 -262 q 569 -300 578 -289 q 548 -319 560 -311 q 524 -328 536 -328 l 524 -303 q 561 -240 561 -293 l 589 -240 m 617 -237 q 581 -148 617 -185 q 493 -111 544 -111 q 403 -148 440 -111 q 367 -237 367 -185 l 493 -237 l 493 -361 q 581 -325 544 -361 q 617 -237 617 -289 m 667 -237 q 604 -365 667 -318 q 442 -411 542 -411 l 442 -297 q 343 -312 393 -312 l 343 -286 l 317 -286 q 332 -186 317 -236 l 217 -186 q 299 1 217 -53 l 299 57 l 183 57 l 183 517 l 107 517 l 107 632 l -8 632 l -8 938 l 776 938 l 776 824 l 892 824 l 892 517 l 700 517 l 700 -57 l 549 -57 q 552 -64 551 -60 q 556 -72 553 -68 q 637 -137 607 -93 q 667 -237 667 -182 z "},"":{"ha":894,"x_min":-8,"x_max":892,"o":"m 426 33 l 426 63 l 579 63 l 579 203 l 608 203 l 608 33 l 426 33 m 643 613 l 643 642 l 769 642 l 769 713 l 799 713 l 799 613 l 643 613 m 833 765 l 164 765 l 164 574 l 356 574 l 356 0 l 643 0 l 643 574 l 833 574 l 833 765 m 589 -240 q 590 -251 590 -243 q 584 -276 590 -262 q 569 -300 578 -289 q 548 -319 560 -311 q 524 -328 536 -328 l 524 -303 q 561 -240 561 -293 l 589 -240 m 617 -237 q 581 -148 617 -185 q 493 -111 544 -111 q 403 -148 440 -111 q 367 -237 367 -185 l 493 -237 l 493 -361 q 581 -325 544 -361 q 617 -237 617 -289 m 667 -237 q 604 -365 667 -318 q 442 -411 542 -411 l 442 -297 q 343 -312 393 -312 l 343 -286 l 317 -286 q 332 -186 317 -236 l 217 -186 q 299 1 217 -53 l 299 57 l 183 57 l 183 517 l 107 517 l 107 632 l -8 632 l -8 938 l 776 938 l 776 824 l 892 824 l 892 517 l 700 517 l 700 -57 l 549 -57 q 552 -64 551 -60 q 556 -72 553 -68 q 637 -137 607 -93 q 667 -237 667 -182 z "},"":{"ha":894,"x_min":-8,"x_max":892,"o":"m 426 33 l 426 63 l 579 63 l 579 203 l 608 203 l 608 33 l 426 33 m 643 613 l 643 642 l 769 642 l 769 713 l 799 713 l 799 613 l 643 613 m 833 765 l 164 765 l 164 574 l 356 574 l 356 0 l 643 0 l 643 574 l 833 574 l 833 765 m 700 517 l 700 -57 l 299 -57 l 299 57 l 183 57 l 183 517 l 107 517 l 107 632 l -8 632 l -8 938 l 776 938 l 776 824 l 892 824 l 892 517 l 700 517 m 525 1163 l 629 1163 l 500 986 l 449 1058 l 440 1046 l 314 1222 l 569 1222 l 525 1163 m 581 1138 l 419 1138 l 499 1026 l 581 1138 z "},"":{"ha":894,"x_min":-8,"x_max":892,"o":"m 426 33 l 426 63 l 579 63 l 579 203 l 608 203 l 608 33 l 426 33 m 643 613 l 643 642 l 769 642 l 769 713 l 799 713 l 799 613 l 643 613 m 833 765 l 164 765 l 164 574 l 356 574 l 356 0 l 643 0 l 643 574 l 833 574 l 833 765 m 700 517 l 700 -57 l 299 -57 l 299 57 l 183 57 l 183 517 l 107 517 l 107 632 l -8 632 l -8 938 l 776 938 l 776 824 l 892 824 l 892 517 l 700 517 m 525 1163 l 629 1163 l 500 986 l 449 1058 l 440 1046 l 314 1222 l 569 1222 l 525 1163 m 581 1138 l 419 1138 l 499 1026 l 581 1138 z "},"":{"ha":894,"x_min":-8,"x_max":892,"o":"m 700 236 l 700 -57 l 299 -57 l 299 57 l 183 57 l 183 350 l 100 350 l 100 597 l 107 597 l 107 632 l -8 632 l -8 938 l 776 938 l 776 824 l 892 824 l 892 517 l 700 517 l 700 482 l 793 482 l 793 236 l 700 236 m 735 425 l 643 425 l 643 574 l 833 574 l 833 765 l 164 765 l 164 574 l 356 574 l 356 425 l 272 425 l 272 293 l 356 293 l 356 0 l 643 0 l 643 293 l 735 293 l 735 425 m 426 33 l 426 63 l 579 63 l 579 203 l 608 203 l 608 33 l 426 33 m 643 613 l 643 642 l 769 642 l 769 713 l 799 713 l 799 613 l 643 613 m 643 326 l 643 356 l 674 356 l 674 394 l 703 394 l 703 326 l 643 326 z "},"":{"ha":894,"x_min":-8,"x_max":892,"o":"m 700 236 l 700 -57 l 299 -57 l 299 57 l 183 57 l 183 350 l 100 350 l 100 597 l 107 597 l 107 632 l -8 632 l -8 938 l 776 938 l 776 824 l 892 824 l 892 517 l 700 517 l 700 482 l 793 482 l 793 236 l 700 236 m 735 425 l 643 425 l 643 574 l 833 574 l 833 765 l 164 765 l 164 574 l 356 574 l 356 425 l 272 425 l 272 293 l 356 293 l 356 0 l 643 0 l 643 293 l 735 293 l 735 425 m 426 33 l 426 63 l 579 63 l 579 203 l 608 203 l 608 33 l 426 33 m 643 613 l 643 642 l 769 642 l 769 713 l 799 713 l 799 613 l 643 613 m 643 326 l 643 356 l 674 356 l 674 394 l 703 394 l 703 326 l 643 326 z "},"":{"ha":869,"x_min":28,"x_max":832,"o":"m 735 288 q 715 192 735 239 q 662 110 696 146 q 583 52 628 74 q 488 31 538 31 l 488 60 q 569 81 531 60 q 639 135 608 101 q 688 208 669 168 q 706 288 706 249 l 735 288 m 774 765 l 200 765 l 200 288 q 222 176 200 229 q 283 85 244 124 q 374 23 321 46 q 488 0 426 0 q 599 23 547 0 q 690 85 651 46 q 751 176 729 124 q 774 288 774 229 l 774 765 m 832 288 q 805 154 832 217 q 731 44 778 92 q 622 -30 685 -3 q 488 -57 558 -57 q 315 -14 392 -57 q 193 108 238 29 q 71 231 114 151 q 28 401 28 310 l 28 938 l 717 938 l 717 824 l 832 824 l 832 288 m 331 1024 q 360 1042 344 1038 q 393 1047 375 1047 q 438 1040 417 1047 q 478 1025 458 1033 q 519 1010 499 1017 q 561 1003 539 1003 q 644 1019 601 1003 q 710 1065 686 1035 l 626 1132 q 603 1115 618 1121 q 571 1110 588 1110 q 526 1117 547 1110 q 485 1133 506 1124 q 443 1149 465 1142 q 396 1156 421 1156 q 325 1144 360 1156 q 261 1106 290 1132 l 331 1024 m 169 1163 q 244 1207 204 1193 q 328 1221 285 1221 q 391 1215 360 1221 q 451 1194 422 1208 q 500 1176 474 1176 q 542 1188 522 1176 q 578 1218 563 1199 l 674 1139 l 667 1131 l 744 1067 q 665 1001 713 1024 q 564 979 617 979 q 524 986 544 979 q 482 1001 503 993 q 439 1017 461 1010 q 394 1024 417 1024 q 322 994 351 1024 l 258 1072 l 251 1067 l 169 1163 z "},"":{"ha":869,"x_min":28,"x_max":832,"o":"m 735 288 q 715 192 735 239 q 662 110 696 146 q 583 52 628 74 q 488 31 538 31 l 488 60 q 569 81 531 60 q 639 135 608 101 q 688 208 669 168 q 706 288 706 249 l 735 288 m 774 765 l 200 765 l 200 288 q 222 176 200 229 q 283 85 244 124 q 374 23 321 46 q 488 0 426 0 q 599 23 547 0 q 690 85 651 46 q 751 176 729 124 q 774 288 774 229 l 774 765 m 832 288 q 805 154 832 217 q 731 44 778 92 q 622 -30 685 -3 q 488 -57 558 -57 q 315 -14 392 -57 q 193 108 238 29 q 71 231 114 151 q 28 401 28 310 l 28 938 l 717 938 l 717 824 l 832 824 l 832 288 m 331 1024 q 360 1042 344 1038 q 393 1047 375 1047 q 438 1040 417 1047 q 478 1025 458 1033 q 519 1010 499 1017 q 561 1003 539 1003 q 644 1019 601 1003 q 710 1065 686 1035 l 626 1132 q 603 1115 618 1121 q 571 1110 588 1110 q 526 1117 547 1110 q 485 1133 506 1124 q 443 1149 465 1142 q 396 1156 421 1156 q 325 1144 360 1156 q 261 1106 290 1132 l 331 1024 m 169 1163 q 244 1207 204 1193 q 328 1221 285 1221 q 391 1215 360 1221 q 451 1194 422 1208 q 500 1176 474 1176 q 542 1188 522 1176 q 578 1218 563 1199 l 674 1139 l 667 1131 l 744 1067 q 665 1001 713 1024 q 564 979 617 979 q 524 986 544 979 q 482 1001 503 993 q 439 1017 461 1010 q 394 1024 417 1024 q 322 994 351 1024 l 258 1072 l 251 1067 l 169 1163 z "},"":{"ha":869,"x_min":28,"x_max":832,"o":"m 735 288 q 715 192 735 239 q 662 110 696 146 q 583 52 628 74 q 488 31 538 31 l 488 60 q 569 81 531 60 q 639 135 608 101 q 688 208 669 168 q 706 288 706 249 l 735 288 m 774 765 l 200 765 l 200 288 q 222 176 200 229 q 283 85 244 124 q 374 23 321 46 q 488 0 426 0 q 599 23 547 0 q 690 85 651 46 q 751 176 729 124 q 774 288 774 229 l 774 765 m 832 288 q 805 154 832 217 q 731 44 778 92 q 622 -30 685 -3 q 488 -57 558 -57 q 315 -14 392 -57 q 193 108 238 29 q 71 231 114 151 q 28 401 28 310 l 28 938 l 717 938 l 717 824 l 832 824 l 832 288 m 253 1190 l 610 1190 l 610 1131 l 669 1131 l 669 1003 l 313 1003 l 313 1063 l 253 1063 l 253 1190 m 336 1025 l 644 1025 l 644 1106 l 336 1106 l 336 1025 z "},"":{"ha":869,"x_min":28,"x_max":832,"o":"m 735 288 q 715 192 735 239 q 662 110 696 146 q 583 52 628 74 q 488 31 538 31 l 488 60 q 569 81 531 60 q 639 135 608 101 q 688 208 669 168 q 706 288 706 249 l 735 288 m 774 765 l 200 765 l 200 288 q 222 176 200 229 q 283 85 244 124 q 374 23 321 46 q 488 0 426 0 q 599 23 547 0 q 690 85 651 46 q 751 176 729 124 q 774 288 774 229 l 774 765 m 832 288 q 805 154 832 217 q 731 44 778 92 q 622 -30 685 -3 q 488 -57 558 -57 q 315 -14 392 -57 q 193 108 238 29 q 71 231 114 151 q 28 401 28 310 l 28 938 l 717 938 l 717 824 l 832 824 l 832 288 m 253 1190 l 610 1190 l 610 1131 l 669 1131 l 669 1003 l 313 1003 l 313 1063 l 253 1063 l 253 1190 m 336 1025 l 644 1025 l 644 1106 l 336 1106 l 336 1025 z "},"":{"ha":869,"x_min":28,"x_max":832,"o":"m 196 1256 l 581 1256 l 581 1151 l 699 1151 l 699 1121 q 665 1005 699 1051 q 579 938 631 958 l 717 938 l 717 824 l 832 824 l 832 288 q 805 154 832 217 q 731 44 778 92 q 622 -30 685 -3 q 488 -57 558 -57 q 315 -14 392 -57 q 193 108 238 29 q 71 231 114 151 q 28 401 28 310 l 28 938 l 418 938 q 354 981 382 953 q 311 1049 326 1010 q 228 1099 260 1060 q 196 1193 196 1139 l 196 1256 m 774 765 l 200 765 l 200 288 q 222 176 200 229 q 283 85 244 124 q 374 23 321 46 q 488 0 426 0 q 599 23 547 0 q 690 85 651 46 q 751 176 729 124 q 774 288 774 229 l 774 765 m 499 978 q 591 1012 551 978 q 639 1097 631 1046 l 356 1097 q 403 1012 364 1046 q 499 978 443 978 m 735 288 q 715 192 735 239 q 662 110 696 146 q 583 52 628 74 q 488 31 538 31 l 488 60 q 569 81 531 60 q 639 135 608 101 q 688 208 669 168 q 706 288 706 249 l 735 288 m 529 1042 q 560 1063 547 1047 l 592 1063 q 529 1014 576 1026 l 529 1042 z "},"":{"ha":869,"x_min":28,"x_max":832,"o":"m 196 1256 l 581 1256 l 581 1151 l 699 1151 l 699 1121 q 665 1005 699 1051 q 579 938 631 958 l 717 938 l 717 824 l 832 824 l 832 288 q 805 154 832 217 q 731 44 778 92 q 622 -30 685 -3 q 488 -57 558 -57 q 315 -14 392 -57 q 193 108 238 29 q 71 231 114 151 q 28 401 28 310 l 28 938 l 418 938 q 354 981 382 953 q 311 1049 326 1010 q 228 1099 260 1060 q 196 1193 196 1139 l 196 1256 m 774 765 l 200 765 l 200 288 q 222 176 200 229 q 283 85 244 124 q 374 23 321 46 q 488 0 426 0 q 599 23 547 0 q 690 85 651 46 q 751 176 729 124 q 774 288 774 229 l 774 765 m 499 978 q 591 1012 551 978 q 639 1097 631 1046 l 356 1097 q 403 1012 364 1046 q 499 978 443 978 m 735 288 q 715 192 735 239 q 662 110 696 146 q 583 52 628 74 q 488 31 538 31 l 488 60 q 569 81 531 60 q 639 135 608 101 q 688 208 669 168 q 706 288 706 249 l 735 288 m 529 1042 q 560 1063 547 1047 l 592 1063 q 529 1014 576 1026 l 529 1042 z "},"":{"ha":869,"x_min":28,"x_max":832,"o":"m 735 288 q 715 192 735 239 q 662 110 696 146 q 583 52 628 74 q 488 31 538 31 l 488 60 q 569 81 531 60 q 639 135 608 101 q 688 208 669 168 q 706 288 706 249 l 735 288 m 774 765 l 200 765 l 200 288 q 222 176 200 229 q 283 85 244 124 q 374 23 321 46 q 488 0 426 0 q 599 23 547 0 q 690 85 651 46 q 751 176 729 124 q 774 288 774 229 l 774 765 m 832 288 q 805 154 832 217 q 731 44 778 92 q 622 -30 685 -3 q 488 -57 558 -57 q 315 -14 392 -57 q 193 108 238 29 q 71 231 114 151 q 28 401 28 310 l 28 938 l 717 938 l 717 824 l 832 824 l 832 288 m 324 1144 q 355 1224 324 1192 q 433 1256 386 1256 q 495 1237 468 1256 q 535 1188 522 1218 q 585 1147 567 1174 q 603 1085 603 1119 q 572 1007 603 1039 q 493 975 540 975 q 431 994 458 975 q 390 1042 403 1013 q 342 1083 360 1056 q 324 1144 324 1110 m 406 1083 q 431 1023 406 1049 q 492 997 456 997 q 553 1023 528 997 q 578 1083 578 1049 q 553 1144 578 1119 q 492 1169 528 1169 q 431 1144 456 1169 q 406 1083 406 1119 m 463 1083 q 493 1114 463 1114 q 514 1106 506 1114 q 522 1083 522 1097 q 514 1063 522 1071 q 493 1054 506 1054 q 471 1063 479 1054 q 463 1083 463 1071 z "},"":{"ha":869,"x_min":28,"x_max":832,"o":"m 735 288 q 715 192 735 239 q 662 110 696 146 q 583 52 628 74 q 488 31 538 31 l 488 60 q 569 81 531 60 q 639 135 608 101 q 688 208 669 168 q 706 288 706 249 l 735 288 m 774 765 l 200 765 l 200 288 q 222 176 200 229 q 283 85 244 124 q 374 23 321 46 q 488 0 426 0 q 599 23 547 0 q 690 85 651 46 q 751 176 729 124 q 774 288 774 229 l 774 765 m 832 288 q 805 154 832 217 q 731 44 778 92 q 622 -30 685 -3 q 488 -57 558 -57 q 315 -14 392 -57 q 193 108 238 29 q 71 231 114 151 q 28 401 28 310 l 28 938 l 717 938 l 717 824 l 832 824 l 832 288 m 324 1144 q 355 1224 324 1192 q 433 1256 386 1256 q 495 1237 468 1256 q 535 1188 522 1218 q 585 1147 567 1174 q 603 1085 603 1119 q 572 1007 603 1039 q 493 975 540 975 q 431 994 458 975 q 390 1042 403 1013 q 342 1083 360 1056 q 324 1144 324 1110 m 406 1083 q 431 1023 406 1049 q 492 997 456 997 q 553 1023 528 997 q 578 1083 578 1049 q 553 1144 578 1119 q 492 1169 528 1169 q 431 1144 456 1169 q 406 1083 406 1119 m 463 1083 q 493 1114 463 1114 q 514 1106 506 1114 q 522 1083 522 1097 q 514 1063 522 1071 q 493 1054 506 1054 q 471 1063 479 1054 q 463 1083 463 1071 z "}}}
